<svg width="58" height="50" viewBox="0 0 58 50" fill="none" xmlns="http://www.w3.org/2000/svg">
<path d="M36.5269 16.4303C36.5281 16.1593 36.4464 15.8941 36.2921 15.6682C36.1378 15.4423 35.9179 15.2658 35.6602 15.1611C35.4025 15.0564 35.1186 15.0282 34.8443 15.0799C34.5701 15.1317 34.3178 15.2612 34.1194 15.452C33.9211 15.6428 33.7855 15.8864 33.7299 16.152C33.6743 16.4175 33.7012 16.6931 33.8071 16.9438C33.913 17.1945 34.0932 17.4092 34.3249 17.5606C34.5566 17.712 34.8294 17.7934 35.1088 17.7944C35.2945 17.7959 35.4787 17.7616 35.6507 17.6937C35.8226 17.6258 35.9791 17.5256 36.1109 17.3988C36.2427 17.272 36.3474 17.1211 36.4188 16.9549C36.4902 16.7886 36.5269 16.6103 36.5269 16.4303Z" fill="#009335"/>
<path d="M40.6465 30.5189L45.7943 38.7187L49.2158 39.6252L57.8378 25.138L54.7552 19.9569H49.7077L43.4709 9.47496L45.988 5.24039L43.3783 0.856201H38.5301L35.0881 6.63534H23.7434L20.3024 0.857081H14.4667L9.46326 9.26638L16.0368 19.1604C16.0985 19.1604 16.1498 19.1406 16.2011 19.1406C17.0158 19.1315 17.8094 19.3924 18.4503 19.8802C19.0913 20.368 19.5413 21.0534 19.7258 21.8231C19.9103 22.5927 19.8183 23.4003 19.465 24.1123C19.1116 24.8243 18.5182 25.3979 17.7828 25.7382C17.0474 26.0785 16.2143 26.1651 15.4212 25.9837C14.6282 25.8023 13.9229 25.3637 13.4219 24.7405C12.921 24.1174 12.6545 23.347 12.6665 22.5569C12.6786 21.7669 12.9686 21.0045 13.4883 20.396L7.85776 11.937L0 25.1283L7.58278 37.8716L23.5107 27.7065L25.5041 20.6821L25.977 20.4031C25.977 20.4031 31.4533 17.1049 31.628 17.0055C31.5917 16.8148 31.571 16.6216 31.5663 16.4277C31.569 15.6666 31.8339 14.9281 32.3187 14.3296C32.8036 13.7311 33.4808 13.3068 34.2427 13.124C35.0046 12.9412 35.8077 13.0105 36.5244 13.3207C37.2411 13.631 37.8304 14.1645 38.1988 14.8366C38.5672 15.5087 38.6935 16.2809 38.5577 17.0305C38.4219 17.7802 38.0319 18.4644 37.4494 18.9745C36.8669 19.4847 36.1253 19.7916 35.3425 19.8464C34.5596 19.9013 33.7803 19.7011 33.1282 19.2774C32.9333 19.4233 32.7309 19.5596 32.5219 19.6858L27.926 22.4484L25.933 29.4729L8.99041 40.2633L12.9256 46.8693L26.3958 38.6096C26.3958 38.5599 26.3754 38.5101 26.3754 38.4503C26.3754 37.7724 26.5827 37.1097 26.9711 36.5461C27.3595 35.9824 27.9115 35.5431 28.5573 35.2837C29.2032 35.0243 29.9139 34.9564 30.5995 35.0886C31.2851 35.2209 31.9149 35.5473 32.4093 36.0267C32.9036 36.506 33.2402 37.1167 33.3766 37.7816C33.513 38.4465 33.443 39.1357 33.1754 39.762C32.9079 40.3882 32.4549 40.9236 31.8736 41.3002C31.2924 41.6768 30.609 41.8778 29.91 41.8778C29.0882 41.8753 28.2942 41.5892 27.6701 41.0708L14.3433 49.2402L14.4463 49.4198H43.3488L47.7156 42.0767L43.9446 41.0703L43.6465 40.6118C43.6465 40.6118 37.9442 31.5468 37.8312 31.3853C37.6346 31.4205 37.4354 31.4406 37.2354 31.4452C36.4469 31.4456 35.6807 31.1905 35.0588 30.7204C34.4369 30.2502 33.9949 29.592 33.8029 28.8503C33.611 28.1086 33.6801 27.326 33.9994 26.6268C34.3187 25.9275 34.8698 25.3519 35.5652 24.9912C36.2605 24.6305 37.0602 24.5055 37.8372 24.6361C38.6142 24.7666 39.3239 25.1453 39.8536 25.7118C40.3832 26.2783 40.7025 27.0002 40.7606 27.7628C40.8186 28.5255 40.6122 29.285 40.1741 29.9209C40.3538 30.1028 40.5122 30.3033 40.6465 30.5189Z" fill="#009335"/>
<path d="M31.3486 38.4498C31.3486 38.18 31.2661 37.9163 31.1115 37.692C30.957 37.4676 30.7373 37.2928 30.4802 37.1895C30.2232 37.0863 29.9403 37.0593 29.6674 37.1119C29.3946 37.1645 29.1439 37.2945 28.9472 37.4852C28.7504 37.676 28.6165 37.9191 28.5622 38.1837C28.5079 38.4483 28.5358 38.7226 28.6422 38.9719C28.7487 39.2211 28.929 39.4342 29.1603 39.5841C29.3917 39.734 29.6637 39.814 29.9419 39.814C30.1268 39.8144 30.3099 39.7795 30.4808 39.7111C30.6517 39.6427 30.8069 39.5422 30.9377 39.4155C31.0684 39.2887 31.172 39.1381 31.2425 38.9724C31.313 38.8067 31.3491 38.6291 31.3486 38.4498Z" fill="#009335"/>
<path d="M17.6211 22.5777C17.6201 22.3068 17.5361 22.0422 17.38 21.8175C17.2239 21.5928 17.0025 21.4181 16.744 21.3154C16.4854 21.2127 16.2013 21.1866 15.9274 21.2405C15.6536 21.2944 15.4024 21.4259 15.2056 21.6183C15.0089 21.8106 14.8753 22.0552 14.8219 22.3212C14.7685 22.5872 14.7977 22.8625 14.9057 23.1124C15.0136 23.3623 15.1956 23.5755 15.4286 23.7251C15.6615 23.8747 15.935 23.954 16.2144 23.9529C16.4 23.9525 16.5837 23.9165 16.7549 23.8471C16.9261 23.7778 17.0815 23.6763 17.2122 23.5485C17.3429 23.4208 17.4463 23.2692 17.5165 23.1026C17.5866 22.9361 17.6222 22.7577 17.6211 22.5777Z" fill="#009335"/>
<path d="M35.8692 28.0277C35.868 28.2991 35.95 28.5648 36.1048 28.7909C36.2595 29.0171 36.4801 29.1935 36.7385 29.2979C36.9968 29.4023 37.2813 29.4299 37.5559 29.3773C37.8305 29.3246 38.0827 29.194 38.2807 29.0021C38.4786 28.8102 38.6132 28.5655 38.6675 28.2993C38.7219 28.033 38.6934 27.7571 38.5857 27.5066C38.4781 27.256 38.2961 27.0422 38.0629 26.8921C37.8297 26.742 37.5558 26.6625 37.2759 26.6636C36.9031 26.6644 36.5457 26.8084 36.2821 27.064C36.0185 27.3197 35.87 27.6662 35.8692 28.0277Z" fill="#009335"/>
</svg>
