<svg width="76" height="38" viewBox="0 0 76 38" fill="none" xmlns="http://www.w3.org/2000/svg">
<path d="M8.82371 37.4176C6.08468 37.4176 4.01329 36.6472 2.60953 35.1065C1.20578 33.5316 0.503906 31.289 0.503906 28.3788V26.3245H5.84501V28.7896C5.84501 31.1178 6.82079 32.2819 8.77235 32.2819C9.73101 32.2819 10.45 32.008 10.9293 31.4602C11.4429 30.8781 11.6997 29.9537 11.6997 28.6869C11.6997 27.1804 11.3573 25.8623 10.6726 24.7324C9.98779 23.5684 8.72099 22.1817 6.87215 20.5725C4.54397 18.5183 2.91768 16.6694 1.99325 15.026C1.06883 13.3483 0.60662 11.4653 0.60662 9.37676C0.60662 6.53501 1.32561 4.34379 2.7636 2.80309C4.2016 1.22814 6.2901 0.440674 9.02913 0.440674C11.7339 0.440674 13.7711 1.22814 15.1406 2.80309C16.5443 4.34379 17.2462 6.56925 17.2462 9.47947V10.9688H11.9051V9.11997C11.9051 7.88741 11.6655 6.99723 11.1861 6.44942C10.7068 5.86738 10.0049 5.57635 9.08049 5.57635C7.19741 5.57635 6.25587 6.72332 6.25587 9.01726C6.25587 10.3183 6.59825 11.5337 7.283 12.6636C8.002 13.7934 9.28592 15.163 11.1348 16.7721C13.4972 18.8264 15.1235 20.6924 16.0137 22.37C16.9038 24.0477 17.3489 26.0164 17.3489 28.2761C17.3489 31.2205 16.6128 33.4802 15.1406 35.0552C13.7026 36.6301 11.597 37.4176 8.82371 37.4176Z" fill="#009335"/>
<path d="M28.7538 37.4176C25.9805 37.4176 23.8577 36.6301 22.3855 35.0552C20.9133 33.4802 20.1772 31.2548 20.1772 28.3788V9.47947C20.1772 6.60349 20.9133 4.37803 22.3855 2.80309C23.8577 1.22814 25.9805 0.440674 28.7538 0.440674C31.527 0.440674 33.6498 1.22814 35.122 2.80309C36.5942 4.37803 37.3303 6.60349 37.3303 9.47947V28.3788C37.3303 31.2548 36.5942 33.4802 35.122 35.0552C33.6498 36.6301 31.527 37.4176 28.7538 37.4176ZM28.7538 32.2819C30.7053 32.2819 31.6811 31.1007 31.6811 28.7383V9.11997C31.6811 6.75756 30.7053 5.57635 28.7538 5.57635C26.8022 5.57635 25.8264 6.75756 25.8264 9.11997V28.7383C25.8264 31.1007 26.8022 32.2819 28.7538 32.2819Z" fill="#009335"/>
<path d="M41.1508 0.954241H56.0956V6.08992H46.8001V16.1045H54.0927V21.2402H46.8001V36.904H41.1508V0.954241Z" fill="#009335"/>
<path d="M63.7229 6.08992H57.8169V0.954241H75.2782V6.08992H69.3722V36.904H63.7229V6.08992Z" fill="#009335"/>
</svg>
