<svg width="74" height="37" viewBox="0 0 74 37" fill="none" xmlns="http://www.w3.org/2000/svg">
<path d="M0.00390625 0.95459H8.63185C11.4394 0.95459 13.545 1.70782 14.9487 3.21429C16.3525 4.72075 17.0544 6.9291 17.0544 9.83932V28.0196C17.0544 30.9298 16.3525 33.1382 14.9487 34.6446C13.545 36.1511 11.4394 36.9043 8.63185 36.9043H0.00390625V0.95459ZM8.52913 31.7687C9.45356 31.7687 10.1554 31.4948 10.6348 30.947C11.1483 30.3992 11.4051 29.509 11.4051 28.2764V9.58253C11.4051 8.34997 11.1483 7.45978 10.6348 6.91198C10.1554 6.36417 9.45356 6.09027 8.52913 6.09027H5.65315V31.7687H8.52913Z" fill="white"/>
<path d="M25.1326 0.95459H32.7848L38.6395 36.9043H32.9902L31.9631 29.7658V29.8685H25.5435L24.5163 36.9043H19.278L25.1326 0.95459ZM31.2954 24.9896L28.779 7.22012H28.6762L26.2111 24.9896H31.2954Z" fill="white"/>
<path d="M43.4397 6.09027H37.5337V0.95459H54.995V6.09027H49.089V36.9043H43.4397V6.09027Z" fill="white"/>
<path d="M59.7383 0.95459H67.3904L73.2451 36.9043H67.5959L66.5687 29.7658V29.8685H60.1491L59.122 36.9043H53.8836L59.7383 0.95459ZM65.9011 24.9896L63.3846 7.22012H63.2819L60.8168 24.9896H65.9011Z" fill="white"/>
</svg>
