<svg width="151" height="12" viewBox="0 0 151 12" fill="none" xmlns="http://www.w3.org/2000/svg">
<path d="M3.55785 9.61985C2.90531 9.61985 2.34945 9.51512 1.89026 9.30567C1.43913 9.09621 1.09272 8.82634 0.851042 8.49604C0.609363 8.16575 0.480467 7.81531 0.464355 7.44474C0.464355 7.38029 0.488523 7.3239 0.536859 7.27556C0.585195 7.22723 0.645615 7.20306 0.718119 7.20306H0.959798C1.04036 7.20306 1.10078 7.22723 1.14106 7.27556C1.18939 7.3239 1.21759 7.38029 1.22564 7.44474C1.25787 7.6703 1.35857 7.89587 1.52774 8.12144C1.69692 8.33895 1.94665 8.52424 2.27695 8.6773C2.60724 8.82231 3.03421 8.89481 3.55785 8.89481C4.34733 8.89481 4.92333 8.75383 5.28585 8.47187C5.64837 8.18186 5.82963 7.79517 5.82963 7.31181C5.82963 6.98958 5.73296 6.73178 5.53962 6.53844C5.35433 6.33704 5.06834 6.15981 4.68165 6.00675C4.29497 5.84563 3.79953 5.6684 3.19533 5.47505C2.62335 5.28977 2.15208 5.10045 1.78151 4.90711C1.41093 4.70571 1.13703 4.46403 0.959798 4.18207C0.790622 3.90011 0.706035 3.53759 0.706035 3.09451C0.706035 2.68366 0.81479 2.31711 1.0323 1.99487C1.24981 1.66458 1.564 1.40276 1.97485 1.20942C2.39376 1.01607 2.90129 0.919403 3.49743 0.919403C3.97273 0.919403 4.38761 0.983851 4.74207 1.11275C5.09654 1.24164 5.39058 1.41485 5.6242 1.63236C5.85783 1.84181 6.03506 2.07141 6.1559 2.32114C6.27674 2.56282 6.34118 2.80047 6.34924 3.03409C6.34924 3.09049 6.3291 3.14688 6.28882 3.20327C6.24854 3.25161 6.18409 3.27577 6.09548 3.27577H5.8538C5.81352 3.27577 5.76115 3.25966 5.69671 3.22744C5.64032 3.19521 5.60406 3.13077 5.58795 3.03409C5.53962 2.6313 5.32613 2.301 4.9475 2.04321C4.57693 1.77736 4.09357 1.64444 3.49743 1.64444C2.90129 1.64444 2.4139 1.76125 2.03527 1.99487C1.65664 2.2285 1.46732 2.59504 1.46732 3.09451C1.46732 3.41675 1.55191 3.6826 1.72109 3.89206C1.89026 4.09345 2.15611 4.27471 2.51863 4.43583C2.88115 4.5889 3.34839 4.75807 3.92037 4.94336C4.52456 5.1367 5.02403 5.33005 5.41878 5.52339C5.81352 5.71673 6.10756 5.95438 6.3009 6.23634C6.49425 6.51025 6.59092 6.86874 6.59092 7.31181C6.59092 7.80323 6.46605 8.22214 6.21632 8.56854C5.97464 8.9069 5.62823 9.16871 5.1771 9.354C4.72596 9.53123 4.18621 9.61985 3.55785 9.61985Z" fill="white"/>
<path d="M13.714 9.61985C13.134 9.61985 12.6466 9.49901 12.2519 9.25733C11.8652 9.01565 11.5671 8.68536 11.3577 8.26645C11.1563 7.84754 11.0475 7.38029 11.0314 6.86471C11.0233 6.74387 11.0193 6.57469 11.0193 6.35718C11.0193 6.13967 11.0233 5.97049 11.0314 5.84966C11.0475 5.32602 11.1563 4.85877 11.3577 4.44792C11.5671 4.02901 11.8652 3.69871 12.2519 3.45703C12.6466 3.21535 13.134 3.09451 13.714 3.09451C14.2941 3.09451 14.7774 3.21535 15.1641 3.45703C15.5588 3.69871 15.8569 4.02901 16.0583 4.44792C16.2678 4.85877 16.3806 5.32602 16.3967 5.84966C16.4047 5.97049 16.4088 6.13967 16.4088 6.35718C16.4088 6.57469 16.4047 6.74387 16.3967 6.86471C16.3806 7.38029 16.2678 7.84754 16.0583 8.26645C15.8569 8.68536 15.5588 9.01565 15.1641 9.25733C14.7774 9.49901 14.2941 9.61985 13.714 9.61985ZM13.714 8.91898C14.2779 8.91898 14.7371 8.73772 15.0916 8.3752C15.4461 8.01268 15.6354 7.48905 15.6595 6.80429C15.6676 6.68345 15.6716 6.53441 15.6716 6.35718C15.6716 6.17995 15.6676 6.03091 15.6595 5.91008C15.6354 5.21726 15.4461 4.69362 15.0916 4.33916C14.7371 3.97664 14.2779 3.79538 13.714 3.79538C13.1501 3.79538 12.6909 3.97664 12.3365 4.33916C11.982 4.69362 11.7927 5.21726 11.7685 5.91008C11.7605 6.03091 11.7564 6.17995 11.7564 6.35718C11.7564 6.53441 11.7605 6.68345 11.7685 6.80429C11.7927 7.48905 11.982 8.01268 12.3365 8.3752C12.6909 8.73772 13.1501 8.91898 13.714 8.91898Z" fill="white"/>
<path d="M21.9768 9.49901C21.8962 9.49901 21.8318 9.47484 21.7835 9.42651C21.7351 9.37817 21.711 9.31372 21.711 9.23316V3.91622H20.6355C20.5549 3.91622 20.4905 3.89206 20.4421 3.84372C20.3938 3.79538 20.3696 3.73094 20.3696 3.65038V3.4812C20.3696 3.40064 20.3938 3.33619 20.4421 3.28786C20.4905 3.23952 20.5549 3.21535 20.6355 3.21535H21.711V2.52657C21.711 2.16405 21.7593 1.83376 21.856 1.53568C21.9607 1.23761 22.142 0.999963 22.3997 0.822731C22.6656 0.6455 23.0442 0.556885 23.5356 0.556885H24.164C24.2446 0.556885 24.309 0.581053 24.3573 0.629388C24.4057 0.677724 24.4299 0.742172 24.4299 0.822731V0.991906C24.4299 1.07247 24.4057 1.13691 24.3573 1.18525C24.309 1.23359 24.2446 1.25775 24.164 1.25775H23.5356C23.1087 1.25775 22.8187 1.37457 22.6656 1.60819C22.5206 1.83376 22.4481 2.16002 22.4481 2.58699V3.21535H24.0432C24.1237 3.21535 24.1882 3.23952 24.2365 3.28786C24.2848 3.33619 24.309 3.40064 24.309 3.4812V3.65038C24.309 3.73094 24.2848 3.79538 24.2365 3.84372C24.1882 3.89206 24.1237 3.91622 24.0432 3.91622H22.4481V9.23316C22.4481 9.31372 22.4239 9.37817 22.3756 9.42651C22.3272 9.47484 22.2628 9.49901 22.1822 9.49901H21.9768Z" fill="white"/>
<path d="M30.7298 9.49901C30.3109 9.49901 29.9806 9.41039 29.739 9.23316C29.4973 9.05593 29.3281 8.81425 29.2314 8.50812C29.1348 8.202 29.0864 7.85962 29.0864 7.48099V3.91622H28.1439C28.0633 3.91622 27.9989 3.89206 27.9505 3.84372C27.9022 3.79538 27.878 3.73094 27.878 3.65038V3.4812C27.878 3.40064 27.9022 3.33619 27.9505 3.28786C27.9989 3.23952 28.0633 3.21535 28.1439 3.21535H29.0864V1.18525C29.0864 1.10469 29.1106 1.04024 29.1589 0.991906C29.2073 0.943571 29.2717 0.919403 29.3523 0.919403H29.5577C29.6383 0.919403 29.7027 0.943571 29.751 0.991906C29.7994 1.04024 29.8235 1.10469 29.8235 1.18525V3.21535H31.322C31.4025 3.21535 31.467 3.23952 31.5153 3.28786C31.5636 3.33619 31.5878 3.40064 31.5878 3.4812V3.65038C31.5878 3.73094 31.5636 3.79538 31.5153 3.84372C31.467 3.89206 31.4025 3.91622 31.322 3.91622H29.8235V7.43265C29.8235 7.85962 29.892 8.19394 30.029 8.43562C30.174 8.6773 30.4277 8.79814 30.7903 8.79814H31.4428C31.5234 8.79814 31.5878 8.82231 31.6361 8.87064C31.6845 8.91898 31.7086 8.98343 31.7086 9.06399V9.23316C31.7086 9.31372 31.6845 9.37817 31.6361 9.42651C31.5878 9.47484 31.5234 9.49901 31.4428 9.49901H30.7298Z" fill="white"/>
<path d="M37.731 9.49901C37.6263 9.49901 37.5457 9.47484 37.4893 9.42651C37.4329 9.37817 37.3846 9.30164 37.3443 9.19691L35.6405 3.58996C35.6243 3.54162 35.6163 3.49731 35.6163 3.45703C35.6163 3.39259 35.6405 3.33619 35.6888 3.28786C35.7371 3.23952 35.7935 3.21535 35.858 3.21535H36.0876C36.1681 3.21535 36.2285 3.23952 36.2688 3.28786C36.3172 3.32814 36.3454 3.36439 36.3534 3.39661L37.8397 8.42354L39.4227 3.45703C39.4388 3.4087 39.4711 3.35633 39.5194 3.29994C39.5677 3.24355 39.6443 3.21535 39.749 3.21535H39.9907C40.0954 3.21535 40.1719 3.24355 40.2203 3.29994C40.2767 3.35633 40.3089 3.4087 40.3169 3.45703L41.8999 8.42354L43.3863 3.39661C43.3943 3.36439 43.4185 3.32814 43.4588 3.28786C43.5071 3.23952 43.5716 3.21535 43.6521 3.21535H43.8817C43.9462 3.21535 44.0026 3.23952 44.0509 3.28786C44.0992 3.33619 44.1234 3.39259 44.1234 3.45703C44.1234 3.49731 44.1153 3.54162 44.0992 3.58996L42.3954 9.19691C42.3632 9.30164 42.3189 9.37817 42.2625 9.42651C42.2061 9.47484 42.1215 9.49901 42.0087 9.49901H41.8033C41.6985 9.49901 41.6099 9.47484 41.5374 9.42651C41.473 9.37817 41.4246 9.30164 41.3924 9.19691L39.8698 4.43583L38.3473 9.19691C38.315 9.30164 38.2667 9.37817 38.2023 9.42651C38.1378 9.47484 38.0492 9.49901 37.9364 9.49901H37.731Z" fill="white"/>
<path d="M50.2676 9.61985C49.8809 9.61985 49.5224 9.53929 49.1921 9.37817C48.8699 9.21705 48.6081 9.00357 48.4067 8.73772C48.2053 8.46382 48.1046 8.15769 48.1046 7.81934C48.1046 7.27153 48.3261 6.83248 48.7692 6.50219C49.2123 6.17189 49.7883 5.95841 50.4972 5.86174L52.4065 5.59589V5.17295C52.4065 4.74599 52.2735 4.41167 52.0077 4.16999C51.7499 3.92025 51.335 3.79538 50.7631 3.79538C50.3441 3.79538 50.0058 3.87997 49.748 4.04915C49.4902 4.21027 49.313 4.42375 49.2163 4.6896C49.176 4.81044 49.0995 4.87086 48.9867 4.87086H48.7934C48.6967 4.87086 48.6282 4.84669 48.5879 4.79835C48.5477 4.74196 48.5275 4.67751 48.5275 4.60501C48.5275 4.49222 48.5678 4.35125 48.6484 4.18207C48.737 4.01289 48.8699 3.84775 49.0471 3.68663C49.2244 3.51745 49.454 3.37647 49.7359 3.26369C50.0179 3.15091 50.3603 3.09451 50.7631 3.09451C51.2383 3.09451 51.6291 3.15896 51.9352 3.28786C52.2494 3.41675 52.4911 3.58593 52.6602 3.79538C52.8375 3.99678 52.9623 4.22235 53.0348 4.47209C53.1073 4.72182 53.1436 4.96753 53.1436 5.20921V9.23316C53.1436 9.31372 53.1194 9.37817 53.0711 9.42651C53.0227 9.47484 52.9583 9.49901 52.8777 9.49901H52.6723C52.5918 9.49901 52.5273 9.47484 52.479 9.42651C52.4306 9.37817 52.4065 9.31372 52.4065 9.23316V8.66522C52.3098 8.81022 52.1728 8.95523 51.9956 9.10024C51.8184 9.24525 51.5888 9.37011 51.3068 9.47484C51.0329 9.57151 50.6865 9.61985 50.2676 9.61985ZM50.3885 8.91898C50.759 8.91898 51.0974 8.83842 51.4035 8.6773C51.7096 8.51618 51.9513 8.27047 52.1285 7.94018C52.3138 7.60183 52.4065 7.17889 52.4065 6.67136V6.26051L50.8476 6.47802C50.187 6.56664 49.6876 6.7197 49.3492 6.93721C49.0109 7.15472 48.8417 7.42863 48.8417 7.75892C48.8417 8.02477 48.9182 8.24228 49.0713 8.41145C49.2244 8.58063 49.4177 8.70952 49.6513 8.79814C49.893 8.8787 50.1387 8.91898 50.3885 8.91898Z" fill="white"/>
<path d="M58.4621 9.49901C58.3816 9.49901 58.3171 9.47484 58.2688 9.42651C58.2205 9.37817 58.1963 9.31372 58.1963 9.23316V3.49329C58.1963 3.41273 58.2205 3.34828 58.2688 3.29994C58.3171 3.24355 58.3816 3.21535 58.4621 3.21535H58.6555C58.736 3.21535 58.8005 3.24355 58.8488 3.29994C58.9052 3.34828 58.9334 3.41273 58.9334 3.49329V4.04915C59.0784 3.76719 59.2879 3.55773 59.5618 3.42078C59.8357 3.28383 60.174 3.21535 60.5768 3.21535H61.0239C61.1045 3.21535 61.1689 3.23952 61.2173 3.28786C61.2656 3.33619 61.2898 3.40064 61.2898 3.4812V3.65038C61.2898 3.73094 61.2656 3.79538 61.2173 3.84372C61.1689 3.89206 61.1045 3.91622 61.0239 3.91622H60.5043C60.021 3.91622 59.6383 4.0572 59.3563 4.33916C59.0744 4.62112 58.9334 5.00378 58.9334 5.48714V9.23316C58.9334 9.31372 58.9052 9.37817 58.8488 9.42651C58.8005 9.47484 58.736 9.49901 58.6555 9.49901H58.4621Z" fill="white"/>
<path d="M67.7298 9.61985C66.9483 9.61985 66.328 9.36609 65.8688 8.85856C65.4096 8.34298 65.1478 7.6703 65.0834 6.84054C65.0753 6.7197 65.0713 6.55858 65.0713 6.35718C65.0713 6.15578 65.0753 5.99466 65.0834 5.87382C65.1237 5.32602 65.2526 4.84266 65.4701 4.42375C65.6876 4.00484 65.9856 3.67857 66.3643 3.44495C66.751 3.21133 67.2061 3.09451 67.7298 3.09451C68.2937 3.09451 68.773 3.21938 69.1678 3.46912C69.5625 3.71885 69.8646 4.07734 70.0741 4.54459C70.2916 5.01183 70.4003 5.5677 70.4003 6.21217V6.39343C70.4003 6.47399 70.3721 6.53844 70.3157 6.58678C70.2674 6.63511 70.2029 6.65928 70.1224 6.65928H65.8205C65.8205 6.65928 65.8205 6.67539 65.8205 6.70762C65.8205 6.73984 65.8205 6.76401 65.8205 6.78012C65.8366 7.14264 65.9212 7.48905 66.0743 7.81934C66.2273 8.14158 66.4448 8.40743 66.7268 8.61688C67.0088 8.81828 67.3431 8.91898 67.7298 8.91898C68.0762 8.91898 68.3622 8.86662 68.5877 8.76189C68.8214 8.65716 69.0066 8.54438 69.1436 8.42354C69.2805 8.29464 69.3692 8.19797 69.4094 8.13352C69.4819 8.02879 69.5383 7.96838 69.5786 7.95226C69.6189 7.9281 69.6833 7.91601 69.7719 7.91601H69.9653C70.0378 7.91601 70.0982 7.94018 70.1466 7.98852C70.2029 8.0288 70.2271 8.08519 70.2191 8.15769C70.211 8.27047 70.1466 8.41145 70.0257 8.58063C69.9129 8.74175 69.7478 8.90287 69.5303 9.06399C69.3208 9.22511 69.063 9.35803 68.7569 9.46276C68.4508 9.56748 68.1084 9.61985 67.7298 9.61985ZM65.8205 5.98258H69.6632V5.93424C69.6632 5.53144 69.5867 5.16893 69.4336 4.84669C69.2805 4.52445 69.059 4.27069 68.769 4.0854C68.479 3.89206 68.1326 3.79538 67.7298 3.79538C67.327 3.79538 66.9806 3.89206 66.6906 4.0854C66.4086 4.27069 66.1911 4.52445 66.038 4.84669C65.893 5.16893 65.8205 5.53144 65.8205 5.93424V5.98258Z" fill="white"/>
<path d="M84.4142 9.61985C83.6811 9.61985 83.081 9.47887 82.6137 9.19691C82.1545 8.9069 81.8121 8.51618 81.5866 8.02477C81.361 7.53335 81.2361 6.97346 81.212 6.3451C81.2039 6.0148 81.1999 5.66034 81.1999 5.28171C81.1999 4.90308 81.2039 4.54056 81.212 4.19415C81.2361 3.56579 81.361 3.0059 81.5866 2.51449C81.8121 2.01501 82.1545 1.6243 82.6137 1.34234C83.081 1.06038 83.6811 0.919403 84.4142 0.919403C84.9862 0.919403 85.4736 0.999963 85.8764 1.16108C86.2792 1.3222 86.6054 1.53568 86.8552 1.80153C87.113 2.05932 87.3023 2.34128 87.4231 2.64741C87.552 2.94548 87.6245 3.23952 87.6406 3.52954C87.6487 3.60204 87.6245 3.66246 87.5681 3.7108C87.5198 3.75108 87.4594 3.77122 87.3869 3.77122H87.1452C87.0807 3.77122 87.0244 3.7551 86.976 3.72288C86.9277 3.6826 86.8955 3.61412 86.8793 3.51745C86.7263 2.80047 86.4363 2.30906 86.0093 2.04321C85.5904 1.77736 85.0587 1.64444 84.4142 1.64444C83.6811 1.64444 83.0971 1.8539 82.662 2.27281C82.2351 2.68366 82.0055 3.34425 81.9733 4.25457C81.9491 4.91516 81.9491 5.59186 81.9733 6.28468C82.0055 7.195 82.2351 7.85962 82.662 8.27853C83.0971 8.68938 83.6811 8.89481 84.4142 8.89481C85.0587 8.89481 85.5904 8.76189 86.0093 8.49604C86.4363 8.23019 86.7263 7.73878 86.8793 7.0218C86.8955 6.92513 86.9277 6.86068 86.976 6.82846C87.0244 6.78818 87.0807 6.76804 87.1452 6.76804H87.3869C87.4594 6.76804 87.5198 6.7922 87.5681 6.84054C87.6245 6.88082 87.6487 6.93721 87.6406 7.00972C87.6245 7.29973 87.552 7.5978 87.4231 7.90393C87.3023 8.202 87.113 8.48396 86.8552 8.7498C86.6054 9.0076 86.2792 9.21705 85.8764 9.37817C85.4736 9.53929 84.9862 9.61985 84.4142 9.61985Z" fill="white"/>
<path d="M94.7988 9.61985C94.2187 9.61985 93.7313 9.49901 93.3366 9.25733C92.9499 9.01565 92.6518 8.68536 92.4424 8.26645C92.241 7.84754 92.1322 7.38029 92.1161 6.86471C92.1081 6.74387 92.104 6.57469 92.104 6.35718C92.104 6.13967 92.1081 5.97049 92.1161 5.84966C92.1322 5.32602 92.241 4.85877 92.4424 4.44792C92.6518 4.02901 92.9499 3.69871 93.3366 3.45703C93.7313 3.21535 94.2187 3.09451 94.7988 3.09451C95.3788 3.09451 95.8622 3.21535 96.2488 3.45703C96.6436 3.69871 96.9417 4.02901 97.143 4.44792C97.3525 4.85877 97.4653 5.32602 97.4814 5.84966C97.4894 5.97049 97.4935 6.13967 97.4935 6.35718C97.4935 6.57469 97.4894 6.74387 97.4814 6.86471C97.4653 7.38029 97.3525 7.84754 97.143 8.26645C96.9417 8.68536 96.6436 9.01565 96.2488 9.25733C95.8622 9.49901 95.3788 9.61985 94.7988 9.61985ZM94.7988 8.91898C95.3627 8.91898 95.8219 8.73772 96.1763 8.3752C96.5308 8.01268 96.7201 7.48905 96.7443 6.80429C96.7523 6.68345 96.7564 6.53441 96.7564 6.35718C96.7564 6.17995 96.7523 6.03091 96.7443 5.91008C96.7201 5.21726 96.5308 4.69362 96.1763 4.33916C95.8219 3.97664 95.3627 3.79538 94.7988 3.79538C94.2348 3.79538 93.7757 3.97664 93.4212 4.33916C93.0667 4.69362 92.8774 5.21726 92.8532 5.91008C92.8452 6.03091 92.8412 6.17995 92.8412 6.35718C92.8412 6.53441 92.8452 6.68345 92.8532 6.80429C92.8774 7.48905 93.0667 8.01268 93.4212 8.3752C93.7757 8.73772 94.2348 8.91898 94.7988 8.91898Z" fill="white"/>
<path d="M102.552 9.49901C102.471 9.49901 102.407 9.47484 102.359 9.42651C102.31 9.37817 102.286 9.31372 102.286 9.23316V3.4812C102.286 3.40064 102.31 3.33619 102.359 3.28786C102.407 3.23952 102.471 3.21535 102.552 3.21535H102.757C102.838 3.21535 102.902 3.23952 102.951 3.28786C102.999 3.33619 103.023 3.40064 103.023 3.4812V3.90414C103.225 3.64635 103.462 3.44898 103.736 3.31203C104.018 3.16702 104.357 3.09451 104.751 3.09451C105.654 3.09451 106.298 3.47315 106.685 4.23041C106.87 3.884 107.14 3.6101 107.494 3.4087C107.857 3.19924 108.272 3.09451 108.739 3.09451C109.166 3.09451 109.549 3.19521 109.887 3.39661C110.233 3.58996 110.503 3.87997 110.697 4.26666C110.898 4.65334 110.999 5.1367 110.999 5.71673V9.23316C110.999 9.31372 110.975 9.37817 110.926 9.42651C110.878 9.47484 110.813 9.49901 110.733 9.49901H110.527C110.447 9.49901 110.382 9.47484 110.334 9.42651C110.286 9.37817 110.262 9.31372 110.262 9.23316V5.83757C110.262 5.30588 110.185 4.89502 110.032 4.60501C109.879 4.30694 109.678 4.09748 109.428 3.97664C109.178 3.8558 108.908 3.79538 108.618 3.79538C108.376 3.79538 108.131 3.8558 107.881 3.97664C107.631 4.09748 107.422 4.30694 107.253 4.60501C107.092 4.89502 107.011 5.30588 107.011 5.83757V9.23316C107.011 9.31372 106.987 9.37817 106.938 9.42651C106.89 9.47484 106.826 9.49901 106.745 9.49901H106.54C106.459 9.49901 106.395 9.47484 106.346 9.42651C106.298 9.37817 106.274 9.31372 106.274 9.23316V5.83757C106.274 5.30588 106.193 4.89502 106.032 4.60501C105.871 4.30694 105.666 4.09748 105.416 3.97664C105.166 3.8558 104.904 3.79538 104.63 3.79538C104.389 3.79538 104.143 3.8558 103.893 3.97664C103.644 4.09748 103.434 4.30694 103.265 4.60501C103.104 4.89502 103.023 5.30185 103.023 5.82549V9.23316C103.023 9.31372 102.999 9.37817 102.951 9.42651C102.902 9.47484 102.838 9.49901 102.757 9.49901H102.552Z" fill="white"/>
<path d="M116.315 11.795C116.234 11.795 116.17 11.7708 116.121 11.7225C116.073 11.6741 116.049 11.6097 116.049 11.5291V3.4812C116.049 3.40064 116.073 3.33619 116.121 3.28786C116.17 3.23952 116.234 3.21535 116.315 3.21535H116.52C116.601 3.21535 116.665 3.23952 116.714 3.28786C116.762 3.33619 116.786 3.40064 116.786 3.4812V4.04915C116.987 3.77524 117.249 3.54968 117.572 3.37245C117.902 3.18716 118.317 3.09451 118.816 3.09451C119.291 3.09451 119.69 3.1791 120.012 3.34828C120.335 3.5094 120.597 3.72691 120.798 4.00081C120.999 4.27471 121.148 4.58084 121.245 4.91919C121.342 5.25754 121.394 5.60395 121.402 5.95841C121.41 6.07925 121.414 6.21217 121.414 6.35718C121.414 6.50219 121.41 6.63511 121.402 6.75595C121.394 7.11041 121.342 7.45682 121.245 7.79517C121.148 8.13352 120.999 8.43965 120.798 8.71355C120.597 8.98746 120.335 9.20899 120.012 9.37817C119.69 9.53929 119.291 9.61985 118.816 9.61985C118.317 9.61985 117.902 9.52721 117.572 9.34192C117.249 9.15663 116.987 8.93106 116.786 8.66522V11.5291C116.786 11.6097 116.762 11.6741 116.714 11.7225C116.665 11.7708 116.601 11.795 116.52 11.795H116.315ZM118.744 8.91898C119.219 8.91898 119.594 8.81425 119.867 8.6048C120.141 8.39534 120.339 8.12144 120.46 7.78309C120.58 7.44474 120.649 7.08222 120.665 6.69553C120.673 6.46997 120.673 6.2444 120.665 6.01883C120.649 5.63214 120.58 5.26963 120.46 4.93128C120.339 4.59292 120.141 4.31902 119.867 4.10957C119.594 3.90011 119.219 3.79538 118.744 3.79538C118.284 3.79538 117.914 3.90414 117.632 4.12165C117.35 4.33916 117.141 4.61306 117.004 4.94336C116.875 5.2656 116.802 5.59186 116.786 5.92216C116.778 6.043 116.774 6.20009 116.774 6.39343C116.774 6.58678 116.778 6.74387 116.786 6.86471C116.794 7.18695 116.867 7.50516 117.004 7.81934C117.149 8.13352 117.362 8.39534 117.644 8.6048C117.934 8.81425 118.301 8.91898 118.744 8.91898Z" fill="white"/>
<path d="M127.892 9.61985C127.505 9.61985 127.147 9.53929 126.816 9.37817C126.494 9.21705 126.232 9.00357 126.031 8.73772C125.83 8.46382 125.729 8.15769 125.729 7.81934C125.729 7.27153 125.95 6.83248 126.393 6.50219C126.837 6.17189 127.413 5.95841 128.121 5.86174L130.031 5.59589V5.17295C130.031 4.74599 129.898 4.41167 129.632 4.16999C129.374 3.92025 128.959 3.79538 128.387 3.79538C127.968 3.79538 127.63 3.87997 127.372 4.04915C127.114 4.21027 126.937 4.42375 126.841 4.6896C126.8 4.81044 126.724 4.87086 126.611 4.87086H126.418C126.321 4.87086 126.253 4.84669 126.212 4.79835C126.172 4.74196 126.152 4.67751 126.152 4.60501C126.152 4.49222 126.192 4.35125 126.273 4.18207C126.361 4.01289 126.494 3.84775 126.671 3.68663C126.849 3.51745 127.078 3.37647 127.36 3.26369C127.642 3.15091 127.985 3.09451 128.387 3.09451C128.863 3.09451 129.253 3.15896 129.559 3.28786C129.874 3.41675 130.115 3.58593 130.285 3.79538C130.462 3.99678 130.587 4.22235 130.659 4.47209C130.732 4.72182 130.768 4.96753 130.768 5.20921V9.23316C130.768 9.31372 130.744 9.37817 130.695 9.42651C130.647 9.47484 130.583 9.49901 130.502 9.49901H130.297C130.216 9.49901 130.152 9.47484 130.103 9.42651C130.055 9.37817 130.031 9.31372 130.031 9.23316V8.66522C129.934 8.81022 129.797 8.95523 129.62 9.10024C129.443 9.24525 129.213 9.37011 128.931 9.47484C128.657 9.57151 128.311 9.61985 127.892 9.61985ZM128.013 8.91898C128.383 8.91898 128.722 8.83842 129.028 8.6773C129.334 8.51618 129.576 8.27047 129.753 7.94018C129.938 7.60183 130.031 7.17889 130.031 6.67136V6.26051L128.472 6.47802C127.811 6.56664 127.312 6.7197 126.974 6.93721C126.635 7.15472 126.466 7.42863 126.466 7.75892C126.466 8.02477 126.543 8.24228 126.696 8.41145C126.849 8.58063 127.042 8.70952 127.276 8.79814C127.517 8.8787 127.763 8.91898 128.013 8.91898Z" fill="white"/>
<path d="M136.086 9.49901C136.006 9.49901 135.941 9.47484 135.893 9.42651C135.845 9.37817 135.821 9.31372 135.821 9.23316V3.4812C135.821 3.40064 135.845 3.33619 135.893 3.28786C135.941 3.23952 136.006 3.21535 136.086 3.21535H136.292C136.372 3.21535 136.437 3.23952 136.485 3.28786C136.534 3.33619 136.558 3.40064 136.558 3.4812V4.04915C136.775 3.76719 137.037 3.53759 137.343 3.36036C137.657 3.18313 138.072 3.09451 138.588 3.09451C139.136 3.09451 139.591 3.21535 139.953 3.45703C140.324 3.69066 140.598 4.01289 140.775 4.42375C140.96 4.82655 141.053 5.28574 141.053 5.80132V9.23316C141.053 9.31372 141.029 9.37817 140.98 9.42651C140.932 9.47484 140.868 9.49901 140.787 9.49901H140.582C140.501 9.49901 140.437 9.47484 140.388 9.42651C140.34 9.37817 140.316 9.31372 140.316 9.23316V5.86174C140.316 5.21726 140.159 4.71376 139.845 4.35125C139.53 3.98067 139.071 3.79538 138.467 3.79538C137.895 3.79538 137.432 3.98067 137.077 4.35125C136.731 4.71376 136.558 5.21726 136.558 5.86174V9.23316C136.558 9.31372 136.534 9.37817 136.485 9.42651C136.437 9.47484 136.372 9.49901 136.292 9.49901H136.086Z" fill="white"/>
<path d="M146.976 11.795C146.912 11.795 146.856 11.7708 146.807 11.7225C146.759 11.6741 146.735 11.6177 146.735 11.5533C146.735 11.5211 146.739 11.4848 146.747 11.4445C146.763 11.4123 146.783 11.368 146.807 11.3116L147.738 9.13649L145.43 3.69871C145.381 3.57787 145.357 3.49731 145.357 3.45703C145.357 3.39259 145.381 3.33619 145.43 3.28786C145.478 3.23952 145.534 3.21535 145.599 3.21535H145.853C145.933 3.21535 145.994 3.23549 146.034 3.27577C146.082 3.308 146.114 3.34828 146.131 3.39661L148.161 8.18186L150.239 3.39661C150.263 3.34828 150.295 3.308 150.336 3.27577C150.376 3.23549 150.436 3.21535 150.517 3.21535H150.759C150.823 3.21535 150.88 3.23952 150.928 3.28786C150.976 3.33619 151 3.39259 151 3.45703C151 3.49731 150.976 3.57787 150.928 3.69871L147.496 11.6137C147.472 11.662 147.44 11.7023 147.399 11.7345C147.359 11.7748 147.299 11.795 147.218 11.795H146.976Z" fill="white"/>
</svg>
