<svg width="36" height="36" viewBox="0 0 36 36" fill="none" xmlns="http://www.w3.org/2000/svg">
<path d="M34.3125 5.0625H9.5625C9.41332 5.0625 9.27024 5.12177 9.16475 5.22725C9.05927 5.33274 9 5.47582 9 5.625V21.9375C9 22.0867 9.05927 22.2298 9.16475 22.3352C9.27024 22.4407 9.41332 22.5 9.5625 22.5H24.75V27.5625H22.5V28.6875H31.5V29.8125H22.5V30.9375H32.0625C32.2117 30.9375 32.3548 30.8782 32.4602 30.7727C32.5657 30.6673 32.625 30.5242 32.625 30.375V22.5H34.3125C34.4617 22.5 34.6048 22.4407 34.7102 22.3352C34.8157 22.2298 34.875 22.0867 34.875 21.9375V5.625C34.875 5.47582 34.8157 5.33274 34.7102 5.22725C34.6048 5.12177 34.4617 5.0625 34.3125 5.0625ZM33.75 6.1875V8.4375H10.125V6.1875H33.75ZM25.875 22.5H27V23.625C27 23.7742 27.0593 23.9173 27.1648 24.0227C27.2702 24.1282 27.4133 24.1875 27.5625 24.1875C27.7117 24.1875 27.8548 24.1282 27.9602 24.0227C28.0657 23.9173 28.125 23.7742 28.125 23.625V22.5H29.25V27.5625H25.875V22.5ZM31.5 27.5625H30.375V22.5H31.5V27.5625ZM10.125 21.375V9.5625H33.75V21.375H10.125Z" fill="white"/>
<path d="M3.9375 30.9375H18.5625C19.3082 30.9367 20.023 30.6401 20.5503 30.1128C21.0776 29.5855 21.3742 28.8707 21.375 28.125C21.375 27.9758 21.3157 27.8327 21.2102 27.7273C21.1048 27.6218 20.9617 27.5625 20.8125 27.5625H18.5625V23.625H17.4375V27.5625H5.0625V18H7.875V16.875H4.5C4.35082 16.875 4.20774 16.9343 4.10225 17.0398C3.99677 17.1452 3.9375 17.2883 3.9375 17.4375V27.5625H1.6875C1.53832 27.5625 1.39524 27.6218 1.28975 27.7273C1.18427 27.8327 1.125 27.9758 1.125 28.125C1.12585 28.8707 1.42244 29.5855 1.9497 30.1128C2.47696 30.6401 3.19184 30.9367 3.9375 30.9375ZM9.32948 28.6875L9.72722 29.0852C9.83272 29.1907 9.97581 29.25 10.125 29.25H12.375C12.5242 29.25 12.6673 29.1907 12.7728 29.0852L13.1705 28.6875H20.1536C20.0369 29.0163 19.8213 29.3009 19.5365 29.5023C19.2516 29.7038 18.9114 29.8121 18.5625 29.8125H3.9375C3.58862 29.8121 3.24841 29.7038 2.96354 29.5023C2.67867 29.3009 2.4631 29.0163 2.3464 28.6875H9.32948Z" fill="white"/>
<path d="M11.25 7.875C11.5607 7.875 11.8125 7.62316 11.8125 7.3125C11.8125 7.00184 11.5607 6.75 11.25 6.75C10.9393 6.75 10.6875 7.00184 10.6875 7.3125C10.6875 7.62316 10.9393 7.875 11.25 7.875Z" fill="white"/>
<path d="M12.9375 7.875C13.2482 7.875 13.5 7.62316 13.5 7.3125C13.5 7.00184 13.2482 6.75 12.9375 6.75C12.6268 6.75 12.375 7.00184 12.375 7.3125C12.375 7.62316 12.6268 7.875 12.9375 7.875Z" fill="white"/>
<path d="M14.625 7.875C14.9357 7.875 15.1875 7.62316 15.1875 7.3125C15.1875 7.00184 14.9357 6.75 14.625 6.75C14.3143 6.75 14.0625 7.00184 14.0625 7.3125C14.0625 7.62316 14.3143 7.875 14.625 7.875Z" fill="white"/>
<path d="M11.25 10.6875H12.9375V11.8125H11.25V10.6875Z" fill="white"/>
<path d="M14.625 10.6875H18.5625V11.8125H14.625V10.6875Z" fill="white"/>
<path d="M19.6875 10.6875H21.375V11.8125H19.6875V10.6875Z" fill="white"/>
<path d="M11.25 13.5H12.9375V14.625H11.25V13.5Z" fill="white"/>
<path d="M14.625 13.5H16.875V14.625H14.625V13.5Z" fill="white"/>
<path d="M18 13.5H21.375V14.625H18V13.5Z" fill="white"/>
<path d="M11.25 16.3125H12.9375V17.4375H11.25V16.3125Z" fill="white"/>
<path d="M14.625 16.3125H21.375V17.4375H14.625V16.3125Z" fill="white"/>
<path d="M11.25 19.125H12.9375V20.25H11.25V19.125Z" fill="white"/>
<path d="M14.625 19.125H16.875V20.25H14.625V19.125Z" fill="white"/>
<path d="M18 19.125H21.375V20.25H18V19.125Z" fill="white"/>
<path d="M24.9147 13.1023L23.2272 14.7898C23.1218 14.8953 23.0625 15.0384 23.0625 15.1875C23.0625 15.3367 23.1218 15.4798 23.2272 15.5853L24.9147 17.2728L25.7103 16.4773L24.4205 15.1875L25.7103 13.8978L24.9147 13.1023Z" fill="white"/>
<path d="M30.2101 13.1023L29.4146 13.8978L30.7043 15.1875L29.4146 16.4773L30.2101 17.2728L31.8976 15.5853C32.0031 15.4798 32.0623 15.3367 32.0623 15.1875C32.0623 15.0384 32.0031 14.8953 31.8976 14.7898L30.2101 13.1023Z" fill="white"/>
<path d="M25.9033 18.3741L28.1517 11.6219L29.2194 11.9774L26.971 18.7297L25.9033 18.3741Z" fill="white"/>
</svg>
