<svg width="36" height="36" viewBox="0 0 36 36" fill="none" xmlns="http://www.w3.org/2000/svg">
<g clip-path="url(#clip0_135_2607)">
<path d="M10.295 7.197C13.8339 5.60062 16.4494 3.53998 17.8588 1.23794C17.8803 1.20286 17.9111 1.18507 17.9504 1.18507C17.9897 1.18507 18.0205 1.20286 18.042 1.23794C19.0834 2.93887 20.7551 4.48912 23.0108 5.84566C25.2175 7.17281 27.8717 8.24881 30.8994 9.04369C30.9718 9.06274 31.0237 9.12441 31.0287 9.19725C31.0689 9.78795 31.0892 10.4093 31.0892 11.0442C31.0892 13.3985 30.4704 16.0395 29.2501 18.894C29.136 19.161 29.2599 19.4699 29.5269 19.5842C29.7159 19.659 30.0559 19.6305 30.2171 19.3073C31.4935 16.3215 32.1408 13.5414 32.1408 11.0442C32.1408 10.3857 32.1196 9.74028 32.0778 9.12602C32.0423 8.6022 31.6761 8.16035 31.1665 8.02669C25.3091 6.48874 20.8523 3.81426 18.9388 0.688873C18.7258 0.341107 18.3564 0.133545 17.9503 0.133545C17.5442 0.133545 17.1748 0.341107 16.9618 0.688873C15.6631 2.8102 13.2082 4.72917 9.86246 6.23843C9.59781 6.35782 9.47996 6.66923 9.59935 6.93396C9.71881 7.19848 10.0303 7.31618 10.295 7.197Z" fill="white"/>
<path d="M23.3124 21.5587V17.3146C23.3124 16.3622 22.578 15.5785 21.6457 15.499V14.6932C21.6457 12.6555 19.9879 10.9977 17.9501 10.9977C15.9123 10.9977 14.2546 12.6554 14.2546 14.6932V15.4991C13.3223 15.5785 12.5879 16.3622 12.5879 17.3147V21.5588C12.5879 22.5638 13.4056 23.3815 14.4106 23.3815H21.4897C22.4948 23.3814 23.3124 22.5638 23.3124 21.5587ZM17.9502 12.0493C19.4081 12.0493 20.5942 13.2354 20.5942 14.6932V15.492H15.3062V14.6932C15.3062 13.2353 16.4923 12.0493 17.9502 12.0493ZM13.6395 21.5587V17.3146C13.6395 16.8894 13.9854 16.5435 14.4106 16.5435H21.4897C21.9148 16.5435 22.2608 16.8894 22.2608 17.3146V21.5587C22.2608 21.9839 21.9148 22.3298 21.4897 22.3298H14.4106C13.9854 22.3299 13.6395 21.9839 13.6395 21.5587Z" fill="white"/>
<path d="M17.9103 18.1071C17.378 18.1408 16.9431 18.5697 16.9026 19.1016C16.8666 19.5766 17.1378 19.9927 17.538 20.1726V20.85C17.538 20.9771 17.641 21.08 17.768 21.08H18.1934C18.3204 21.08 18.4233 20.9771 18.4233 20.85V20.1726C18.7997 20.0034 19.062 19.6255 19.062 19.1861C19.062 18.5657 18.5394 18.0673 17.9103 18.1071Z" fill="white"/>
<path d="M34.4676 25.6507C33.8612 25.6507 33.3361 26.0048 33.0878 26.5171H26.1983C26.5035 26.0659 26.8059 25.6047 27.1033 25.1347H30.6899C30.9426 25.1347 31.1802 25.0363 31.3591 24.8575L32.4304 23.7861H33.0595C33.2942 24.3317 33.837 24.7147 34.4676 24.7147C35.3126 24.7147 36 24.0273 36 23.1824C36 22.3375 35.3126 21.65 34.4676 21.65C33.7785 21.65 33.1942 22.1074 33.0022 22.7345H32.3869C32.1341 22.7345 31.8965 22.833 31.7177 23.0116L30.6463 24.0831H27.751C28.2324 23.2795 28.6954 22.4543 29.1286 21.613C29.2616 21.3548 29.1601 21.0377 28.9019 20.9048C28.6437 20.7719 28.3267 20.8734 28.1937 21.1315C24.8983 27.5307 19.6937 33.149 18.177 34.7186C18.117 34.7808 18.0364 34.815 17.9502 34.815C17.864 34.815 17.7834 34.7808 17.7234 34.7186C16.4536 33.4045 13.1847 29.8718 10.262 25.4586C6.64523 19.9973 4.81134 15.1476 4.81134 11.0442C4.81134 10.4092 4.83166 9.78788 4.87181 9.19698C4.87673 9.12427 4.9287 9.06268 5.00112 9.04363C5.98057 8.78649 6.93752 8.49406 7.84533 8.1747C8.11927 8.07831 8.26313 7.77814 8.1668 7.5042C8.07033 7.23027 7.77009 7.08648 7.4963 7.18273C6.61535 7.49274 5.68596 7.77666 4.73407 8.02655C4.2243 8.16036 3.85805 8.6022 3.82268 9.12582C3.78091 9.74021 3.75975 10.3856 3.75975 11.0441C3.75975 14.8524 5.23596 19.231 8.1502 24.0831H5.25431L4.18289 23.0116C4.00416 22.833 3.7665 22.7345 3.51366 22.7345H2.9977C2.80568 22.1074 2.22145 21.65 1.53232 21.65C0.687445 21.65 0 22.3374 0 23.1823C0 24.0272 0.687445 24.7147 1.53239 24.7147C2.16295 24.7147 2.7057 24.3316 2.94054 23.7861H3.4702L4.54155 24.8575C4.72036 25.0362 4.95802 25.1346 5.21079 25.1346H8.79989C8.99016 25.4345 9.18464 25.7359 9.38552 26.0392C9.49184 26.1998 9.59878 26.3589 9.70587 26.5171H2.9122C2.66393 26.0048 2.13877 25.6507 1.53239 25.6507C0.687445 25.6507 0 26.3381 0 27.1831C0 28.0279 0.687445 28.7154 1.53239 28.7154C2.24416 28.7154 2.84407 28.2275 3.01549 27.5687H10.435C10.7782 28.0525 11.1221 28.5225 11.4636 28.9772H7.31602C7.101 28.3904 6.53695 27.9706 5.87665 27.9706C5.0317 27.9706 4.34426 28.658 4.34426 29.503C4.34426 30.3479 5.0317 31.0353 5.87665 31.0353C6.53695 31.0353 7.101 30.6155 7.31602 30.0287H12.2697C12.6257 30.4837 12.9757 30.9198 13.3154 31.3336H11.0415C10.7888 31.3336 10.5512 31.432 10.3722 31.6108L9.30087 32.6822H8.67874C8.46373 32.0954 7.89968 31.6756 7.2393 31.6756C6.39436 31.6756 5.70691 32.3631 5.70691 33.208C5.70691 34.0529 6.39436 34.7403 7.2393 34.7403C7.89961 34.7403 8.46373 34.3205 8.67874 33.7338H9.34439C9.59702 33.7338 9.83461 33.6354 10.0137 33.4566L11.085 32.3852H14.1955C15.3872 33.7826 16.3847 34.8464 16.9672 35.4494C17.2273 35.7184 17.5764 35.8666 17.9503 35.8666C18.3241 35.8666 18.6732 35.7184 18.9333 35.4494C19.5888 34.771 20.5715 33.7187 21.7114 32.3838C21.7209 32.3843 21.7302 32.3852 21.7399 32.3852H24.8156L25.8871 33.4568C26.0659 33.6354 26.3036 33.7338 26.5562 33.7338H27.2218C27.4369 34.3205 28.001 34.7403 28.6613 34.7403C29.5062 34.7403 30.1937 34.0529 30.1937 33.208C30.1937 32.3631 29.5062 31.6756 28.6613 31.6756C28.001 31.6756 27.4369 32.0954 27.2218 32.6822H26.5997L25.5281 31.6106C25.3494 31.432 25.1118 31.3336 24.8591 31.3336H22.5908C22.9317 30.9187 23.2816 30.483 23.637 30.0287H28.6046C28.8196 30.6155 29.3837 31.0353 30.044 31.0353C30.8889 31.0353 31.5764 30.3479 31.5764 29.503C31.5764 28.658 30.8889 27.9706 30.044 27.9706C29.3837 27.9706 28.8196 28.3904 28.6046 28.9772H24.443C24.7843 28.5224 25.1278 28.0522 25.4704 27.5687H32.9845C33.1559 28.2275 33.7558 28.7154 34.4676 28.7154C35.3126 28.7154 36 28.0279 36 27.1831C36 26.3381 35.3126 25.6507 34.4676 25.6507ZM34.4676 22.7016C34.7327 22.7016 34.9484 22.9172 34.9484 23.1823C34.9484 23.4474 34.7327 23.6631 34.4676 23.6631C34.2025 23.6631 33.9869 23.4474 33.9869 23.1823C33.9869 22.9172 34.2025 22.7016 34.4676 22.7016ZM1.53239 23.6631C1.26724 23.6631 1.05159 23.4474 1.05159 23.1823C1.05159 22.9172 1.26724 22.7016 1.53239 22.7016C1.79747 22.7016 2.01312 22.9172 2.01312 23.1823C2.01312 23.4474 1.79747 23.6631 1.53239 23.6631ZM1.53239 27.6638C1.26724 27.6638 1.05159 27.4481 1.05159 27.1831C1.05159 26.9179 1.26724 26.7023 1.53239 26.7023C1.79747 26.7023 2.01312 26.9179 2.01312 27.1831C2.01312 27.4481 1.79747 27.6638 1.53239 27.6638ZM5.87665 29.9838C5.6115 29.9838 5.39585 29.7681 5.39585 29.503C5.39585 29.2378 5.6115 29.0222 5.87665 29.0222C6.14173 29.0222 6.35738 29.2378 6.35738 29.503C6.35738 29.7681 6.14173 29.9838 5.87665 29.9838ZM7.23945 33.6887C6.9743 33.6887 6.75865 33.4731 6.75865 33.208C6.75865 32.9429 6.9743 32.7272 7.23945 32.7272C7.50459 32.7272 7.72024 32.9429 7.72024 33.208C7.72024 33.4731 7.50459 33.6887 7.23945 33.6887ZM28.6612 32.7272C28.9264 32.7272 29.142 32.9429 29.142 33.208C29.142 33.4731 28.9264 33.6887 28.6612 33.6887C28.3961 33.6887 28.1804 33.4731 28.1804 33.208C28.1804 32.9429 28.3961 32.7272 28.6612 32.7272ZM30.044 29.0222C30.3092 29.0222 30.5248 29.2378 30.5248 29.503C30.5248 29.7681 30.3092 29.9838 30.044 29.9838C29.779 29.9838 29.5633 29.7681 29.5633 29.503C29.5633 29.2378 29.779 29.0222 30.044 29.0222ZM34.4676 27.6638C34.2025 27.6638 33.9869 27.4481 33.9869 27.1831C33.9869 26.9179 34.2025 26.7023 34.4676 26.7023C34.7327 26.7023 34.9484 26.9179 34.9484 27.1831C34.9484 27.4481 34.7327 27.6638 34.4676 27.6638Z" fill="white"/>
<path d="M18.8453 31.2461C19.0582 30.7324 18.8144 30.1434 18.3008 29.9305C17.7871 29.7176 17.1981 29.9614 16.9851 30.4751C16.7722 30.9887 17.016 31.5778 17.5297 31.7907C18.0434 32.0036 18.6324 31.7598 18.8453 31.2461Z" fill="white"/>
<path d="M18.0646 6.2748C18.6133 6.18585 18.986 5.66896 18.8971 5.1203C18.8081 4.57164 18.2912 4.19897 17.7425 4.28792C17.1938 4.37687 16.8211 4.89375 16.9101 5.44241C16.999 5.99108 17.5159 6.36375 18.0646 6.2748Z" fill="white"/>
<path d="M7.45672 10.25C6.90083 10.25 6.4502 10.7006 6.4502 11.2566C6.4502 11.8125 6.90083 12.2631 7.45672 12.2631C8.01261 12.2631 8.46331 11.8125 8.46331 11.2566C8.46324 10.7007 8.01261 10.25 7.45672 10.25Z" fill="white"/>
<path d="M28.4436 10.25C27.8877 10.25 27.437 10.7006 27.437 11.2566C27.437 11.8125 27.8876 12.2631 28.4436 12.2631C28.9995 12.2631 29.4501 11.8125 29.4501 11.2566C29.4501 10.7007 28.9995 10.25 28.4436 10.25Z" fill="white"/>
</g>
<defs>
<clipPath id="clip0_135_2607">
<rect width="36" height="36" fill="white"/>
</clipPath>
</defs>
</svg>
