<svg width="36" height="36" viewBox="0 0 36 36" fill="none" xmlns="http://www.w3.org/2000/svg">
<g clip-path="url(#clip0_138_2646)">
<path d="M18.0001 15C19.0681 15 20.1121 14.6832 21.0002 14.0899C21.8882 13.4965 22.5803 12.6532 22.989 11.6664C23.3977 10.6797 23.5047 9.59396 23.2963 8.54647C23.088 7.49897 22.5737 6.53678 21.8185 5.78158C21.0633 5.02637 20.1011 4.51207 19.0536 4.30371C18.0061 4.09535 16.9203 4.20229 15.9336 4.611C14.9469 5.01972 14.1035 5.71185 13.5102 6.59987C12.9168 7.4879 12.6001 8.53193 12.6001 9.59995C12.6017 11.0316 13.1711 12.4042 14.1835 13.4166C15.1958 14.4289 16.5684 14.9984 18.0001 15ZM18.0001 5.39995C18.8308 5.39995 19.6428 5.64628 20.3335 6.10778C21.0242 6.56928 21.5625 7.22523 21.8804 7.99268C22.1983 8.76013 22.2814 9.60461 22.1194 10.4193C21.9573 11.2341 21.5573 11.9824 20.9699 12.5698C20.3826 13.1572 19.6342 13.5572 18.8195 13.7193C18.0048 13.8813 17.1603 13.7981 16.3928 13.4802C15.6254 13.1624 14.9694 12.624 14.5079 11.9333C14.0464 11.2427 13.8001 10.4306 13.8001 9.59995C13.8014 8.48643 14.2443 7.41889 15.0316 6.63151C15.819 5.84413 16.8866 5.40122 18.0001 5.39995Z" fill="white"/>
<path d="M18 12.6C18.5933 12.6 19.1734 12.424 19.6667 12.0944C20.1601 11.7647 20.5446 11.2962 20.7716 10.748C20.9987 10.1999 21.0581 9.59665 20.9423 9.01471C20.8266 8.43277 20.5409 7.89822 20.1213 7.47866C19.7018 7.0591 19.1672 6.77338 18.5853 6.65762C18.0033 6.54187 17.4001 6.60128 16.8519 6.82834C16.3038 7.0554 15.8352 7.43992 15.5056 7.93327C15.1759 8.42662 15 9.00664 15 9.59998C15.001 10.3953 15.3173 11.1578 15.8797 11.7203C16.4421 12.2827 17.2046 12.599 18 12.6ZM18 7.79998C18.356 7.79998 18.704 7.90555 19 8.10333C19.296 8.30112 19.5267 8.58224 19.663 8.91115C19.7992 9.24006 19.8349 9.60198 19.7654 9.95114C19.696 10.3003 19.5245 10.621 19.2728 10.8728C19.0211 11.1245 18.7003 11.2959 18.3512 11.3654C18.002 11.4348 17.6401 11.3992 17.3112 11.263C16.9823 11.1267 16.7011 10.896 16.5034 10.6C16.3056 10.304 16.2 9.95599 16.2 9.59998C16.2 9.12259 16.3896 8.66475 16.7272 8.32719C17.0648 7.98962 17.5226 7.79998 18 7.79998Z" fill="white"/>
<path d="M36.0001 22.8C35.9994 22.5506 35.9206 22.3076 35.775 22.1051C35.6293 21.9026 35.4239 21.7508 35.1877 21.6708L29.1175 19.5L35.1883 17.3286C35.4248 17.2493 35.6304 17.0976 35.7761 16.8951C35.9217 16.6926 36.0001 16.4495 36.0001 16.2C36.0001 15.9505 35.9217 15.7074 35.7761 15.5049C35.6304 15.3024 35.4248 15.1507 35.1883 15.0714L25.7683 11.6994C25.7845 11.6394 25.8049 11.5794 25.8193 11.5194L26.9275 11.1804C27.1005 11.1286 27.254 11.0261 27.3682 10.8863C27.4824 10.7464 27.5521 10.5755 27.5683 10.3956C27.5923 10.1334 27.6037 9.8676 27.6037 9.6C27.6037 9.3324 27.5923 9.0666 27.5683 8.8044C27.552 8.6244 27.4823 8.45339 27.3679 8.3134C27.2536 8.17342 27.1 8.07088 26.9269 8.019L25.8157 7.68C25.6222 6.88706 25.3075 6.12873 24.8827 5.4318L25.4269 4.4118C25.5131 4.25264 25.5497 4.07126 25.5317 3.89111C25.5137 3.71097 25.4421 3.54037 25.3261 3.4014C25.1573 3.1994 24.9773 3.0038 24.7861 2.8146C24.5949 2.6254 24.3991 2.4454 24.1987 2.2746C24.0598 2.1591 23.8895 2.08779 23.7098 2.06983C23.5301 2.05187 23.3491 2.08807 23.1901 2.1738L22.1653 2.7186C21.4692 2.29375 20.712 1.97847 19.9201 1.7838L19.5817 0.675599C19.5291 0.502784 19.4263 0.349535 19.2863 0.235403C19.1463 0.121272 18.9755 0.0514338 18.7957 0.0347991C18.2663 -0.0129018 17.7338 -0.0129018 17.2045 0.0347991C17.0245 0.0512786 16.8536 0.121142 16.7137 0.235425C16.5738 0.349708 16.4712 0.503197 16.4191 0.676199L16.0801 1.7838C15.2874 1.97786 14.5293 2.29274 13.8325 2.7174L12.8089 2.1732C12.6495 2.08727 12.468 2.05101 12.2878 2.06908C12.1077 2.08715 11.937 2.15873 11.7979 2.2746C11.5963 2.4426 11.4007 2.6226 11.2117 2.8146C11.0227 3.0066 10.8421 3.1992 10.6717 3.4008C10.5556 3.53959 10.4838 3.71002 10.4656 3.89004C10.4474 4.07006 10.4837 4.2514 10.5697 4.4106L11.1145 5.4348C10.6914 6.13119 10.3777 6.88841 10.1845 7.68L9.07625 8.019C8.90325 8.0708 8.74973 8.17325 8.63551 8.31314C8.52129 8.45302 8.45161 8.62393 8.43545 8.8038C8.41145 9.066 8.40005 9.3318 8.40005 9.5994C8.40005 9.867 8.41145 10.1328 8.43545 10.3938C8.45154 10.574 8.52125 10.7452 8.63557 10.8854C8.74989 11.0256 8.90359 11.1284 9.07685 11.1804L10.1845 11.5188C10.1989 11.5788 10.2193 11.6388 10.2355 11.6988L0.811846 15.0714C0.575336 15.1507 0.369726 15.3024 0.224055 15.5049C0.0783837 15.7074 1.37839e-05 15.9505 1.37839e-05 16.2C1.37839e-05 16.4495 0.0783837 16.6926 0.224055 16.8951C0.369726 17.0976 0.575336 17.2493 0.811846 17.3286L6.88265 19.5L0.811846 21.6708C0.575195 21.7502 0.369457 21.9019 0.223694 22.1045C0.0779316 22.3071 -0.000488281 22.5504 -0.000488281 22.8C-0.000488281 23.0496 0.0779316 23.2929 0.223694 23.4955C0.369457 23.6981 0.575195 23.8498 0.811846 23.9292L6.04325 25.8L0.811846 27.6714C0.575195 27.7508 0.369457 27.9025 0.223694 28.1051C0.0779316 28.3077 -0.000488281 28.551 -0.000488281 28.8006C-0.000488281 29.0502 0.0779316 29.2935 0.223694 29.4961C0.369457 29.6987 0.575195 29.8504 0.811846 29.9298L17.5687 35.9244C17.8468 36.0252 18.1515 36.0252 18.4297 35.9244L35.1877 29.9298C35.4243 29.8504 35.6301 29.6987 35.7758 29.4961C35.9216 29.2935 36 29.0502 36 28.8006C36 28.551 35.9216 28.3077 35.7758 28.1051C35.6301 27.9025 35.4243 27.7508 35.1877 27.6714L29.9575 25.8L35.1883 23.9292C35.4244 23.8491 35.6297 23.6972 35.7752 23.4947C35.9208 23.2923 35.9994 23.0494 36.0001 22.8ZM9.61505 10.0902C9.60485 9.9282 9.60005 9.7644 9.60005 9.6C9.60005 9.4356 9.60485 9.2724 9.61505 9.1098L10.8691 8.7264C10.973 8.6948 11.0664 8.63559 11.1393 8.55507C11.2122 8.47455 11.2619 8.37574 11.2831 8.2692C11.4574 7.38408 11.8066 6.54264 12.3103 5.7942C12.3708 5.70394 12.4056 5.59894 12.4111 5.49042C12.4166 5.38189 12.3925 5.27391 12.3415 5.178L11.7241 4.02C11.8321 3.9 11.9437 3.78 12.0607 3.663C12.1777 3.546 12.2959 3.4338 12.4207 3.3264L13.5817 3.9438C13.6776 3.9948 13.7856 4.01878 13.8942 4.01318C14.0027 4.00758 14.1077 3.97261 14.1979 3.912C14.9448 3.40742 15.7847 3.0566 16.6687 2.88C16.7751 2.85894 16.8738 2.80944 16.9543 2.73675C17.0348 2.66406 17.0941 2.57091 17.1259 2.4672L17.5099 1.2126C17.8363 1.1922 18.1638 1.1922 18.4903 1.2126L18.8743 2.4672C18.906 2.57091 18.9653 2.66406 19.0458 2.73675C19.1264 2.80944 19.2251 2.85894 19.3315 2.88C20.2162 3.05434 21.0572 3.40357 21.8053 3.9072C21.8955 3.96781 22.0004 4.00278 22.109 4.00838C22.2175 4.01398 22.3255 3.99 22.4215 3.939L23.5801 3.324C23.7001 3.4314 23.8201 3.5442 23.9371 3.6606C24.0541 3.777 24.1657 3.8958 24.2737 4.0176L23.6587 5.178C23.6075 5.27398 23.5833 5.38208 23.5888 5.49072C23.5943 5.59937 23.6292 5.70447 23.6899 5.7948C24.1948 6.54268 24.545 7.38397 24.7201 8.2692C24.7412 8.37574 24.7909 8.47455 24.8638 8.55507C24.9367 8.63559 25.0301 8.6948 25.1341 8.7264L26.3881 9.1098C26.3983 9.2718 26.4031 9.4356 26.4031 9.6C26.4031 9.7644 26.3983 9.9276 26.3881 10.0902L25.1341 10.4736C25.0301 10.5052 24.9367 10.5644 24.8638 10.6449C24.7909 10.7254 24.7412 10.8243 24.7201 10.9308C24.5457 11.8159 24.1965 12.6574 23.6929 13.4058C23.6324 13.4961 23.5975 13.6011 23.592 13.7096C23.5865 13.8181 23.6106 13.9261 23.6617 14.022L24.2761 15.18C24.1681 15.3 24.0565 15.42 23.9395 15.54C23.8225 15.66 23.7043 15.7692 23.5825 15.8766L22.4215 15.2592C22.3255 15.2082 22.2175 15.1842 22.109 15.1898C22.0004 15.1954 21.8955 15.2304 21.8053 15.291C21.0574 15.7953 20.2163 16.1451 19.3315 16.32C19.2251 16.3411 19.1264 16.3906 19.0458 16.4632C18.9653 16.5359 18.906 16.6291 18.8743 16.7328L18.4903 17.9874C18.1638 18.0078 17.8363 18.0078 17.5099 17.9874L17.1259 16.7328C17.0941 16.6291 17.0348 16.5359 16.9543 16.4632C16.8738 16.3906 16.7751 16.3411 16.6687 16.32C15.7836 16.1456 14.9424 15.7962 14.1943 15.2922C14.104 15.2317 13.999 15.1968 13.8905 15.1913C13.7819 15.1858 13.674 15.2099 13.5781 15.261L12.4201 15.8754C12.3001 15.7686 12.1801 15.6558 12.0601 15.5394C11.9401 15.423 11.8315 15.3042 11.7235 15.1794L12.3409 14.019C12.3921 13.923 12.4162 13.8149 12.4107 13.7063C12.4052 13.5976 12.3703 13.4925 12.3097 13.4022C11.8058 12.6541 11.4566 11.8128 11.2825 10.9278C11.2613 10.8213 11.2116 10.7224 11.1387 10.6419C11.0658 10.5614 10.9724 10.5022 10.8685 10.4706L9.61505 10.0902ZM10.6351 12.831C10.7756 13.1534 10.9371 13.4663 11.1187 13.7676L10.5745 14.7876C10.4882 14.9468 10.4517 15.1281 10.4696 15.3083C10.4876 15.4884 10.5592 15.659 10.6753 15.798C10.8441 16 11.0241 16.1956 11.2153 16.3848C11.4065 16.574 11.6023 16.754 11.8027 16.9248C11.9416 17.0401 12.1119 17.1112 12.2916 17.1292C12.4712 17.1472 12.6522 17.1111 12.8113 17.0256L13.8355 16.4808C14.5314 16.9056 15.2884 17.2211 16.0801 17.4162L16.4185 18.5244C16.4708 18.6972 16.5734 18.8504 16.7134 18.9645C16.8533 19.0785 17.0241 19.1482 17.2039 19.1646C17.4661 19.1886 17.7319 19.2 17.9995 19.2C18.2671 19.2 18.5329 19.1886 18.7951 19.1646C18.975 19.1482 19.1459 19.0784 19.2859 18.9641C19.4259 18.8498 19.5284 18.6962 19.5805 18.5232L19.9189 17.4162C20.7115 17.2221 21.4696 16.9073 22.1665 16.4826L23.1901 17.0268C23.3494 17.1129 23.5309 17.1492 23.7111 17.1312C23.8913 17.1131 24.062 17.0414 24.2011 16.9254C24.4027 16.7574 24.5983 16.5774 24.7873 16.3854C24.9763 16.1934 25.1569 16.0008 25.3273 15.7992C25.4434 15.6604 25.5151 15.49 25.5333 15.31C25.5515 15.1299 25.5153 14.9486 25.4293 14.7894L24.8845 13.7652C25.0658 13.4639 25.2271 13.151 25.3675 12.8286L34.7839 16.2L17.9743 22.1928L1.21625 16.2L10.6351 12.831ZM34.7839 28.8L17.9743 34.7946L1.21625 28.8L7.82405 26.436L17.5693 29.9214C17.8474 30.0222 18.1521 30.0222 18.4303 29.9214L28.1761 26.4372L34.7839 28.8ZM17.9743 28.7928L1.21625 22.8L8.66405 20.1372L17.5693 23.3226C17.8474 23.4234 18.1521 23.4234 18.4303 23.3226L27.3361 20.1372L34.7839 22.8L17.9743 28.7928Z" fill="white"/>
<path d="M16.4101 25.8354L9.70032 23.4354C9.55197 23.3874 9.39075 23.399 9.25082 23.4678C9.11089 23.5366 9.00323 23.6572 8.95066 23.804C8.89809 23.9508 8.90473 24.1122 8.96917 24.2542C9.03362 24.3962 9.15081 24.5075 9.29592 24.5646L16.0057 26.9646C16.0705 26.9881 16.139 27 16.2079 27C16.3491 26.9998 16.4857 26.9498 16.5937 26.8589C16.7016 26.7679 16.7741 26.6418 16.7982 26.5026C16.8224 26.3635 16.7967 26.2204 16.7257 26.0983C16.6547 25.9763 16.543 25.8832 16.4101 25.8354Z" fill="white"/>
<path d="M16.4101 31.8354L9.70032 29.4354C9.55197 29.3874 9.39075 29.399 9.25082 29.4678C9.11089 29.5366 9.00323 29.6572 8.95066 29.804C8.89809 29.9508 8.90473 30.1122 8.96917 30.2542C9.03362 30.3962 9.15081 30.5075 9.29592 30.5646L16.0057 32.9646C16.0705 32.9881 16.139 33 16.2079 33C16.3491 32.9998 16.4857 32.9498 16.5937 32.8589C16.7016 32.7679 16.7741 32.6418 16.7982 32.5026C16.8224 32.3635 16.7967 32.2204 16.7257 32.0983C16.6547 31.9763 16.543 31.8832 16.4101 31.8354Z" fill="white"/>
</g>
<defs>
<clipPath id="clip0_138_2646">
<rect width="36" height="36" fill="white"/>
</clipPath>
</defs>
</svg>
