<svg width="36" height="36" viewBox="0 0 36 36" fill="none" xmlns="http://www.w3.org/2000/svg">
<path d="M33.1751 17.4932C33.1161 15.6848 32.7437 13.9275 32.0625 12.2597V10.8045C32.0625 10.4282 32.2481 10.0749 32.5468 9.88256C34.0048 8.946 34.875 7.35412 34.875 5.625C34.875 4.185 34.2585 2.80856 33.1841 1.84838C32.1103 0.88875 30.6675 0.432563 29.2247 0.595688C27.1153 0.834188 25.3637 2.42719 24.885 4.46513C22.7621 3.38513 20.4002 2.8125 18 2.8125C16.2574 2.8125 14.5586 3.10444 12.9375 3.67875V0.5625H9.5625V9.5625H8.4375V2.8125H5.0625V9.5625H3.9375V5.0625H0.5625V10.6875H4.689C3.45994 12.9201 2.8125 15.4271 2.8125 18C2.8125 19.7398 3.11344 21.4397 3.68775 23.0625C3.49425 23.3949 3.375 23.7758 3.375 24.1875H2.25C1.31962 24.1875 0.5625 24.9446 0.5625 25.875V28.6875H1.6875C2.30794 28.6875 2.8125 29.1921 2.8125 29.8125C2.8125 30.4329 2.30794 30.9375 1.6875 30.9375H0.5625V33.75C0.5625 34.6804 1.31962 35.4375 2.25 35.4375H9C9.93038 35.4375 10.6875 34.6804 10.6875 33.75V30.9375H9.5625C8.94206 30.9375 8.4375 30.4329 8.4375 29.8125C8.4375 29.1921 8.94206 28.6875 9.5625 28.6875H10.6875V25.875C10.6875 24.9446 9.93038 24.1875 9 24.1875H7.875C7.875 22.9466 6.86588 21.9375 5.625 21.9375C5.24981 21.9375 4.90106 22.0388 4.59 22.2019C4.221 21.024 4.01119 19.8062 3.96225 18.5625H10.6875V20.0858L11.7146 20.4486C11.7495 20.5369 11.7861 20.6252 11.8249 20.7135L11.3546 21.6967L14.3044 24.6465L15.2876 24.1762C15.3754 24.2151 15.4637 24.2522 15.5526 24.2865L15.9142 25.3125H17.4375V32.0473C15.5672 31.9747 13.7638 31.5433 12.0701 30.7547L11.5954 31.7745C13.608 32.7122 15.7629 33.1875 18 33.1875C22.6457 33.1875 26.9426 31.104 29.8125 27.5428V31.6328L31.3076 34.623C31.5585 35.1253 32.0631 35.4375 32.625 35.4375C33.1869 35.4375 33.6915 35.1253 33.9424 34.6236L35.4375 31.6328V20.25C35.4375 18.8876 34.4633 17.7497 33.1751 17.4932V17.4932ZM2.8125 9.5625H1.6875V6.1875H2.8125V9.5625ZM25.9088 5.10469C26.1338 3.34012 27.5816 1.91363 29.3513 1.71338C29.5076 1.69594 29.6629 1.6875 29.8176 1.6875C30.7879 1.6875 31.7036 2.03456 32.4343 2.68762C33.2702 3.43406 33.75 4.50506 33.75 5.625C33.75 6.96938 33.0727 8.20744 31.9387 8.93644C31.3442 9.31894 30.9814 9.9675 30.9448 10.6875H30.375V7.209C31.0281 6.97612 31.5 6.35738 31.5 5.625C31.5 4.69462 30.7429 3.9375 29.8125 3.9375C28.8821 3.9375 28.125 4.69462 28.125 5.625C28.125 6.35738 28.5969 6.97612 29.25 7.209V10.6875H28.6791C28.6374 9.96131 28.2791 9.31556 27.6958 8.94262C26.397 8.11294 25.7124 6.64256 25.9088 5.10469ZM30.9375 11.8125V12.375C30.9375 12.6849 30.6849 12.9375 30.375 12.9375H29.25C28.9401 12.9375 28.6875 12.6849 28.6875 12.375V11.8125H30.9375ZM29.25 5.625C29.25 5.31506 29.5026 5.0625 29.8125 5.0625C30.1224 5.0625 30.375 5.31506 30.375 5.625C30.375 5.93494 30.1224 6.1875 29.8125 6.1875C29.5026 6.1875 29.25 5.93494 29.25 5.625ZM18.5625 3.95606C20.7337 4.04269 22.8555 4.62938 24.7517 5.66888C24.7652 7.37775 25.6213 8.95219 27.0894 9.89044C27.3814 10.0766 27.5619 10.4361 27.5619 10.8281V12.375C27.5619 13.3054 28.3191 14.0625 29.2494 14.0625H30.3744C30.7586 14.0625 31.1091 13.9286 31.3931 13.7115C31.7784 14.9152 31.9989 16.1623 32.0484 17.4375H25.3125V15.9142L24.2854 15.5514C24.2505 15.4631 24.2139 15.3748 24.1751 15.2865L24.6454 14.3032L21.6956 11.3535L20.7124 11.8238C20.6246 11.7849 20.5363 11.7478 20.4474 11.7135L20.0858 10.6875H18.5625V3.95606ZM10.6875 1.6875H11.8125V9.5625H10.6875V1.6875ZM6.1875 3.9375H7.3125V9.5625H6.1875V3.9375ZM4.5 25.3125V24.1875C4.5 23.5671 5.00456 23.0625 5.625 23.0625C6.24544 23.0625 6.75 23.5671 6.75 24.1875V25.3125H9C9.30994 25.3125 9.5625 25.5651 9.5625 25.875V27.5625C8.32162 27.5625 7.3125 28.5716 7.3125 29.8125C7.3125 31.0534 8.32162 32.0625 9.5625 32.0625V33.75C9.5625 34.0599 9.30994 34.3125 9 34.3125H2.25C1.94006 34.3125 1.6875 34.0599 1.6875 33.75V32.0625C2.92838 32.0625 3.9375 31.0534 3.9375 29.8125C3.9375 28.5716 2.92838 27.5625 1.6875 27.5625V25.875C1.6875 25.5651 1.94006 25.3125 2.25 25.3125H4.5ZM10.6875 15.9142V17.4375H3.95719C4.05225 15.0429 4.74975 12.7271 5.99456 10.6875H12.9375V4.88081C14.3769 4.3245 15.8861 4.01175 17.4375 3.95156V10.6875H15.9142L15.5514 11.7146C15.4631 11.7495 15.3748 11.7861 15.2865 11.8249L14.3032 11.3546L11.3535 14.3044L11.8238 15.2876C11.7849 15.3754 11.7478 15.4637 11.7135 15.5526L10.6875 15.9142ZM16.7108 24.1875L16.4346 23.4045L16.1769 23.3162C15.9615 23.2425 15.7444 23.1519 15.5317 23.0473L15.2871 22.9275L14.5367 23.2864L12.7131 21.4627L13.0719 20.7124L12.9521 20.4677C12.8475 20.2551 12.7575 20.0379 12.6833 19.8225L12.5949 19.5649L11.8125 19.2892V16.7102L12.5955 16.434L12.6838 16.1764C12.7575 15.9609 12.8481 15.7438 12.9527 15.5312L13.0725 15.2865L12.7136 14.5361L14.5372 12.7125L15.2876 13.0714L15.5323 12.9516C15.7449 12.8469 15.9621 12.7569 16.1775 12.6827L16.4351 12.5944L16.7108 11.8125H19.2898L19.566 12.5955L19.8236 12.6838C20.0391 12.7575 20.2562 12.8481 20.4688 12.9527L20.7135 13.0725L21.4639 12.7136L23.2875 14.5372L22.9286 15.2876L23.0484 15.5323C23.1531 15.7449 23.2431 15.9621 23.3173 16.1775L23.4056 16.4351L24.1875 16.7108V19.2898L23.4045 19.566L23.3162 19.8236C23.2425 20.0391 23.1519 20.2562 23.0473 20.4688L22.9275 20.7135L23.2864 21.4639L21.4627 23.2875L20.7124 22.9286L20.4677 23.0484C20.2551 23.1531 20.0379 23.2431 19.8225 23.3173L19.5649 23.4056L19.2892 24.1875H16.7108ZM29.8125 20.25V25.6258C27.3082 29.4992 23.1452 31.8645 18.5625 32.0445V25.3125H20.0858L20.4486 24.2854C20.5369 24.2505 20.6252 24.2139 20.7135 24.1751L21.6967 24.6454L24.6465 21.6956L24.1762 20.7124C24.2151 20.6246 24.2522 20.5363 24.2865 20.4474L25.3125 20.0858V18.5625H30.3896C30.0324 19.0339 29.8125 19.6144 29.8125 20.25V20.25ZM30.9375 21.9375H32.0625V30.9375H30.9375V21.9375ZM32.9361 34.1207C32.8174 34.3575 32.4326 34.3575 32.3145 34.1207L31.2851 32.0625H33.9649L32.9361 34.1207ZM34.3125 30.9375H33.1875V21.9375H34.3125V30.9375ZM34.3125 20.8125H30.9375V20.25C30.9375 19.3196 31.6946 18.5625 32.625 18.5625C33.5554 18.5625 34.3125 19.3196 34.3125 20.25V20.8125Z" fill="white"/>
</svg>
