<svg width="36" height="36" viewBox="0 0 36 36" fill="none" xmlns="http://www.w3.org/2000/svg">
<g clip-path="url(#clip0_138_2627)">
<path d="M12.7438 35.421C12.2788 35.421 11.8258 35.2755 11.4343 34.9935C10.8418 34.566 10.4998 33.9015 10.4998 33.168V17.532L0.185821 5.7435C-0.00917937 5.523 -0.0541794 5.208 0.0673207 4.9395C0.188821 4.671 0.455821 4.5 0.749821 4.5H35.2498C35.5438 4.5 35.8108 4.671 35.9323 4.9395C36.0538 5.208 36.0088 5.5215 35.8153 5.742L35.0053 6.672C34.7338 6.9825 34.2598 7.0185 33.9478 6.7455C33.7273 6.555 33.6463 6.264 33.7123 6H2.40282L11.8138 16.7565C11.9338 16.893 11.9998 17.0685 11.9998 17.25V33.168C11.9998 33.4125 12.1138 33.6345 12.3118 33.777C12.5083 33.9195 12.7513 33.9555 12.9868 33.879L19.9663 31.551C20.3593 31.422 20.7838 31.6335 20.9158 32.025C21.0463 32.418 20.8333 32.8425 20.4418 32.9745L13.4623 35.3025C13.2238 35.3835 12.9823 35.421 12.7438 35.421Z" fill="white"/>
<path d="M35.25 6C34.836 6 34.5 5.664 34.5 5.25V2.25C34.5 1.8375 34.1625 1.5 33.75 1.5H2.25C1.8375 1.5 1.5 1.8375 1.5 2.25V5.25C1.5 5.664 1.164 6 0.75 6C0.336 6 0 5.664 0 5.25V2.25C0 1.0095 1.0095 0 2.25 0H33.75C34.9905 0 36 1.0095 36 2.25V5.25C36 5.664 35.664 6 35.25 6Z" fill="white"/>
<path d="M33 25.5C31.3455 25.5 30 24.1545 30 22.5C30 20.8455 31.3455 19.5 33 19.5C34.6545 19.5 36 20.8455 36 22.5C36 24.1545 34.6545 25.5 33 25.5ZM33 21C32.172 21 31.5 21.672 31.5 22.5C31.5 23.328 32.172 24 33 24C33.828 24 34.5 23.328 34.5 22.5C34.5 21.672 33.828 21 33 21Z" fill="white"/>
<path d="M30.75 23.25H15.75C15.336 23.25 15 22.914 15 22.5C15 22.086 15.336 21.75 15.75 21.75H30.75C31.164 21.75 31.5 22.086 31.5 22.5C31.5 22.914 31.164 23.25 30.75 23.25Z" fill="white"/>
<path d="M21 18H15.75C15.336 18 15 17.664 15 17.25C15 16.836 15.336 16.5 15.75 16.5H20.6895L25.7205 11.469C25.86 11.3295 26.0505 11.25 26.25 11.25H30.75C31.164 11.25 31.5 11.586 31.5 12C31.5 12.414 31.164 12.75 30.75 12.75H26.5605L21.5295 17.781C21.39 17.9205 21.1995 18 21 18Z" fill="white"/>
<path d="M33 15C31.3455 15 30 13.6545 30 12C30 10.3455 31.3455 9 33 9C34.6545 9 36 10.3455 36 12C36 13.6545 34.6545 15 33 15ZM33 10.5C32.172 10.5 31.5 11.172 31.5 12C31.5 12.828 32.172 13.5 33 13.5C33.828 13.5 34.5 12.828 34.5 12C34.5 11.172 33.828 10.5 33 10.5Z" fill="white"/>
<path d="M30.75 33.75H26.25C26.0505 33.75 25.86 33.6705 25.719 33.531L20.6895 28.5H15.75C15.336 28.5 15 28.164 15 27.75C15 27.336 15.336 27 15.75 27H21C21.1995 27 21.39 27.0795 21.531 27.219L26.562 32.25H30.75C31.164 32.25 31.5 32.586 31.5 33C31.5 33.414 31.164 33.75 30.75 33.75Z" fill="white"/>
<path d="M33 36C31.3455 36 30 34.6545 30 33C30 31.3455 31.3455 30 33 30C34.6545 30 36 31.3455 36 33C36 34.6545 34.6545 36 33 36ZM33 31.5C32.172 31.5 31.5 32.172 31.5 33C31.5 33.828 32.172 34.5 33 34.5C33.828 34.5 34.5 33.828 34.5 33C34.5 32.172 33.828 31.5 33 31.5Z" fill="white"/>
<path d="M14.2498 10.5H4.69482C4.28082 10.5 3.94482 10.164 3.94482 9.75C3.94482 9.336 4.28082 9 4.69482 9H14.2498C14.6638 9 14.9998 9.336 14.9998 9.75C14.9998 10.164 14.6638 10.5 14.2498 10.5Z" fill="white"/>
</g>
<defs>
<clipPath id="clip0_138_2627">
<rect width="36" height="36" fill="white"/>
</clipPath>
</defs>
</svg>
