<svg width="36" height="36" viewBox="0 0 36 36" fill="none" xmlns="http://www.w3.org/2000/svg">
<path d="M17.9277 20.0593C17.6154 20.0593 17.3613 20.3134 17.3613 20.6259C17.3613 20.9382 17.6154 21.1926 17.9277 21.1926C18.2402 21.1926 18.4943 20.9382 18.4943 20.6259C18.4943 20.3134 18.24 20.0593 17.9277 20.0593Z" fill="white"/>
<path d="M17.9632 18.1853C17.3081 18.1853 16.6901 18.4391 16.2229 18.9C16.0156 19.1043 16.0134 19.4383 16.2177 19.6454C16.4221 19.8527 16.7558 19.8549 16.9634 19.6506C17.232 19.3856 17.5872 19.2397 17.9632 19.2397C18.3565 19.2397 18.7223 19.3968 18.9937 19.6825C19.0972 19.7915 19.2365 19.8464 19.3757 19.8464C19.5062 19.8464 19.6369 19.7984 19.7391 19.7014C19.95 19.5006 19.9585 19.1669 19.758 18.956C19.2925 18.4663 18.6383 18.1853 17.9632 18.1853Z" fill="white"/>
<path d="M21.106 17.5989C20.2736 16.7434 19.1573 16.2723 17.9631 16.2723C16.7997 16.2723 15.7038 16.7228 14.8776 17.5407C14.6705 17.7459 14.6689 18.0796 14.8738 18.2864C15.0787 18.4932 15.4124 18.4949 15.6195 18.2902C16.2468 17.669 17.0793 17.3267 17.9631 17.3267C18.87 17.3267 19.7179 17.6844 20.3502 18.3342C20.4537 18.4405 20.5908 18.4938 20.7281 18.4938C20.8605 18.4938 20.9932 18.4441 21.0956 18.3444C21.3043 18.1414 21.309 17.8074 21.106 17.5989Z" fill="white"/>
<path d="M21.7546 16.9329C21.8579 17.0381 21.9944 17.0908 22.1309 17.0908C22.2641 17.0908 22.3976 17.0406 22.5003 16.9398C22.7079 16.7357 22.7109 16.402 22.5072 16.1941C21.3 14.9652 19.6864 14.2882 17.9635 14.2882C16.276 14.2882 14.6849 14.9422 13.4833 16.1298C13.2762 16.3344 13.2742 16.6681 13.4789 16.8752C13.6838 17.0823 14.0172 17.0845 14.2246 16.8796C15.2276 15.8886 16.5553 15.3426 17.9635 15.3426C19.401 15.3426 20.7474 15.9076 21.7546 16.9329Z" fill="white"/>
<path d="M2.62216 20.6227C4.06796 20.6227 5.24431 19.4461 5.24431 18C5.24431 16.554 4.06796 15.3773 2.62216 15.3773C1.17636 15.3773 0 16.554 0 18C0 19.4461 1.17636 20.6227 2.62216 20.6227ZM2.62216 16.4317C3.48678 16.4317 4.1899 17.1354 4.1899 18C4.1899 18.8649 3.48678 19.5683 2.62216 19.5683C1.75781 19.5683 1.05441 18.8649 1.05441 18C1.05441 17.1354 1.75781 16.4317 2.62216 16.4317Z" fill="white"/>
<path d="M33.3697 15.3773C31.9239 15.3773 30.7476 16.554 30.7476 18C30.7476 19.4464 31.9239 20.6227 33.3697 20.6227C34.8158 20.6227 35.9919 19.4464 35.9919 18C35.9919 16.554 34.8155 15.3773 33.3697 15.3773ZM33.3697 19.5683C32.5054 19.5683 31.802 18.8646 31.802 18C31.802 17.1354 32.5054 16.4317 33.3697 16.4317C34.2343 16.4317 34.9375 17.1354 34.9375 18C34.9375 18.8646 34.2343 19.5683 33.3697 19.5683Z" fill="white"/>
<path d="M17.9923 5.24541C19.4381 5.24541 20.6144 4.06878 20.6144 2.62271C20.6144 1.17663 19.4381 0 17.9923 0C16.5465 0 15.3701 1.17636 15.3701 2.62271C15.3701 4.06878 16.5465 5.24541 17.9923 5.24541ZM17.9923 1.05441C18.8566 1.05441 19.56 1.75808 19.56 2.62271C19.56 3.48733 18.8566 4.191 17.9923 4.191C17.1279 4.191 16.4245 3.48733 16.4245 2.62271C16.4245 1.75808 17.1279 1.05441 17.9923 1.05441Z" fill="white"/>
<path d="M17.9923 30.7545C16.5465 30.7545 15.3701 31.9311 15.3701 33.3772C15.3701 34.8236 16.5462 35.9999 17.9923 35.9999C19.4381 35.9999 20.6144 34.8236 20.6144 33.3772C20.6144 31.9311 19.4381 30.7545 17.9923 30.7545ZM17.9923 34.9455C17.1279 34.9455 16.4245 34.2418 16.4245 33.3772C16.4245 32.5126 17.1279 31.8089 17.9923 31.8089C18.8566 31.8089 19.56 32.5126 19.56 33.3772C19.56 34.2418 18.8566 34.9455 17.9923 34.9455Z" fill="white"/>
<path d="M33.3695 30.7101C32.8771 30.7101 32.4162 30.8468 32.0221 31.0839L26.7717 25.7459C28.6015 23.6769 29.7141 20.9594 29.7141 17.9863C29.7141 15.0202 28.6067 12.3083 26.7843 10.2412L31.9798 4.95898C32.383 5.21221 32.8592 5.35915 33.3695 5.35915C34.8153 5.35915 35.9917 4.18279 35.9917 2.73645C35.9917 1.29037 34.8153 0.114014 33.3695 0.114014C31.9237 0.114014 30.7474 1.29037 30.7474 2.73672C30.7474 3.2918 30.9212 3.80706 31.2168 4.23141L26.0527 9.48149C23.9501 7.4872 21.1116 6.26195 17.9923 6.26195C16.2831 6.26195 14.6351 6.62175 13.0943 7.33147C12.8298 7.45314 12.7142 7.76625 12.8359 8.03075C12.9578 8.29524 13.2709 8.41087 13.5354 8.2892C13.9367 8.10435 14.3465 7.94643 14.7631 7.81377C14.2506 8.35265 13.7779 9.02556 13.3583 9.82316C12.9361 10.6252 12.5837 11.5227 12.3063 12.4893C11.4142 12.7505 10.5834 13.0748 9.83577 13.4583C9.01838 13.8774 8.33256 14.3509 7.78682 14.8651C7.96727 14.2751 8.20018 13.6994 8.48555 13.1405C9.22053 11.701 10.2939 10.4249 11.5892 9.451C11.8221 9.27604 11.8691 8.94563 11.6938 8.713C11.5191 8.48009 11.1885 8.43339 10.9555 8.60835C10.5979 8.87724 10.2557 9.16728 9.9308 9.47572L4.77383 4.23306C5.07018 3.80816 5.24431 3.29263 5.24431 2.73672C5.24431 1.29037 4.06823 0.114014 2.62216 0.114014C1.17636 0.114014 0 1.29037 0 2.73672C0 4.18279 1.17636 5.35915 2.62216 5.35915C3.13165 5.35915 3.60735 5.21276 4.01028 4.96007L9.19938 10.2357C8.55009 10.9726 7.99171 11.7894 7.54649 12.6609C6.69972 14.3196 6.27043 16.1115 6.27043 17.9863C6.27043 20.9605 7.3839 23.6791 9.21504 25.7481L3.96798 31.0828C3.5744 30.8463 3.11407 30.7098 2.62243 30.7098C1.17636 30.7098 0 31.8864 0 33.3325C0 34.7788 1.17636 35.9552 2.62243 35.9552C4.06823 35.9552 5.24459 34.7788 5.24459 33.3325C5.24459 32.759 5.05892 32.2284 4.74554 31.7961L9.94865 26.5064C12.0476 28.49 14.8766 29.7087 17.9849 29.7106C17.9873 29.7106 17.9895 29.7111 17.992 29.7111C17.9945 29.7111 17.9969 29.7106 17.9994 29.7106C21.1091 29.7089 23.9392 28.4892 26.0386 26.5042L31.2453 31.7977C30.9325 32.2295 30.7474 32.7596 30.7474 33.3325C30.7474 34.7786 31.9237 35.9552 33.3698 35.9552C34.8156 35.9552 35.992 34.7788 35.992 33.3325C35.992 31.8864 34.8153 30.7101 33.3695 30.7101ZM1.05441 2.73672C1.05441 1.87182 1.75781 1.16842 2.62216 1.16842C3.48678 1.16842 4.1899 1.87182 4.1899 2.73672C4.1899 3.60134 3.4865 4.30474 2.62216 4.30474C1.75781 4.30474 1.05441 3.60134 1.05441 2.73672ZM20.8646 23.5431C20.9113 23.8304 21.1821 24.0252 21.4697 23.9785C21.8155 23.9222 22.1528 23.8579 22.4821 23.7862C22.2588 24.4569 21.9951 25.0848 21.693 25.6586C20.807 27.3422 19.6957 28.3667 18.5193 28.6032V24.2468C18.8173 24.2399 19.1151 24.2279 19.409 24.2092C19.6995 24.1908 19.9201 23.9406 19.902 23.65C19.8836 23.3594 19.6342 23.1388 19.3425 23.157C18.8975 23.185 18.4433 23.1993 17.9923 23.1993C16.2875 23.1993 14.6456 23.001 13.1671 22.6261C12.8128 21.1965 12.6257 19.6202 12.6257 17.9863C12.6257 16.3523 12.8128 14.7761 13.1671 13.3465C14.6456 12.9716 16.2875 12.7733 17.9923 12.7733C19.6971 12.7733 21.339 12.9716 22.8175 13.3465C23.1718 14.7761 23.3585 16.3523 23.3585 17.9863C23.3585 19.6191 23.172 21.1948 22.818 22.6236C22.3332 22.7466 21.8265 22.8521 21.3003 22.9378C21.013 22.9848 20.818 23.2556 20.8646 23.5431ZM7.79231 21.113C8.33723 21.6252 9.02141 22.0968 9.83577 22.5145C10.5834 22.8977 11.4142 23.2223 12.3063 23.4833C12.5837 24.4498 12.9361 25.3476 13.3583 26.1496C13.7771 26.9453 14.2481 27.6169 14.7593 28.1552C11.4376 27.0961 8.81706 24.4506 7.79231 21.113ZM11.5779 18.5136C11.609 19.8226 11.7556 21.0935 12.0083 22.2847C11.4054 22.0803 10.8388 21.8436 10.317 21.576C8.64485 20.7186 7.6245 19.6468 7.3817 18.5136H11.5779ZM13.5024 23.787C14.7483 24.0584 16.0853 24.2155 17.4649 24.2474V28.6032C16.2886 28.3664 15.1773 27.3419 14.2913 25.6586C13.9894 25.0851 13.7257 24.4575 13.5024 23.787ZM21.6933 10.3143C21.9949 10.8877 22.2588 11.5151 22.4818 12.1855C21.236 11.9141 19.8989 11.757 18.5193 11.7252V7.36937C19.6957 7.60585 20.807 8.6306 21.6933 10.3143ZM24.4066 17.4592C24.3756 16.1499 24.2289 14.8791 23.9762 13.6879C24.5791 13.8922 25.1457 14.129 25.6676 14.3965C27.3397 15.254 28.3603 16.3257 28.6028 17.4592H24.4066ZM24.4066 18.5136H28.6023C28.2716 20.0305 26.5352 21.4178 23.9765 22.2827C24.2289 21.0921 24.3756 19.8221 24.4066 18.5136ZM33.3695 1.16842C34.2342 1.16842 34.9373 1.87182 34.9373 2.73672C34.9373 3.60134 34.2342 4.30474 33.3695 4.30474C32.5052 4.30474 31.8018 3.60134 31.8018 2.73672C31.8018 1.87182 32.5052 1.16842 33.3695 1.16842ZM28.1922 14.8596C27.6473 14.3476 26.9631 13.8757 26.1488 13.4583C25.4009 13.0748 24.5703 12.7505 23.6782 12.4893C23.4008 11.5227 23.0484 10.6252 22.6263 9.82289C22.2074 9.02748 21.7361 8.35594 21.225 7.81761C24.547 8.87669 27.1675 11.5219 28.1922 14.8596ZM14.2913 10.3143C15.1776 8.63087 16.2886 7.60613 17.4649 7.36937V11.7252C16.0856 11.757 14.7483 11.9141 13.5027 12.1855C13.7257 11.5151 13.9894 10.8877 14.2913 10.3143ZM10.317 14.3965C10.8388 14.129 11.4054 13.8922 12.0083 13.6879C11.7556 14.8791 11.609 16.1499 11.5779 17.4592H7.3817C7.6245 16.3257 8.64485 15.254 10.317 14.3965ZM2.62216 34.9008C1.75781 34.9008 1.05441 34.1974 1.05441 33.3328C1.05441 32.4679 1.75781 31.7645 2.62216 31.7645C3.48678 31.7645 4.1899 32.4679 4.1899 33.3328C4.1899 34.1974 3.4865 34.9008 2.62216 34.9008ZM21.225 28.1552C21.7361 27.6169 22.2074 26.9453 22.6263 26.1496C23.0484 25.3474 23.4008 24.4492 23.6785 23.4827C25.5915 22.9235 27.1444 22.0951 28.1958 21.1003C27.1741 24.4437 24.5511 27.0947 21.225 28.1552ZM33.3695 34.9008C32.5052 34.9008 31.8018 34.1974 31.8018 33.3328C31.8018 32.4679 32.5052 31.7645 33.3695 31.7645C34.2342 31.7645 34.9373 32.4679 34.9373 33.3328C34.9373 34.1974 34.2342 34.9008 33.3695 34.9008Z" fill="white"/>
</svg>
