<svg width="44" height="40" viewBox="0 0 44 40" fill="none" xmlns="http://www.w3.org/2000/svg">
<path d="M34.9702 17.5067L32.644 13.6084L34.9705 9.71661H39.6096L41.9292 13.6084L39.6096 17.507L34.9702 17.5067Z" fill="#009335"/>
<path d="M17.5976 8.68096L15.7134 5.52182L17.5976 2.35568H21.3661L23.2435 5.52182L21.3661 8.68154L17.5976 8.68096Z" fill="#009335"/>
<path d="M40.4463 3.33132L39.4531 1.66231L40.4463 0H42.4258L43.419 1.66231L42.4258 3.33132H40.4463Z" fill="#009335"/>
<path d="M31.3584 5.50141L29.7661 2.82994L31.3584 0.158478H34.5428L36.1351 2.82994L34.5428 5.50141H31.3584Z" fill="#009335"/>
<path d="M24.1819 18.1599C24.1827 17.9805 24.1286 17.8049 24.0265 17.6553C23.9243 17.5058 23.7788 17.389 23.6082 17.3196C23.4376 17.2503 23.2496 17.2316 23.068 17.2659C22.8864 17.3002 22.7194 17.3859 22.5881 17.5122C22.4568 17.6386 22.367 17.7998 22.3302 17.9756C22.2934 18.1514 22.3112 18.3338 22.3813 18.4998C22.4514 18.6658 22.5707 18.8079 22.7241 18.9082C22.8775 19.0084 23.0581 19.0623 23.2431 19.063C23.3661 19.0639 23.488 19.0413 23.6018 18.9963C23.7157 18.9514 23.8192 18.885 23.9065 18.801C23.9938 18.7171 24.0631 18.6172 24.1103 18.5072C24.1576 18.3971 24.1819 18.2791 24.1819 18.1599Z" fill="#009335"/>
<path d="M26.9094 27.4869L30.3174 32.9155L32.5826 33.5156L38.2906 23.9246L36.2499 20.4945H32.9083L28.7793 13.5551L30.4457 10.7517L28.718 7.84918H25.5083L23.2296 11.6752H15.719L13.4409 7.84976H9.57746L6.26501 13.417L10.6169 19.9672C10.6578 19.9672 10.6917 19.9541 10.7257 19.9541C11.2651 19.948 11.7904 20.1208 12.2148 20.4437C12.6391 20.7667 12.937 21.2205 13.0592 21.73C13.1813 22.2395 13.1204 22.7742 12.8865 23.2455C12.6526 23.7169 12.2597 24.0966 11.7728 24.3219C11.286 24.5472 10.7344 24.6046 10.2094 24.4845C9.68439 24.3644 9.21742 24.074 8.88577 23.6614C8.55413 23.2489 8.3777 22.7389 8.38569 22.2158C8.39369 21.6928 8.58564 21.1881 8.92975 20.7852L5.20212 15.1851L0 23.9182L5.02006 32.3547L15.5649 25.6251L16.8846 20.9746L17.1977 20.7899C17.1977 20.7899 20.8232 18.6064 20.9388 18.5406C20.9148 18.4143 20.9011 18.2864 20.898 18.1581C20.8998 17.6542 21.0751 17.1653 21.3961 16.7691C21.7171 16.3728 22.1654 16.0919 22.6699 15.9709C23.1743 15.8499 23.7059 15.8957 24.1804 16.1011C24.6549 16.3065 25.0451 16.6598 25.2889 17.1047C25.5328 17.5497 25.6164 18.0609 25.5266 18.5572C25.4367 19.0535 25.1784 19.5064 24.7928 19.8442C24.4072 20.1819 23.9162 20.3851 23.398 20.4214C22.8797 20.4577 22.3637 20.3251 21.932 20.0447C21.803 20.1413 21.669 20.2315 21.5307 20.315L18.488 22.144L17.1685 26.7944L5.95197 33.9381L8.55723 38.3114L17.475 32.8432C17.475 32.8103 17.4614 32.7774 17.4614 32.7378C17.4614 32.289 17.5987 31.8503 17.8558 31.4771C18.1129 31.104 18.4784 30.8131 18.906 30.6414C19.3335 30.4696 19.804 30.4247 20.2579 30.5122C20.7119 30.5998 21.1288 30.8159 21.4561 31.1333C21.7833 31.4506 22.0062 31.8549 22.0965 32.2951C22.1867 32.7353 22.1404 33.1915 21.9633 33.6062C21.7862 34.0208 21.4863 34.3752 21.1015 34.6245C20.7167 34.8738 20.2642 35.0069 19.8014 35.0069C19.2574 35.0053 18.7317 34.8159 18.3186 34.4726L9.49575 39.8811L9.56395 40H28.6984L31.5894 35.1386L29.0929 34.4723L28.8955 34.1688C28.8955 34.1688 25.1204 28.1675 25.0456 28.0605C24.9154 28.0839 24.7835 28.0971 24.6512 28.1002C24.1291 28.1005 23.6219 27.9316 23.2102 27.6203C22.7984 27.309 22.5058 26.8733 22.3787 26.3822C22.2516 25.8912 22.2974 25.3731 22.5088 24.9102C22.7202 24.4473 23.0851 24.0662 23.5454 23.8274C24.0057 23.5886 24.5352 23.5059 25.0496 23.5923C25.564 23.6787 26.0338 23.9294 26.3845 24.3045C26.7351 24.6795 26.9465 25.1574 26.9849 25.6623C27.0234 26.1672 26.8867 26.6701 26.5967 27.091C26.7156 27.2114 26.8205 27.3442 26.9094 27.4869Z" fill="#009335"/>
<path d="M20.7537 32.7375C20.7537 32.5589 20.6991 32.3843 20.5968 32.2358C20.4944 32.0873 20.349 31.9715 20.1788 31.9032C20.0086 31.8348 19.8214 31.8169 19.6407 31.8518C19.4601 31.8866 19.2941 31.9726 19.1639 32.0989C19.0336 32.2252 18.9449 32.3861 18.909 32.5613C18.8731 32.7365 18.8915 32.9181 18.962 33.0831C19.0325 33.2481 19.1519 33.3892 19.305 33.4884C19.4582 33.5877 19.6382 33.6406 19.8224 33.6406C19.9448 33.6409 20.0661 33.6178 20.1792 33.5725C20.2923 33.5272 20.3951 33.4607 20.4817 33.3768C20.5682 33.2929 20.6368 33.1932 20.6835 33.0835C20.7302 32.9738 20.754 32.8562 20.7537 32.7375Z" fill="#009335"/>
<path d="M11.6658 22.2297C11.6651 22.0503 11.6096 21.8751 11.5062 21.7264C11.4028 21.5776 11.2563 21.4619 11.0851 21.3939C10.9139 21.3259 10.7258 21.3087 10.5445 21.3444C10.3632 21.3801 10.1969 21.4671 10.0667 21.5945C9.9364 21.7218 9.848 21.8838 9.81265 22.0598C9.77729 22.2359 9.79659 22.4182 9.86808 22.5836C9.93956 22.7491 10.06 22.8903 10.2143 22.9893C10.3685 23.0883 10.5495 23.1408 10.7345 23.1401C10.8574 23.1398 10.979 23.116 11.0923 23.0701C11.2057 23.0241 11.3086 22.957 11.3951 22.8724C11.4816 22.7878 11.5501 22.6875 11.5965 22.5772C11.643 22.4669 11.6665 22.3488 11.6658 22.2297Z" fill="#009335"/>
<path d="M23.7466 25.8378C23.7458 26.0174 23.8001 26.1933 23.9026 26.343C24.005 26.4927 24.1511 26.6096 24.3221 26.6787C24.4931 26.7478 24.6815 26.7661 24.8633 26.7312C25.0451 26.6963 25.2121 26.6099 25.3431 26.4828C25.4741 26.3557 25.5633 26.1938 25.5992 26.0175C25.6352 25.8413 25.6163 25.6586 25.5451 25.4927C25.4738 25.3269 25.3533 25.1853 25.1989 25.0859C25.0446 24.9865 24.8632 24.9339 24.6779 24.9346C24.4311 24.9352 24.1945 25.0305 24.02 25.1997C23.8454 25.369 23.7471 25.5984 23.7466 25.8378Z" fill="#009335"/>
</svg>
