<svg width="25" height="25" viewBox="0 0 25 25" fill="none" xmlns="http://www.w3.org/2000/svg">
<path d="M12.5 14.5C14.1569 14.5 15.5 13.1569 15.5 11.5C15.5 9.84315 14.1569 8.5 12.5 8.5C10.8431 8.5 9.5 9.84315 9.5 11.5C9.5 13.1569 10.8431 14.5 12.5 14.5Z" stroke="white" stroke-linecap="round" stroke-linejoin="round"/>
<path d="M18.157 17.157L13.914 21.4C13.539 21.7746 13.0306 21.985 12.5005 21.985C11.9704 21.985 11.462 21.7746 11.087 21.4L6.843 17.157C5.72422 16.0381 4.96234 14.6127 4.65369 13.0608C4.34504 11.509 4.50349 9.90047 5.10901 8.43868C5.71452 6.9769 6.7399 5.72749 8.05548 4.84846C9.37107 3.96943 10.9178 3.50024 12.5 3.50024C14.0822 3.50024 15.6289 3.96943 16.9445 4.84846C18.2601 5.72749 19.2855 6.9769 19.891 8.43868C20.4965 9.90047 20.655 11.509 20.3463 13.0608C20.0377 14.6127 19.2758 16.0381 18.157 17.157V17.157Z" stroke="white" stroke-linecap="round" stroke-linejoin="round"/>
</svg>
