<svg width="149" height="41" viewBox="0 0 149 41" fill="none" xmlns="http://www.w3.org/2000/svg">
<path d="M34.9702 17.5067L32.644 13.6084L34.9705 9.71661H39.6096L41.9292 13.6084L39.6096 17.507L34.9702 17.5067Z" fill="#009335"/>
<path d="M17.5976 8.68096L15.7134 5.52182L17.5976 2.35568H21.3661L23.2435 5.52182L21.3661 8.68154L17.5976 8.68096Z" fill="#009335"/>
<path d="M40.4463 3.33132L39.4531 1.66231L40.4463 0H42.4258L43.419 1.66231L42.4258 3.33132H40.4463Z" fill="#009335"/>
<path d="M31.3584 5.50141L29.7661 2.82994L31.3584 0.158478H34.5428L36.1351 2.82994L34.5428 5.50141H31.3584Z" fill="#009335"/>
<path d="M24.1819 18.1599C24.1827 17.9805 24.1286 17.8049 24.0265 17.6553C23.9243 17.5058 23.7788 17.389 23.6082 17.3196C23.4376 17.2503 23.2496 17.2316 23.068 17.2659C22.8864 17.3002 22.7194 17.3859 22.5881 17.5122C22.4568 17.6386 22.367 17.7998 22.3302 17.9756C22.2934 18.1514 22.3112 18.3338 22.3813 18.4998C22.4514 18.6658 22.5707 18.8079 22.7241 18.9082C22.8775 19.0084 23.0581 19.0623 23.2431 19.063C23.3661 19.0639 23.488 19.0413 23.6018 18.9963C23.7157 18.9514 23.8192 18.885 23.9065 18.801C23.9938 18.7171 24.0631 18.6172 24.1103 18.5072C24.1576 18.3971 24.1819 18.2791 24.1819 18.1599Z" fill="#009335"/>
<path d="M26.9094 27.4869L30.3174 32.9155L32.5826 33.5156L38.2906 23.9246L36.2499 20.4945H32.9083L28.7793 13.5551L30.4457 10.7517L28.718 7.84918H25.5083L23.2296 11.6752H15.719L13.4409 7.84976H9.57746L6.26501 13.417L10.6169 19.9672C10.6578 19.9672 10.6917 19.9541 10.7257 19.9541C11.2651 19.948 11.7904 20.1208 12.2148 20.4437C12.6391 20.7667 12.937 21.2205 13.0592 21.73C13.1813 22.2395 13.1204 22.7742 12.8865 23.2455C12.6526 23.7169 12.2597 24.0966 11.7728 24.3219C11.286 24.5472 10.7344 24.6046 10.2094 24.4845C9.68439 24.3644 9.21742 24.074 8.88577 23.6614C8.55413 23.2489 8.3777 22.7389 8.38569 22.2158C8.39369 21.6928 8.58564 21.1881 8.92975 20.7852L5.20212 15.1851L0 23.9182L5.02006 32.3547L15.5649 25.6251L16.8846 20.9746L17.1977 20.7899C17.1977 20.7899 20.8232 18.6064 20.9388 18.5406C20.9148 18.4143 20.9011 18.2864 20.898 18.1581C20.8998 17.6542 21.0751 17.1653 21.3961 16.7691C21.7171 16.3728 22.1654 16.0919 22.6699 15.9709C23.1743 15.8499 23.7059 15.8957 24.1804 16.1011C24.6549 16.3065 25.0451 16.6598 25.2889 17.1047C25.5328 17.5497 25.6164 18.0609 25.5266 18.5572C25.4367 19.0535 25.1784 19.5064 24.7928 19.8442C24.4072 20.1819 23.9162 20.3851 23.398 20.4214C22.8797 20.4577 22.3637 20.3251 21.932 20.0447C21.803 20.1413 21.669 20.2315 21.5307 20.315L18.488 22.144L17.1685 26.7944L5.95197 33.9381L8.55723 38.3114L17.475 32.8432C17.475 32.8103 17.4614 32.7774 17.4614 32.7378C17.4614 32.289 17.5987 31.8503 17.8558 31.4771C18.1129 31.104 18.4784 30.8131 18.906 30.6414C19.3335 30.4696 19.804 30.4247 20.2579 30.5122C20.7119 30.5998 21.1288 30.8159 21.4561 31.1333C21.7833 31.4506 22.0062 31.8549 22.0965 32.2951C22.1867 32.7353 22.1404 33.1915 21.9633 33.6062C21.7862 34.0208 21.4863 34.3752 21.1015 34.6245C20.7167 34.8738 20.2642 35.0069 19.8014 35.0069C19.2574 35.0053 18.7317 34.8159 18.3186 34.4726L9.49575 39.8811L9.56395 40H28.6984L31.5894 35.1386L29.0929 34.4723L28.8955 34.1688C28.8955 34.1688 25.1204 28.1675 25.0456 28.0605C24.9154 28.0839 24.7835 28.0971 24.6512 28.1002C24.1291 28.1005 23.6219 27.9316 23.2102 27.6203C22.7984 27.309 22.5058 26.8733 22.3787 26.3822C22.2516 25.8912 22.2974 25.3731 22.5088 24.9102C22.7202 24.4473 23.0851 24.0662 23.5454 23.8274C24.0057 23.5886 24.5352 23.5059 25.0496 23.5923C25.564 23.6787 26.0338 23.9294 26.3845 24.3045C26.7351 24.6795 26.9465 25.1574 26.9849 25.6623C27.0234 26.1672 26.8867 26.6701 26.5967 27.091C26.7156 27.2114 26.8205 27.3442 26.9094 27.4869Z" fill="#009335"/>
<path d="M20.7537 32.7375C20.7537 32.5589 20.6991 32.3843 20.5968 32.2358C20.4944 32.0873 20.349 31.9715 20.1788 31.9032C20.0086 31.8348 19.8214 31.8169 19.6407 31.8518C19.4601 31.8866 19.2941 31.9726 19.1639 32.0989C19.0336 32.2252 18.9449 32.3861 18.909 32.5613C18.8731 32.7365 18.8915 32.9181 18.962 33.0831C19.0325 33.2481 19.1519 33.3892 19.305 33.4884C19.4582 33.5877 19.6382 33.6406 19.8224 33.6406C19.9448 33.6409 20.0661 33.6178 20.1792 33.5725C20.2923 33.5272 20.3951 33.4607 20.4817 33.3768C20.5682 33.2929 20.6368 33.1932 20.6835 33.0835C20.7302 32.9738 20.754 32.8562 20.7537 32.7375Z" fill="#009335"/>
<path d="M11.6658 22.2297C11.6651 22.0503 11.6096 21.8751 11.5062 21.7264C11.4028 21.5776 11.2563 21.4619 11.0851 21.3939C10.9139 21.3259 10.7258 21.3087 10.5445 21.3444C10.3632 21.3801 10.1969 21.4671 10.0667 21.5945C9.9364 21.7218 9.848 21.8838 9.81265 22.0598C9.77729 22.2359 9.79659 22.4182 9.86808 22.5836C9.93956 22.7491 10.06 22.8903 10.2143 22.9893C10.3685 23.0883 10.5495 23.1408 10.7345 23.1401C10.8574 23.1398 10.979 23.116 11.0923 23.0701C11.2057 23.0241 11.3086 22.957 11.3951 22.8724C11.4816 22.7878 11.5501 22.6875 11.5965 22.5772C11.643 22.4669 11.6665 22.3488 11.6658 22.2297Z" fill="#009335"/>
<path d="M23.7466 25.8378C23.7458 26.0174 23.8001 26.1933 23.9026 26.343C24.005 26.4927 24.1511 26.6096 24.3221 26.6787C24.4931 26.7478 24.6815 26.7661 24.8633 26.7312C25.0451 26.6963 25.2121 26.6099 25.3431 26.4828C25.4741 26.3557 25.5633 26.1938 25.5992 26.0175C25.6352 25.8413 25.6163 25.6586 25.5451 25.4927C25.4738 25.3269 25.3533 25.1853 25.1989 25.0859C25.0446 24.9865 24.8632 24.9339 24.6779 24.9346C24.4311 24.9352 24.1945 25.0305 24.02 25.1997C23.8454 25.369 23.7471 25.5984 23.7466 25.8378Z" fill="#009335"/>
<path d="M53.508 30.0682C51.6947 30.0682 50.3233 29.5582 49.394 28.5382C48.4647 27.4956 48 26.0109 48 24.0842V22.7242H51.536V24.3562C51.536 25.8976 52.182 26.6682 53.474 26.6682C54.1087 26.6682 54.5847 26.4869 54.902 26.1242C55.242 25.7389 55.412 25.1269 55.412 24.2882C55.412 23.2909 55.1853 22.4182 54.732 21.6702C54.2787 20.8996 53.44 19.9816 52.216 18.9162C50.6747 17.5562 49.598 16.3322 48.986 15.2442C48.374 14.1336 48.068 12.8869 48.068 11.5042C48.068 9.62289 48.544 8.17223 49.496 7.15223C50.448 6.10956 51.8307 5.58823 53.644 5.58823C55.4347 5.58823 56.7833 6.10956 57.69 7.15223C58.6193 8.17223 59.084 9.64556 59.084 11.5722V12.5582H55.548V11.3342C55.548 10.5182 55.3893 9.92889 55.072 9.56623C54.7547 9.18089 54.29 8.98823 53.678 8.98823C52.4313 8.98823 51.808 9.74756 51.808 11.2662C51.808 12.1276 52.0347 12.9322 52.488 13.6802C52.964 14.4282 53.814 15.3349 55.038 16.4002C56.602 17.7602 57.6787 18.9956 58.268 20.1062C58.8573 21.2169 59.152 22.5202 59.152 24.0162C59.152 25.9656 58.6647 27.4616 57.69 28.5042C56.738 29.5469 55.344 30.0682 53.508 30.0682Z" fill="#009335"/>
<path d="M66.7024 30.0682C64.8664 30.0682 63.4611 29.5469 62.4864 28.5042C61.5117 27.4616 61.0244 25.9882 61.0244 24.0842V11.5722C61.0244 9.66823 61.5117 8.19489 62.4864 7.15223C63.4611 6.10956 64.8664 5.58823 66.7024 5.58823C68.5384 5.58823 69.9437 6.10956 70.9184 7.15223C71.8931 8.19489 72.3804 9.66823 72.3804 11.5722V24.0842C72.3804 25.9882 71.8931 27.4616 70.9184 28.5042C69.9437 29.5469 68.5384 30.0682 66.7024 30.0682ZM66.7024 26.6682C67.9944 26.6682 68.6404 25.8862 68.6404 24.3222V11.3342C68.6404 9.77023 67.9944 8.98823 66.7024 8.98823C65.4104 8.98823 64.7644 9.77023 64.7644 11.3342V24.3222C64.7644 25.8862 65.4104 26.6682 66.7024 26.6682Z" fill="#009335"/>
<path d="M74.9097 5.92823H84.8037V9.32823H78.6497V15.9582H83.4777V19.3582H78.6497V29.7282H74.9097V5.92823Z" fill="#009335"/>
<path d="M89.8532 9.32823H85.9432V5.92823H97.5032V9.32823H93.5932V29.7282H89.8532V9.32823Z" fill="#009335"/>
<path d="M98.646 5.92825H104.358C106.217 5.92825 107.611 6.42692 108.54 7.42425C109.469 8.42159 109.934 9.88359 109.934 11.8103V23.8463C109.934 25.7729 109.469 27.2349 108.54 28.2323C107.611 29.2296 106.217 29.7283 104.358 29.7283H98.646V5.92825ZM104.29 26.3283C104.902 26.3283 105.367 26.1469 105.684 25.7843C106.024 25.4216 106.194 24.8323 106.194 24.0163V11.6403C106.194 10.8243 106.024 10.2349 105.684 9.87225C105.367 9.50959 104.902 9.32825 104.29 9.32825H102.386V26.3283H104.29Z" fill="white"/>
<path d="M115.282 5.92825H120.348L124.224 29.7283H120.484L119.804 25.0023V25.0703H115.554L114.874 29.7283H111.406L115.282 5.92825ZM119.362 21.8403L117.696 10.0763H117.628L115.996 21.8403H119.362Z" fill="white"/>
<path d="M127.402 9.32825H123.492V5.92825H135.052V9.32825H131.142V29.7283H127.402V9.32825Z" fill="white"/>
<path d="M138.192 5.92825H143.258L147.134 29.7283H143.394L142.714 25.0023V25.0703H138.464L137.784 29.7283H134.316L138.192 5.92825ZM142.272 21.8403L140.606 10.0763H140.538L138.906 21.8403H142.272Z" fill="white"/>
<path d="M50.6837 38.8083C50.2517 38.8083 49.8837 38.7389 49.5797 38.6003C49.2811 38.4616 49.0517 38.2829 48.8917 38.0643C48.7317 37.8456 48.6464 37.6136 48.6357 37.3683C48.6357 37.3256 48.6517 37.2883 48.6837 37.2563C48.7157 37.2243 48.7557 37.2083 48.8037 37.2083H48.9637C49.0171 37.2083 49.0571 37.2243 49.0837 37.2563C49.1157 37.2883 49.1344 37.3256 49.1397 37.3683C49.1611 37.5176 49.2277 37.6669 49.3397 37.8163C49.4517 37.9603 49.6171 38.0829 49.8357 38.1843C50.0544 38.2803 50.3371 38.3283 50.6837 38.3283C51.2064 38.3283 51.5877 38.2349 51.8277 38.0483C52.0677 37.8563 52.1877 37.6003 52.1877 37.2803C52.1877 37.0669 52.1237 36.8963 51.9957 36.7683C51.8731 36.6349 51.6837 36.5176 51.4277 36.4163C51.1717 36.3096 50.8437 36.1923 50.4437 36.0643C50.0651 35.9416 49.7531 35.8163 49.5077 35.6883C49.2624 35.5549 49.0811 35.3949 48.9637 35.2083C48.8517 35.0216 48.7957 34.7816 48.7957 34.4883C48.7957 34.2163 48.8677 33.9736 49.0117 33.7603C49.1557 33.5416 49.3637 33.3683 49.6357 33.2403C49.9131 33.1123 50.2491 33.0483 50.6437 33.0483C50.9584 33.0483 51.2331 33.0909 51.4677 33.1763C51.7024 33.2616 51.8971 33.3763 52.0517 33.5203C52.2064 33.6589 52.3237 33.8109 52.4037 33.9763C52.4837 34.1363 52.5264 34.2936 52.5317 34.4483C52.5317 34.4856 52.5184 34.5229 52.4917 34.5603C52.4651 34.5923 52.4224 34.6083 52.3637 34.6083H52.2037C52.1771 34.6083 52.1424 34.5976 52.0997 34.5763C52.0624 34.5549 52.0384 34.5123 52.0277 34.4483C51.9957 34.1816 51.8544 33.9629 51.6037 33.7923C51.3584 33.6163 51.0384 33.5283 50.6437 33.5283C50.2491 33.5283 49.9264 33.6056 49.6757 33.7603C49.4251 33.9149 49.2997 34.1576 49.2997 34.4883C49.2997 34.7016 49.3557 34.8776 49.4677 35.0163C49.5797 35.1496 49.7557 35.2696 49.9957 35.3763C50.2357 35.4776 50.5451 35.5896 50.9237 35.7123C51.3237 35.8403 51.6544 35.9683 51.9157 36.0963C52.1771 36.2243 52.3717 36.3816 52.4997 36.5683C52.6277 36.7496 52.6917 36.9869 52.6917 37.2803C52.6917 37.6056 52.6091 37.8829 52.4437 38.1123C52.2837 38.3363 52.0544 38.5096 51.7557 38.6323C51.4571 38.7496 51.0997 38.8083 50.6837 38.8083Z" fill="white"/>
<path d="M57.4075 38.8083C57.0235 38.8083 56.7008 38.7283 56.4395 38.5683C56.1835 38.4083 55.9862 38.1896 55.8475 37.9123C55.7142 37.6349 55.6422 37.3256 55.6315 36.9843C55.6262 36.9043 55.6235 36.7923 55.6235 36.6483C55.6235 36.5043 55.6262 36.3923 55.6315 36.3123C55.6422 35.9656 55.7142 35.6563 55.8475 35.3843C55.9862 35.1069 56.1835 34.8883 56.4395 34.7283C56.7008 34.5683 57.0235 34.4883 57.4075 34.4883C57.7915 34.4883 58.1115 34.5683 58.3675 34.7283C58.6288 34.8883 58.8262 35.1069 58.9595 35.3843C59.0982 35.6563 59.1728 35.9656 59.1835 36.3123C59.1888 36.3923 59.1915 36.5043 59.1915 36.6483C59.1915 36.7923 59.1888 36.9043 59.1835 36.9843C59.1728 37.3256 59.0982 37.6349 58.9595 37.9123C58.8262 38.1896 58.6288 38.4083 58.3675 38.5683C58.1115 38.7283 57.7915 38.8083 57.4075 38.8083ZM57.4075 38.3443C57.7808 38.3443 58.0848 38.2243 58.3195 37.9843C58.5542 37.7443 58.6795 37.3976 58.6955 36.9443C58.7008 36.8643 58.7035 36.7656 58.7035 36.6483C58.7035 36.5309 58.7008 36.4323 58.6955 36.3523C58.6795 35.8936 58.5542 35.5469 58.3195 35.3123C58.0848 35.0723 57.7808 34.9523 57.4075 34.9523C57.0342 34.9523 56.7302 35.0723 56.4955 35.3123C56.2608 35.5469 56.1355 35.8936 56.1195 36.3523C56.1142 36.4323 56.1115 36.5309 56.1115 36.6483C56.1115 36.7656 56.1142 36.8643 56.1195 36.9443C56.1355 37.3976 56.2608 37.7443 56.4955 37.9843C56.7302 38.2243 57.0342 38.3443 57.4075 38.3443Z" fill="white"/>
<path d="M62.8777 38.7283C62.8244 38.7283 62.7817 38.7123 62.7497 38.6803C62.7177 38.6483 62.7017 38.6056 62.7017 38.5523V35.0323H61.9897C61.9364 35.0323 61.8937 35.0163 61.8617 34.9843C61.8297 34.9523 61.8137 34.9096 61.8137 34.8563V34.7443C61.8137 34.6909 61.8297 34.6483 61.8617 34.6163C61.8937 34.5843 61.9364 34.5683 61.9897 34.5683H62.7017V34.1123C62.7017 33.8723 62.7337 33.6536 62.7977 33.4563C62.8671 33.2589 62.9871 33.1016 63.1577 32.9843C63.3337 32.8669 63.5844 32.8083 63.9097 32.8083H64.3257C64.3791 32.8083 64.4217 32.8243 64.4537 32.8563C64.4857 32.8883 64.5017 32.9309 64.5017 32.9843V33.0963C64.5017 33.1496 64.4857 33.1923 64.4537 33.2243C64.4217 33.2563 64.3791 33.2723 64.3257 33.2723H63.9097C63.6271 33.2723 63.4351 33.3496 63.3337 33.5043C63.2377 33.6536 63.1897 33.8696 63.1897 34.1523V34.5683H64.2457C64.2991 34.5683 64.3417 34.5843 64.3737 34.6163C64.4057 34.6483 64.4217 34.6909 64.4217 34.7443V34.8563C64.4217 34.9096 64.4057 34.9523 64.3737 34.9843C64.3417 35.0163 64.2991 35.0323 64.2457 35.0323H63.1897V38.5523C63.1897 38.6056 63.1737 38.6483 63.1417 38.6803C63.1097 38.7123 63.0671 38.7283 63.0137 38.7283H62.8777Z" fill="white"/>
<path d="M68.6726 38.7283C68.3952 38.7283 68.1766 38.6696 68.0166 38.5523C67.8566 38.4349 67.7446 38.2749 67.6806 38.0723C67.6166 37.8696 67.5846 37.6429 67.5846 37.3923V35.0323H66.9606C66.9072 35.0323 66.8646 35.0163 66.8326 34.9843C66.8006 34.9523 66.7846 34.9096 66.7846 34.8563V34.7443C66.7846 34.6909 66.8006 34.6483 66.8326 34.6163C66.8646 34.5843 66.9072 34.5683 66.9606 34.5683H67.5846V33.2243C67.5846 33.1709 67.6006 33.1283 67.6326 33.0963C67.6646 33.0643 67.7072 33.0483 67.7606 33.0483H67.8966C67.9499 33.0483 67.9926 33.0643 68.0246 33.0963C68.0566 33.1283 68.0726 33.1709 68.0726 33.2243V34.5683H69.0646C69.1179 34.5683 69.1606 34.5843 69.1926 34.6163C69.2246 34.6483 69.2406 34.6909 69.2406 34.7443V34.8563C69.2406 34.9096 69.2246 34.9523 69.1926 34.9843C69.1606 35.0163 69.1179 35.0323 69.0646 35.0323H68.0726V37.3603C68.0726 37.6429 68.1179 37.8643 68.2086 38.0243C68.3046 38.1843 68.4726 38.2643 68.7126 38.2643H69.1446C69.1979 38.2643 69.2406 38.2803 69.2726 38.3123C69.3046 38.3443 69.3206 38.3869 69.3206 38.4403V38.5523C69.3206 38.6056 69.3046 38.6483 69.2726 38.6803C69.2406 38.7123 69.1979 38.7283 69.1446 38.7283H68.6726Z" fill="white"/>
<path d="M73.3076 38.7283C73.2382 38.7283 73.1849 38.7123 73.1476 38.6803C73.1102 38.6483 73.0782 38.5976 73.0516 38.5283L71.9236 34.8163C71.9129 34.7843 71.9076 34.7549 71.9076 34.7283C71.9076 34.6856 71.9236 34.6483 71.9556 34.6163C71.9876 34.5843 72.0249 34.5683 72.0676 34.5683H72.2196C72.2729 34.5683 72.3129 34.5843 72.3396 34.6163C72.3716 34.6429 72.3902 34.6669 72.3956 34.6883L73.3796 38.0163L74.4276 34.7283C74.4382 34.6963 74.4596 34.6616 74.4916 34.6243C74.5236 34.5869 74.5742 34.5683 74.6436 34.5683H74.8036C74.8729 34.5683 74.9236 34.5869 74.9556 34.6243C74.9929 34.6616 75.0142 34.6963 75.0196 34.7283L76.0676 38.0163L77.0516 34.6883C77.0569 34.6669 77.0729 34.6429 77.0996 34.6163C77.1316 34.5843 77.1742 34.5683 77.2276 34.5683H77.3796C77.4222 34.5683 77.4596 34.5843 77.4916 34.6163C77.5236 34.6483 77.5396 34.6856 77.5396 34.7283C77.5396 34.7549 77.5342 34.7843 77.5236 34.8163L76.3956 38.5283C76.3742 38.5976 76.3449 38.6483 76.3076 38.6803C76.2702 38.7123 76.2142 38.7283 76.1396 38.7283H76.0036C75.9342 38.7283 75.8756 38.7123 75.8276 38.6803C75.7849 38.6483 75.7529 38.5976 75.7316 38.5283L74.7236 35.3763L73.7156 38.5283C73.6942 38.5976 73.6622 38.6483 73.6196 38.6803C73.5769 38.7123 73.5182 38.7283 73.4436 38.7283H73.3076Z" fill="white"/>
<path d="M81.6072 38.8083C81.3512 38.8083 81.1139 38.7549 80.8952 38.6483C80.6819 38.5416 80.5086 38.4003 80.3752 38.2243C80.2419 38.0429 80.1752 37.8403 80.1752 37.6163C80.1752 37.2536 80.3219 36.9629 80.6152 36.7443C80.9086 36.5256 81.2899 36.3843 81.7592 36.3203L83.0232 36.1443V35.8643C83.0232 35.5816 82.9352 35.3603 82.7592 35.2003C82.5886 35.0349 82.3139 34.9523 81.9352 34.9523C81.6579 34.9523 81.4339 35.0083 81.2632 35.1203C81.0926 35.2269 80.9752 35.3683 80.9112 35.5443C80.8846 35.6243 80.8339 35.6643 80.7592 35.6643H80.6312C80.5672 35.6643 80.5219 35.6483 80.4952 35.6163C80.4686 35.5789 80.4552 35.5363 80.4552 35.4883C80.4552 35.4136 80.4819 35.3203 80.5352 35.2083C80.5939 35.0963 80.6819 34.9869 80.7992 34.8803C80.9166 34.7683 81.0686 34.6749 81.2552 34.6003C81.4419 34.5256 81.6686 34.4883 81.9352 34.4883C82.2499 34.4883 82.5086 34.5309 82.7112 34.6163C82.9192 34.7016 83.0792 34.8136 83.1912 34.9523C83.3086 35.0856 83.3912 35.2349 83.4392 35.4003C83.4872 35.5656 83.5112 35.7283 83.5112 35.8883V38.5523C83.5112 38.6056 83.4952 38.6483 83.4632 38.6803C83.4312 38.7123 83.3886 38.7283 83.3352 38.7283H83.1992C83.1459 38.7283 83.1032 38.7123 83.0712 38.6803C83.0392 38.6483 83.0232 38.6056 83.0232 38.5523V38.1763C82.9592 38.2723 82.8686 38.3683 82.7512 38.4643C82.6339 38.5603 82.4819 38.6429 82.2952 38.7123C82.1139 38.7763 81.8846 38.8083 81.6072 38.8083ZM81.6872 38.3443C81.9326 38.3443 82.1566 38.2909 82.3592 38.1843C82.5619 38.0776 82.7219 37.9149 82.8392 37.6963C82.9619 37.4723 83.0232 37.1923 83.0232 36.8563V36.5843L81.9912 36.7283C81.5539 36.7869 81.2232 36.8883 80.9992 37.0323C80.7752 37.1763 80.6632 37.3576 80.6632 37.5763C80.6632 37.7523 80.7139 37.8963 80.8152 38.0083C80.9166 38.1203 81.0446 38.2056 81.1992 38.2643C81.3592 38.3176 81.5219 38.3443 81.6872 38.3443Z" fill="white"/>
<path d="M87.0323 38.7283C86.979 38.7283 86.9363 38.7123 86.9043 38.6803C86.8723 38.6483 86.8563 38.6056 86.8563 38.5523V34.7523C86.8563 34.6989 86.8723 34.6563 86.9043 34.6243C86.9363 34.5869 86.979 34.5683 87.0323 34.5683H87.1603C87.2136 34.5683 87.2563 34.5869 87.2883 34.6243C87.3256 34.6563 87.3443 34.6989 87.3443 34.7523V35.1203C87.4403 34.9336 87.579 34.7949 87.7603 34.7043C87.9416 34.6136 88.1656 34.5683 88.4323 34.5683H88.7283C88.7816 34.5683 88.8243 34.5843 88.8563 34.6163C88.8883 34.6483 88.9043 34.6909 88.9043 34.7443V34.8563C88.9043 34.9096 88.8883 34.9523 88.8563 34.9843C88.8243 35.0163 88.7816 35.0323 88.7283 35.0323H88.3843C88.0643 35.0323 87.811 35.1256 87.6243 35.3123C87.4376 35.4989 87.3443 35.7523 87.3443 36.0723V38.5523C87.3443 38.6056 87.3256 38.6483 87.2883 38.6803C87.2563 38.7123 87.2136 38.7283 87.1603 38.7283H87.0323Z" fill="white"/>
<path d="M93.1678 38.8083C92.6505 38.8083 92.2398 38.6403 91.9358 38.3043C91.6318 37.9629 91.4585 37.5176 91.4158 36.9683C91.4105 36.8883 91.4078 36.7816 91.4078 36.6483C91.4078 36.5149 91.4105 36.4083 91.4158 36.3283C91.4425 35.9656 91.5278 35.6456 91.6718 35.3683C91.8158 35.0909 92.0131 34.8749 92.2638 34.7203C92.5198 34.5656 92.8211 34.4883 93.1678 34.4883C93.5411 34.4883 93.8585 34.5709 94.1198 34.7363C94.3811 34.9016 94.5811 35.1389 94.7198 35.4483C94.8638 35.7576 94.9358 36.1256 94.9358 36.5523V36.6723C94.9358 36.7256 94.9171 36.7683 94.8798 36.8003C94.8478 36.8323 94.8051 36.8483 94.7518 36.8483H91.9038C91.9038 36.8483 91.9038 36.8589 91.9038 36.8803C91.9038 36.9016 91.9038 36.9176 91.9038 36.9283C91.9145 37.1683 91.9705 37.3976 92.0718 37.6163C92.1731 37.8296 92.3171 38.0056 92.5038 38.1443C92.6905 38.2776 92.9118 38.3443 93.1678 38.3443C93.3971 38.3443 93.5865 38.3096 93.7358 38.2403C93.8905 38.1709 94.0131 38.0963 94.1038 38.0163C94.1945 37.9309 94.2531 37.8669 94.2798 37.8243C94.3278 37.7549 94.3651 37.7149 94.3918 37.7043C94.4185 37.6883 94.4611 37.6803 94.5198 37.6803H94.6478C94.6958 37.6803 94.7358 37.6963 94.7678 37.7283C94.8051 37.7549 94.8211 37.7923 94.8158 37.8403C94.8105 37.9149 94.7678 38.0083 94.6878 38.1203C94.6131 38.2269 94.5038 38.3336 94.3598 38.4403C94.2211 38.5469 94.0505 38.6349 93.8478 38.7043C93.6451 38.7736 93.4185 38.8083 93.1678 38.8083ZM91.9038 36.4003H94.4478V36.3683C94.4478 36.1016 94.3971 35.8616 94.2958 35.6483C94.1945 35.4349 94.0478 35.2669 93.8558 35.1443C93.6638 35.0163 93.4345 34.9523 93.1678 34.9523C92.9011 34.9523 92.6718 35.0163 92.4798 35.1443C92.2931 35.2669 92.1491 35.4349 92.0478 35.6483C91.9518 35.8616 91.9038 36.1016 91.9038 36.3683V36.4003Z" fill="white"/>
<path d="M104.213 38.8083C103.728 38.8083 103.331 38.7149 103.021 38.5283C102.717 38.3363 102.491 38.0776 102.341 37.7523C102.192 37.4269 102.109 37.0563 102.093 36.6403C102.088 36.4216 102.085 36.1869 102.085 35.9363C102.085 35.6856 102.088 35.4456 102.093 35.2163C102.109 34.8003 102.192 34.4296 102.341 34.1043C102.491 33.7736 102.717 33.5149 103.021 33.3283C103.331 33.1416 103.728 33.0483 104.213 33.0483C104.592 33.0483 104.915 33.1016 105.181 33.2083C105.448 33.3149 105.664 33.4563 105.829 33.6323C106 33.8029 106.125 33.9896 106.205 34.1923C106.291 34.3896 106.339 34.5843 106.349 34.7763C106.355 34.8243 106.339 34.8643 106.301 34.8963C106.269 34.9229 106.229 34.9363 106.181 34.9363H106.021C105.979 34.9363 105.941 34.9256 105.909 34.9043C105.877 34.8776 105.856 34.8323 105.845 34.7683C105.744 34.2936 105.552 33.9683 105.269 33.7923C104.992 33.6163 104.64 33.5283 104.213 33.5283C103.728 33.5283 103.341 33.6669 103.053 33.9443C102.771 34.2163 102.619 34.6536 102.597 35.2563C102.581 35.6936 102.581 36.1416 102.597 36.6003C102.619 37.2029 102.771 37.6429 103.053 37.9203C103.341 38.1923 103.728 38.3283 104.213 38.3283C104.64 38.3283 104.992 38.2403 105.269 38.0643C105.552 37.8883 105.744 37.5629 105.845 37.0883C105.856 37.0243 105.877 36.9816 105.909 36.9603C105.941 36.9336 105.979 36.9203 106.021 36.9203H106.181C106.229 36.9203 106.269 36.9363 106.301 36.9683C106.339 36.9949 106.355 37.0323 106.349 37.0803C106.339 37.2723 106.291 37.4696 106.205 37.6723C106.125 37.8696 106 38.0563 105.829 38.2323C105.664 38.4029 105.448 38.5416 105.181 38.6483C104.915 38.7549 104.592 38.8083 104.213 38.8083Z" fill="white"/>
<path d="M111.088 38.8083C110.704 38.8083 110.382 38.7283 110.12 38.5683C109.864 38.4083 109.667 38.1896 109.528 37.9123C109.395 37.6349 109.323 37.3256 109.312 36.9843C109.307 36.9043 109.304 36.7923 109.304 36.6483C109.304 36.5043 109.307 36.3923 109.312 36.3123C109.323 35.9656 109.395 35.6563 109.528 35.3843C109.667 35.1069 109.864 34.8883 110.12 34.7283C110.382 34.5683 110.704 34.4883 111.088 34.4883C111.472 34.4883 111.792 34.5683 112.048 34.7283C112.31 34.8883 112.507 35.1069 112.64 35.3843C112.779 35.6563 112.854 35.9656 112.864 36.3123C112.87 36.3923 112.872 36.5043 112.872 36.6483C112.872 36.7923 112.87 36.9043 112.864 36.9843C112.854 37.3256 112.779 37.6349 112.64 37.9123C112.507 38.1896 112.31 38.4083 112.048 38.5683C111.792 38.7283 111.472 38.8083 111.088 38.8083ZM111.088 38.3443C111.462 38.3443 111.766 38.2243 112 37.9843C112.235 37.7443 112.36 37.3976 112.376 36.9443C112.382 36.8643 112.384 36.7656 112.384 36.6483C112.384 36.5309 112.382 36.4323 112.376 36.3523C112.36 35.8936 112.235 35.5469 112 35.3123C111.766 35.0723 111.462 34.9523 111.088 34.9523C110.715 34.9523 110.411 35.0723 110.176 35.3123C109.942 35.5469 109.816 35.8936 109.8 36.3523C109.795 36.4323 109.792 36.5309 109.792 36.6483C109.792 36.7656 109.795 36.8643 109.8 36.9443C109.816 37.3976 109.942 37.7443 110.176 37.9843C110.411 38.2243 110.715 38.3443 111.088 38.3443Z" fill="white"/>
<path d="M116.221 38.7283C116.168 38.7283 116.125 38.7123 116.093 38.6803C116.061 38.6483 116.045 38.6056 116.045 38.5523V34.7443C116.045 34.6909 116.061 34.6483 116.093 34.6163C116.125 34.5843 116.168 34.5683 116.221 34.5683H116.357C116.411 34.5683 116.453 34.5843 116.485 34.6163C116.517 34.6483 116.533 34.6909 116.533 34.7443V35.0243C116.667 34.8536 116.824 34.7229 117.005 34.6323C117.192 34.5363 117.416 34.4883 117.677 34.4883C118.275 34.4883 118.701 34.7389 118.957 35.2403C119.08 35.0109 119.259 34.8296 119.493 34.6963C119.733 34.5576 120.008 34.4883 120.317 34.4883C120.6 34.4883 120.853 34.5549 121.077 34.6883C121.307 34.8163 121.485 35.0083 121.613 35.2643C121.747 35.5203 121.813 35.8403 121.813 36.2243V38.5523C121.813 38.6056 121.797 38.6483 121.765 38.6803C121.733 38.7123 121.691 38.7283 121.637 38.7283H121.501C121.448 38.7283 121.405 38.7123 121.373 38.6803C121.341 38.6483 121.325 38.6056 121.325 38.5523V36.3043C121.325 35.9523 121.275 35.6803 121.173 35.4883C121.072 35.2909 120.939 35.1523 120.773 35.0723C120.608 34.9923 120.429 34.9523 120.237 34.9523C120.077 34.9523 119.915 34.9923 119.749 35.0723C119.584 35.1523 119.445 35.2909 119.333 35.4883C119.227 35.6803 119.173 35.9523 119.173 36.3043V38.5523C119.173 38.6056 119.157 38.6483 119.125 38.6803C119.093 38.7123 119.051 38.7283 118.997 38.7283H118.861C118.808 38.7283 118.765 38.7123 118.733 38.6803C118.701 38.6483 118.685 38.6056 118.685 38.5523V36.3043C118.685 35.9523 118.632 35.6803 118.525 35.4883C118.419 35.2909 118.283 35.1523 118.117 35.0723C117.952 34.9923 117.779 34.9523 117.597 34.9523C117.437 34.9523 117.275 34.9923 117.109 35.0723C116.944 35.1523 116.805 35.2909 116.693 35.4883C116.587 35.6803 116.533 35.9496 116.533 36.2963V38.5523C116.533 38.6056 116.517 38.6483 116.485 38.6803C116.453 38.7123 116.411 38.7283 116.357 38.7283H116.221Z" fill="white"/>
<path d="M125.333 40.2483C125.279 40.2483 125.237 40.2323 125.205 40.2003C125.173 40.1683 125.157 40.1256 125.157 40.0723V34.7443C125.157 34.6909 125.173 34.6483 125.205 34.6163C125.237 34.5843 125.279 34.5683 125.333 34.5683H125.469C125.522 34.5683 125.565 34.5843 125.597 34.6163C125.629 34.6483 125.645 34.6909 125.645 34.7443V35.1203C125.778 34.9389 125.951 34.7896 126.165 34.6723C126.383 34.5496 126.658 34.4883 126.989 34.4883C127.303 34.4883 127.567 34.5443 127.781 34.6563C127.994 34.7629 128.167 34.9069 128.301 35.0883C128.434 35.2696 128.533 35.4723 128.597 35.6963C128.661 35.9203 128.695 36.1496 128.701 36.3843C128.706 36.4643 128.709 36.5523 128.709 36.6483C128.709 36.7443 128.706 36.8323 128.701 36.9123C128.695 37.1469 128.661 37.3763 128.597 37.6003C128.533 37.8243 128.434 38.0269 128.301 38.2083C128.167 38.3896 127.994 38.5363 127.781 38.6483C127.567 38.7549 127.303 38.8083 126.989 38.8083C126.658 38.8083 126.383 38.7469 126.165 38.6243C125.951 38.5016 125.778 38.3523 125.645 38.1763V40.0723C125.645 40.1256 125.629 40.1683 125.597 40.2003C125.565 40.2323 125.522 40.2483 125.469 40.2483H125.333ZM126.941 38.3443C127.255 38.3443 127.503 38.2749 127.685 38.1363C127.866 37.9976 127.997 37.8163 128.077 37.5923C128.157 37.3683 128.202 37.1283 128.213 36.8723C128.218 36.7229 128.218 36.5736 128.213 36.4243C128.202 36.1683 128.157 35.9283 128.077 35.7043C127.997 35.4803 127.866 35.2989 127.685 35.1603C127.503 35.0216 127.255 34.9523 126.941 34.9523C126.637 34.9523 126.391 35.0243 126.205 35.1683C126.018 35.3123 125.879 35.4936 125.789 35.7123C125.703 35.9256 125.655 36.1416 125.645 36.3603C125.639 36.4403 125.637 36.5443 125.637 36.6723C125.637 36.8003 125.639 36.9043 125.645 36.9843C125.65 37.1976 125.698 37.4083 125.789 37.6163C125.885 37.8243 126.026 37.9976 126.213 38.1363C126.405 38.2749 126.647 38.3443 126.941 38.3443Z" fill="white"/>
<path d="M132.997 38.8083C132.741 38.8083 132.504 38.7549 132.285 38.6483C132.072 38.5416 131.899 38.4003 131.765 38.2243C131.632 38.0429 131.565 37.8403 131.565 37.6163C131.565 37.2536 131.712 36.9629 132.005 36.7443C132.299 36.5256 132.68 36.3843 133.149 36.3203L134.413 36.1443V35.8643C134.413 35.5816 134.325 35.3603 134.149 35.2003C133.979 35.0349 133.704 34.9523 133.325 34.9523C133.048 34.9523 132.824 35.0083 132.653 35.1203C132.483 35.2269 132.365 35.3683 132.301 35.5443C132.275 35.6243 132.224 35.6643 132.149 35.6643H132.021C131.957 35.6643 131.912 35.6483 131.885 35.6163C131.859 35.5789 131.845 35.5363 131.845 35.4883C131.845 35.4136 131.872 35.3203 131.925 35.2083C131.984 35.0963 132.072 34.9869 132.189 34.8803C132.307 34.7683 132.459 34.6749 132.645 34.6003C132.832 34.5256 133.059 34.4883 133.325 34.4883C133.64 34.4883 133.899 34.5309 134.101 34.6163C134.309 34.7016 134.469 34.8136 134.581 34.9523C134.699 35.0856 134.781 35.2349 134.829 35.4003C134.877 35.5656 134.901 35.7283 134.901 35.8883V38.5523C134.901 38.6056 134.885 38.6483 134.853 38.6803C134.821 38.7123 134.779 38.7283 134.725 38.7283H134.589C134.536 38.7283 134.493 38.7123 134.461 38.6803C134.429 38.6483 134.413 38.6056 134.413 38.5523V38.1763C134.349 38.2723 134.259 38.3683 134.141 38.4643C134.024 38.5603 133.872 38.6429 133.685 38.7123C133.504 38.7763 133.275 38.8083 132.997 38.8083ZM133.077 38.3443C133.323 38.3443 133.547 38.2909 133.749 38.1843C133.952 38.0776 134.112 37.9149 134.229 37.6963C134.352 37.4723 134.413 37.1923 134.413 36.8563V36.5843L133.381 36.7283C132.944 36.7869 132.613 36.8883 132.389 37.0323C132.165 37.1763 132.053 37.3576 132.053 37.5763C132.053 37.7523 132.104 37.8963 132.205 38.0083C132.307 38.1203 132.435 38.2056 132.589 38.2643C132.749 38.3176 132.912 38.3443 133.077 38.3443Z" fill="white"/>
<path d="M138.422 38.7283C138.369 38.7283 138.326 38.7123 138.294 38.6803C138.262 38.6483 138.246 38.6056 138.246 38.5523V34.7443C138.246 34.6909 138.262 34.6483 138.294 34.6163C138.326 34.5843 138.369 34.5683 138.422 34.5683H138.558C138.612 34.5683 138.654 34.5843 138.686 34.6163C138.718 34.6483 138.734 34.6909 138.734 34.7443V35.1203C138.878 34.9336 139.052 34.7816 139.254 34.6643C139.462 34.5469 139.737 34.4883 140.078 34.4883C140.441 34.4883 140.742 34.5683 140.982 34.7283C141.228 34.8829 141.409 35.0963 141.526 35.3683C141.649 35.6349 141.71 35.9389 141.71 36.2803V38.5523C141.71 38.6056 141.694 38.6483 141.662 38.6803C141.63 38.7123 141.588 38.7283 141.534 38.7283H141.398C141.345 38.7283 141.302 38.7123 141.27 38.6803C141.238 38.6483 141.222 38.6056 141.222 38.5523V36.3203C141.222 35.8936 141.118 35.5603 140.91 35.3203C140.702 35.0749 140.398 34.9523 139.998 34.9523C139.62 34.9523 139.313 35.0749 139.078 35.3203C138.849 35.5603 138.734 35.8936 138.734 36.3203V38.5523C138.734 38.6056 138.718 38.6483 138.686 38.6803C138.654 38.7123 138.612 38.7283 138.558 38.7283H138.422Z" fill="white"/>
<path d="M145.632 40.2483C145.589 40.2483 145.552 40.2323 145.52 40.2003C145.488 40.1683 145.472 40.1309 145.472 40.0883C145.472 40.0669 145.475 40.0429 145.48 40.0163C145.491 39.9949 145.504 39.9656 145.52 39.9283L146.136 38.4883L144.608 34.8883C144.576 34.8083 144.56 34.7549 144.56 34.7283C144.56 34.6856 144.576 34.6483 144.608 34.6163C144.64 34.5843 144.677 34.5683 144.72 34.5683H144.888C144.941 34.5683 144.981 34.5816 145.008 34.6083C145.04 34.6296 145.061 34.6563 145.072 34.6883L146.416 37.8563L147.792 34.6883C147.808 34.6563 147.829 34.6296 147.856 34.6083C147.883 34.5816 147.923 34.5683 147.976 34.5683H148.136C148.179 34.5683 148.216 34.5843 148.248 34.6163C148.28 34.6483 148.296 34.6856 148.296 34.7283C148.296 34.7549 148.28 34.8083 148.248 34.8883L145.976 40.1283C145.96 40.1603 145.939 40.1869 145.912 40.2083C145.885 40.2349 145.845 40.2483 145.792 40.2483H145.632Z" fill="white"/>
</svg>
