<svg width="1920" height="784" viewBox="0 0 1920 784" fill="none" xmlns="http://www.w3.org/2000/svg">
<path d="M0.0478516 53.3797C41.7599 76.3463 69.5999 100.959 68.9279 128.942C68.2079 157.435 37.9199 189.22 0.0478516 223.16V221.553C37.2479 188.083 66.9599 156.808 67.5359 128.903C68.2079 101.508 41.0399 77.3261 0.0478516 54.673V53.3797ZM0.0478516 563.544C15.0239 568.992 30.1919 574.204 44.8799 579.339C113.52 603.089 172.944 623.665 164.784 646.044C157.344 666.58 92.2079 688.175 0.0478516 710.319V709.221C91.5839 687.235 156.24 665.875 163.536 645.769C171.312 624.292 112.416 603.912 44.3519 580.358C29.8559 575.302 14.8799 570.128 0.0478516 564.759V563.544H0.0478516Z" fill="#111E10"/>
<path d="M0.048 7.21136C68.4 47.8928 123.12 89.123 116.304 133.253C110.64 170.212 61.728 208.973 9.792 250.085C6.528 252.672 3.312 255.259 0.048 257.845V256.317C2.976 253.965 5.952 251.614 8.88 249.341C60.576 208.346 109.344 169.702 115.008 133.136C121.68 89.75 67.68 48.8726 0.048 8.58309V7.21136ZM0.048 549.474C25.2 559.664 51.984 569.344 77.664 578.594C146.544 603.363 207.36 625.272 206.976 647.65C209.904 658.467 200.64 668.501 180.816 679.239C161.232 689.9 131.328 701.226 92.832 714.473C65.616 723.84 34.176 734.226 0 745.2V744.024C34.032 733.089 65.328 722.782 92.304 713.454C130.704 700.168 160.56 688.881 180.048 678.338C199.392 667.834 208.464 658.036 205.68 647.768L205.584 647.65C206.112 625.938 145.584 604.147 77.088 579.495C51.6 570.285 25.008 560.722 0 550.611V549.474H0.048Z" fill="#111E10"/>
<path d="M80.1119 0.117584C134.544 46.9522 175.968 93.2382 163.728 137.565C153.168 176.012 102.192 212.813 48.4319 251.574C32.1599 263.254 15.6959 275.09 0.0478516 287.239V285.75C15.4559 273.836 31.6319 262.156 47.5199 250.712C101.136 212.147 151.92 175.463 162.432 137.329C174.576 93.2382 132.864 46.9522 78.1918 0.117584H80.1119ZM0.0478516 533.641C34.1278 549.631 74.0639 564.446 111.84 578.516C180.624 604.069 242.4 627.035 249.12 649.375C258.576 661.093 256.368 671.362 242.832 682.767C229.536 694.015 205.056 706.4 169.824 722.586C132.864 739.635 83.9519 760.798 29.4719 784H26.5919C81.9838 760.485 131.76 738.89 169.248 721.645C204.336 705.537 228.72 693.113 241.968 682.022C254.976 670.97 257.088 661.172 248.016 649.884L247.92 649.689C241.488 627.819 179.904 605.009 111.312 579.495C73.7279 565.504 33.9838 550.728 0.0478516 534.934V533.641H0.0478516Z" fill="#111E10"/>
<path d="M162.72 0.117584C201.504 50.4795 227.808 99.117 211.152 141.876C195.504 181.93 142.368 216.693 86.6398 252.985C58.6078 271.327 29.9039 290.061 5.13585 310.128C3.45585 311.499 1.72785 312.91 0.0478516 314.282V312.753C1.39185 311.656 2.78385 310.48 4.22385 309.344C29.0399 289.277 57.8399 270.543 85.8718 252.202C141.408 215.988 194.4 181.342 209.904 141.601C226.464 99.0386 199.968 50.4795 161.184 0.117584H162.72ZM0.0478516 515.416C40.5119 538.187 95.8078 559.351 147.6 579.103C215.952 605.205 278.064 628.917 291.312 651.06C307.104 663.719 312.048 674.027 304.848 686.059C297.84 697.973 278.832 711.495 246.864 730.62C222.048 745.435 189.504 763.62 152.064 783.961H149.664C187.776 763.267 220.944 744.769 246.096 729.719C277.824 710.711 296.688 697.307 303.696 685.667C310.512 674.066 305.76 664.111 290.256 651.766L290.16 651.648C277.248 629.857 215.232 606.146 146.976 580.122C95.5199 560.487 40.5119 539.441 0.0478516 516.709V515.416Z" fill="#111E10"/>
<path d="M239.52 0.117584C265.056 53.7325 279.264 104.486 258.576 146.226C237.84 187.966 182.4 220.534 124.8 254.436C96.48 271.014 67.776 287.906 42.288 306.365C31.536 314.125 21.36 322.238 11.952 330.547C7.776 334.27 3.792 338.032 0 341.795V340.07C3.456 336.622 7.2 333.212 10.944 329.841C20.304 321.493 30.576 313.42 41.424 305.542C66.912 287.083 95.712 270.191 123.888 253.573C181.392 219.75 236.688 187.221 257.232 145.795C277.872 104.33 263.664 53.6933 238.032 0.117584H239.52V0.117584ZM0.048 493.273L0.672 493.704C42.192 524.822 116.64 553.864 185.136 580.593C252.624 606.93 314.4 631.072 333.456 652.824C355.68 666.384 367.632 676.77 366.864 689.429C366.096 701.971 352.56 716.59 323.952 738.694C307.248 751.471 285.408 766.834 259.92 784H257.808C283.824 766.52 306.096 750.922 323.04 737.91C351.456 716.08 364.752 701.618 365.52 689.39C366.288 677.241 354.48 667.051 332.544 653.647L332.448 653.529C313.632 631.974 251.952 607.91 184.512 581.612C116.064 554.843 41.76 525.841 0.048 494.762V493.273Z" fill="#111E10"/>
<path d="M312.24 0.117584C315.36 12.6591 318 24.9262 319.968 36.919C326.832 79.4817 325.008 118.478 305.952 150.537C280.032 193.923 222.288 224.297 162.576 255.69C134.304 270.583 105.6 285.672 79.5839 302.524C64.9919 311.97 51.3119 321.885 39.1199 332.271C23.0399 346.067 9.50385 360.45 0.0478516 375.304V372.953C9.50385 358.647 22.6559 344.734 38.1599 331.526C50.3999 321.141 64.1759 311.147 78.7679 301.701C104.832 284.809 133.584 269.681 161.904 254.788C221.472 223.435 278.976 193.139 304.752 149.988C323.712 118.204 325.44 79.3641 318.672 37.0366C316.704 25.0046 314.064 12.6591 310.896 0.117584H312.24ZM0.0478516 461.605C2.97585 465.603 6.33585 469.64 10.2719 473.637C14.6399 478.223 19.7279 482.691 25.5359 487.198C68.6399 521.021 150.096 553.433 224.736 583.062C290.784 609.281 351.504 633.424 375.552 654.587C404.112 669.089 423.12 679.514 428.688 692.682C434.304 705.89 426.336 721.645 400.848 746.611C389.904 757.467 375.6 770.008 358.752 783.961H356.928C374.064 769.773 388.656 756.918 399.84 745.944C424.944 721.253 432.816 705.812 427.344 693.035C421.92 680.18 403.104 669.833 374.736 655.45L374.592 655.371C350.688 634.325 290.064 610.261 224.112 584.042C149.424 554.373 67.8718 521.961 24.5759 488.021C18.8159 483.435 13.6799 478.889 9.21585 474.304C5.80785 470.776 2.78385 467.21 0.0478516 463.682V461.605H0.0478516Z" fill="#111E10"/>
<path d="M382.176 0.117584C382.944 11.4049 383.376 22.5355 383.472 33.3917C383.616 79.9128 376.128 121.888 353.376 154.809C322.08 199.958 262.176 227.942 200.304 256.826C172.032 270.112 143.328 283.477 116.784 298.801C98.3998 309.422 81.1198 320.945 66.1438 333.173C42.0478 352.729 23.9038 374.089 16.7038 396.233C9.50384 418.376 13.3918 441.343 33.1678 464.31C38.0158 469.796 43.6798 475.283 50.3998 480.809C95.3758 517.65 185.232 553.824 266.832 586.668C330.72 612.338 389.52 636.05 417.696 656.43L427.824 660.858C442.56 667.325 455.328 673.008 465.936 678.573C500.64 696.837 510.096 713.924 477.792 754.684C470.928 763.463 462.048 773.261 451.632 784H449.904C460.656 773.026 469.728 763.032 476.736 754.136C508.416 714.081 499.104 697.425 465.168 679.435C454.752 673.948 441.888 668.266 427.2 661.838L416.976 657.331L416.832 657.253C388.8 636.951 330.048 613.318 266.16 587.647C184.512 554.804 94.5118 518.591 49.3438 481.554C42.6238 476.067 36.8638 470.502 32.0158 464.937C11.9038 441.656 8.06384 418.416 15.3118 395.919C22.5598 373.58 40.8478 352.024 65.0398 332.35C80.1598 320.122 97.4878 308.521 115.92 297.9C142.512 282.536 171.264 269.093 199.584 255.886C261.36 227.079 321.168 199.175 352.128 154.3C374.784 121.535 382.224 79.7561 382.08 33.3917C382.08 22.5355 381.648 11.4049 380.784 0.117584H382.176V0.117584Z" fill="#111E10"/>
<path d="M449.952 0.117584C444.96 62.6291 432.24 118.752 400.752 159.12C364.08 206.033 302.016 231.469 238.08 257.767C209.712 269.329 181.008 281.125 153.936 294.999C131.808 306.365 110.784 319.181 92.9282 333.016C70.0322 350.848 52.4642 370.483 44.9282 391.099C37.4402 411.635 39.7922 433.269 56.6402 455.099C61.5362 461.527 67.6802 467.954 75.2162 474.343C122.304 514.632 222.48 555.275 311.952 591.566C372.72 616.179 428.592 638.832 459.792 658.154C469.008 661.799 477.696 665.13 485.856 668.266C494.832 671.793 503.328 675.007 511.008 678.142C560.832 698.404 583.632 715.1 554.688 762.64C550.704 769.185 545.712 776.279 539.856 783.922H538.272C544.32 776.083 549.36 768.793 553.488 762.131C581.904 715.453 559.44 698.992 510.384 679.122C502.656 675.986 494.208 672.694 485.28 669.245C476.976 666.11 468.144 662.7 459.072 659.055L458.976 658.977C427.92 639.773 372.048 617.12 311.328 592.507C221.808 556.215 121.536 515.612 74.2562 475.127C66.7202 468.66 60.4802 462.154 55.4882 455.766C38.4482 433.583 36.0482 411.674 43.6802 390.785C51.3122 369.974 69.0242 350.182 92.0642 332.232C109.92 318.358 131.088 305.503 153.312 294.098C180.384 280.224 209.184 268.427 237.504 256.748C301.296 230.567 363.168 205.132 399.6 158.571C430.992 118.36 443.616 62.4723 448.656 0.117584H449.952Z" fill="#111E10"/>
<path d="M516.192 0.11747C514.368 9.01409 512.496 17.7148 510.384 26.2978C497.136 80.7357 478.272 128.629 448.176 163.431C405.984 211.99 341.952 234.839 276 258.355C247.584 268.466 218.784 278.735 191.28 291.237C165.264 303.034 140.4 316.79 119.904 332.036C97.9681 348.457 81.0721 366.525 73.1041 385.807C65.2321 405.012 66.4321 425.313 80.5921 446.163C85.4881 453.336 92.0161 460.625 100.176 467.954C149.76 512.281 262.56 558.135 361.2 598.19C417.6 621.156 469.296 642.124 502.08 659.957C516.528 665.248 530.352 669.951 543.216 674.34C615.168 698.718 658.128 713.297 631.824 770.675C629.856 774.868 627.6 779.297 624.96 783.961H623.52C626.256 779.218 628.608 774.633 630.528 770.322C656.4 713.924 613.92 699.541 542.688 675.32C529.824 670.931 516.096 666.227 501.504 660.936L501.408 660.858C468.672 643.065 416.976 622.019 360.576 599.13C261.84 558.998 148.944 513.143 99.1681 468.66C90.9121 461.252 84.4321 453.924 79.4401 446.634C65.0881 425.509 63.8881 404.894 71.9041 385.416C79.8241 366.055 96.9121 347.752 119.088 331.213C139.632 315.889 164.592 302.093 190.608 290.218C218.208 277.755 247.008 267.447 275.52 257.336C341.376 233.899 405.216 211.128 447.12 162.765C477.12 128.158 495.936 80.383 509.184 25.9843C511.248 17.5188 513.168 8.89651 514.992 0.0782776H516.192V0.11747Z" fill="#111E10"/>
<path d="M581.184 0.117538C578.784 7.76001 576.336 15.2849 573.84 22.6922C553.872 81.1277 529.296 131.999 495.552 167.664C447.936 217.987 381.984 238.053 313.92 258.786C285.408 267.408 256.56 276.266 228.432 287.474C198.72 299.271 170.016 313.772 146.88 330.312C125.712 345.44 109.248 362.292 101.088 380.321C92.9279 398.271 92.9759 417.475 104.928 437.345C109.68 445.301 116.256 453.375 125.04 461.488C177.6 510.556 306.384 562.721 415.392 606.891C465.648 627.27 511.68 645.887 544.176 661.76C563.808 668.501 582.576 674.184 599.808 679.396C678.288 703.225 728.592 718.588 708.72 778.709C708.096 780.434 707.52 782.158 706.848 783.961H705.408C706.176 782.119 706.848 780.238 707.472 778.396C727.056 719.215 677.088 704.009 599.376 680.454C582.048 675.163 563.328 669.48 543.648 662.739H543.552C511.056 646.867 465.024 628.172 414.816 607.87C305.664 563.622 176.688 511.418 124.032 462.193C115.2 454.002 108.528 445.85 103.68 437.816C91.5839 417.632 91.4879 398.114 99.8399 379.85C108.096 361.704 124.704 344.734 146.016 329.488C169.2 312.871 198.096 298.331 227.808 286.455C255.936 275.207 284.88 266.389 313.44 257.688C381.312 236.995 447.072 217.007 494.496 166.959C528.192 131.411 552.72 80.6574 572.592 22.3395C575.088 15.0498 577.488 7.60324 579.84 0.0391541H581.184V0.117538Z" fill="#111E10"/>
<path d="M645.216 0.117584C642.576 6.5451 639.936 12.8942 637.296 19.1258C610.704 81.5197 580.464 135.409 542.976 172.014C489.792 223.905 422.16 241.149 352.128 258.982C323.424 266.272 294.288 273.718 265.584 283.673C232.32 295.274 199.584 310.284 173.904 327.921C153.408 341.912 137.328 357.668 128.832 374.599C120.432 391.569 119.52 409.715 129.504 428.801C133.968 437.385 140.592 446.203 149.856 455.099C206.112 509.851 355.776 569.854 476.496 618.217C518.208 634.991 556.56 650.316 586.32 663.641C610.896 671.479 634.416 677.946 656.112 683.942C740.4 707.223 798 723.135 786.192 784H784.848C796.656 723.879 739.44 708.085 655.728 685.001C633.936 679.004 610.368 672.459 585.888 664.621L585.792 664.542C555.936 651.256 517.68 635.893 475.872 619.197C355.008 570.755 205.248 510.674 148.8 455.805C139.584 446.791 132.864 437.894 128.304 429.193C118.176 409.832 119.088 391.373 127.632 374.207C136.176 357.041 152.352 341.207 173.04 327.059C198.816 309.344 231.6 294.294 265.056 282.693C293.856 272.699 322.944 265.292 351.744 257.924C421.536 240.13 488.928 223.003 541.872 171.27C579.312 134.782 609.456 81.0886 636.048 18.7731C638.64 12.6591 641.184 6.42752 643.776 0.117584H645.216V0.117584Z" fill="#111E10"/>
<path d="M708.336 0.117584C705.84 5.29095 703.344 10.4251 700.8 15.5593C667.488 81.9508 631.584 138.74 590.352 176.286C531.696 229.784 462.528 244.128 390.624 258.982C361.584 265.017 332.208 271.092 302.88 279.91C265.968 290.923 229.296 306.248 201.024 324.825C181.056 337.954 165.264 352.729 156.576 368.759C147.888 384.749 146.16 402.033 154.368 420.297C158.544 429.507 165.168 438.991 174.72 448.633C235.632 510.478 414.192 580.632 547.776 633.189C577.488 644.907 604.992 655.724 628.56 665.405C657.792 674.34 686.016 681.434 712.08 688.136C799.92 710.358 863.568 726.466 863.28 784H861.984C862.224 727.289 798.96 711.22 711.696 689.155C685.632 682.532 657.36 675.399 628.032 666.424H627.936C604.416 656.743 576.912 645.926 547.152 634.208C413.424 581.612 234.816 511.379 173.664 449.338C164.064 439.579 157.344 430.016 153.168 420.689C144.768 402.19 146.496 384.593 155.376 368.289C164.16 352.102 180.096 337.249 200.208 324.041C228.624 305.346 265.44 289.983 302.352 278.852C331.824 270.034 361.248 263.959 390.336 257.924C462 243.109 530.928 228.804 589.344 175.542C630.384 138.152 666.24 81.4805 699.552 15.1282C701.952 10.19 704.448 5.17337 706.896 0.117584H708.336V0.117584Z" fill="#111E10"/>
<path d="M770.832 0.11747C768.624 4.07588 766.464 8.03429 764.16 11.9143C724.176 82.3426 682.512 142.071 637.68 180.597C573.504 235.584 502.896 246.989 429.216 258.864C399.888 263.606 370.128 268.427 340.032 276.148C299.76 286.377 259.056 301.819 228.144 321.336C208.656 333.604 193.152 347.556 184.128 362.763C175.152 378.008 172.704 394.547 179.424 412.066C183.216 421.825 189.696 431.858 199.536 442.244C267.168 513.731 489.504 598.268 635.088 653.686C647.04 658.193 658.464 662.583 670.608 667.207C704.544 677.162 737.424 684.844 767.904 691.937C859.056 713.376 928.224 729.601 938.304 783.961H936.96C926.832 730.385 858.096 714.277 767.568 692.996C737.088 685.902 704.208 678.103 670.224 668.226L670.128 668.148C659.904 664.268 647.52 659.565 634.608 654.627C488.88 599.13 266.352 514.515 198.528 442.871C188.64 432.368 182.064 422.178 178.272 412.38C171.408 394.469 173.904 377.695 182.976 362.253C192.048 346.811 207.792 332.82 227.424 320.396C258.432 300.839 299.232 285.358 339.696 275.05C369.792 267.33 399.648 262.509 429.024 257.767C502.512 245.931 572.928 234.565 636.768 179.735C681.504 141.405 723.072 81.7156 763.008 11.444C765.216 7.68156 767.328 3.91911 769.44 0.0782776H770.832V0.11747Z" fill="#111E10"/>
<path d="M832.848 0.117584C831.12 2.90023 829.44 5.60449 827.712 8.30875C781.008 82.7347 733.68 145.442 685.152 184.83C615.552 241.385 543.552 249.811 468.192 258.629C438.384 262.156 408.096 265.684 377.232 272.268C333.6 281.596 288.864 297.037 255.456 317.182C236.352 328.861 220.896 342.069 211.68 356.57C202.464 371.071 199.344 386.944 204.816 403.914C208.128 414.144 214.512 424.765 224.448 435.778C260.592 475.519 343.872 519.884 437.616 561.271C531.264 602.697 635.376 641.145 712.848 669.049C751.392 679.866 788.88 688.058 823.68 695.661C917.952 716.354 992.016 732.619 1011.46 784H1010.02C990.528 733.442 916.896 717.295 823.296 696.719C788.544 689.116 750.96 680.925 712.416 670.068C634.848 642.164 530.784 603.716 436.944 562.29C343.152 520.825 259.68 476.381 223.392 436.444C213.264 425.353 206.832 414.614 203.52 404.228C198 387.023 201.12 370.915 210.48 356.139C219.84 341.442 235.344 328.117 254.688 316.398C288.192 296.097 333.168 280.655 376.896 271.288C407.808 264.665 438.144 261.098 467.904 257.649C543.12 248.831 614.832 240.366 684.192 184.086C732.576 144.815 779.808 82.186 826.464 7.87763C828.144 5.33014 829.728 2.74346 831.312 0.156776H832.848V0.117584Z" fill="#111E10"/>
<path d="M894.288 0.117584C893.232 1.64608 892.176 3.21376 891.168 4.74226C837.744 83.1266 784.752 148.813 732.48 189.102C657.504 247.067 584.256 252.633 507.168 258.433C476.928 260.667 446.16 263.019 414.432 268.545C367.632 276.736 318.72 291.982 282.816 312.871C263.904 323.845 248.592 336.465 239.136 350.378C229.68 364.252 225.984 379.576 230.304 395.998C233.088 406.619 239.232 417.788 249.36 429.311C279.216 463.565 343.632 501.581 420.72 538.383C527.088 589.254 657.696 637.735 755.136 670.852C798.048 682.532 840.192 691.232 879.168 699.227C976.32 719.294 1054.75 735.441 1082.74 783.961H1081.25C1053.22 736.264 975.264 720.156 878.88 700.286C839.808 692.251 797.712 683.551 754.704 671.91L754.608 671.832C657.168 638.754 526.56 590.234 420.048 539.363C342.816 502.444 278.304 464.388 248.304 429.977C238.032 418.259 231.84 406.971 229.008 396.154C224.64 379.498 228.336 364.017 237.936 349.868C247.536 335.72 263.04 323.1 282.096 311.97C318.144 291.002 367.2 275.678 414.24 267.487C445.968 261.921 476.832 259.57 507.12 257.297C583.92 251.496 656.928 246.009 731.616 188.358C783.696 148.107 836.592 82.4995 889.968 4.19357C890.88 2.82184 891.84 1.48931 892.752 0.117584H894.288V0.117584Z" fill="#111E10"/>
<path d="M955.344 0.117584L954.576 1.17577C894.48 83.5185 835.824 152.144 779.952 193.453C699.504 252.75 625.056 255.376 546.384 258.08C515.616 259.178 484.272 260.236 451.68 264.743C401.664 271.641 348.768 286.612 310.368 308.09C291.552 318.593 276.288 330.625 266.544 344.029C256.8 357.433 252.576 372.169 255.888 388.159C258.144 399.133 264.048 410.812 274.272 422.923C304.608 459.097 372.768 499.778 454.992 539.088C562.8 590.508 694.704 639.577 797.328 672.655C844.704 685.197 891.36 694.25 934.656 702.715C1034.11 722.155 1116.53 738.263 1152.29 784H1150.7C1114.9 739.086 1033.1 723.095 934.368 703.774C890.976 695.308 844.32 686.176 796.848 673.713H796.752C694.128 640.518 562.128 591.449 454.272 539.99C371.856 500.602 303.552 459.802 273.072 423.511C262.8 411.243 256.8 399.486 254.544 388.316C251.136 372.09 255.456 357.08 265.344 343.441C275.184 329.92 290.592 317.77 309.552 307.149C348.096 285.593 401.232 270.544 451.44 263.646C484.08 259.139 515.52 258.041 546.288 256.983C624.768 254.279 698.976 251.692 779.04 192.63C834.768 151.478 893.424 82.8914 953.424 0.627082L953.808 0.117584H955.344V0.117584Z" fill="#111E10"/>
<path d="M1016.06 0.117584C950.016 85.2822 886.272 155.946 827.376 197.685C741.6 258.433 666 258.12 585.696 257.728C554.4 257.61 522.432 257.492 488.88 260.941C435.84 266.428 378.768 281.008 337.872 303.034C319.2 313.028 303.84 324.629 293.808 337.601C283.824 350.574 279.072 364.879 281.472 380.36C283.296 391.765 288.864 403.797 299.088 416.456C329.712 454.394 401.424 497.74 488.736 539.48C598.032 591.645 731.616 641.184 839.472 674.458C891.264 687.744 942.336 697.229 990.048 706.047C1091.57 724.937 1177.3 740.928 1220.16 783.922H1218.43C1175.57 741.633 1090.46 725.839 989.76 707.066C942.048 698.248 890.88 688.685 839.04 675.399C731.184 642.203 597.456 592.585 488.064 540.342C400.608 498.564 328.704 455.099 297.936 417.044C287.664 404.189 282 392.039 280.176 380.517C277.68 364.722 282.528 350.143 292.704 337.013C302.832 323.923 318.24 312.205 337.056 302.093C378.192 279.989 435.408 265.37 488.688 259.883C522.336 256.356 554.4 256.474 585.648 256.591C665.712 256.944 741.072 257.257 826.416 196.862C885.168 155.279 948.576 84.9686 1014.43 0.117584H1016.06V0.117584Z" fill="#111E10"/>
<path d="M1076.54 0.11747C1004.88 87.712 936.528 159.865 874.8 201.957C783.696 264.037 706.992 260.824 625.2 257.375C593.28 256.081 560.64 254.71 526.08 257.179C470.016 261.137 408.912 275.246 365.472 297.664C346.8 307.345 331.44 318.515 321.12 331.134C310.848 343.676 305.616 357.628 307.296 372.796C308.496 384.475 313.776 396.938 324 410.067C354.768 449.769 429.888 495.663 522.192 539.754C633.072 592.703 768.672 642.947 881.712 676.261C937.824 690.291 993.456 700.129 1045.34 709.417C1148.54 727.759 1237.2 743.475 1286.4 783.961H1284.53C1235.38 744.259 1147.39 728.661 1045.06 710.436C993.12 701.226 937.488 691.31 881.232 677.28C768.144 643.888 632.448 593.644 521.52 540.617C429.072 496.486 353.76 450.435 322.848 410.577C312.576 397.291 307.2 384.671 305.904 372.796C304.224 357.354 309.552 343.166 320.016 330.468C330.384 317.77 345.936 306.443 364.752 296.763C408.384 274.188 469.68 260.04 525.984 256.042C560.592 253.573 593.28 254.945 625.152 256.277C706.704 259.687 783.216 262.901 873.936 201.095C935.376 159.12 1003.49 87.2808 1074.86 0.0782776H1076.54V0.11747Z" fill="#111E10"/>
<path d="M1136.64 0.11747C1059.6 90.0243 986.736 163.745 922.176 206.268C825.888 269.642 747.936 263.528 664.656 257.061C632.208 254.514 598.896 251.927 563.376 253.338C504.336 255.729 439.2 269.25 393.216 292.099C374.448 301.427 358.992 312.205 348.384 324.511C337.824 336.739 332.064 350.299 332.976 365.232C333.744 377.185 338.736 389.962 348.864 403.601C379.728 444.948 458.016 493.39 555.168 539.754C667.776 593.565 805.728 644.476 923.904 678.024C984.288 692.839 1044.38 703.068 1100.64 712.631C1205.09 730.463 1296.19 745.944 1351.06 783.921H1348.94C1294.13 746.767 1203.79 731.326 1100.3 713.689C1044.05 704.126 983.904 693.858 923.52 679.082H923.424C805.2 645.495 667.248 594.584 554.448 540.695C457.152 494.291 378.624 445.732 347.712 404.189C337.44 390.432 332.448 377.42 331.68 365.31C330.768 350.143 336.528 336.308 347.232 323.884C357.984 311.46 373.632 300.565 392.448 291.158C438.624 268.27 504.096 254.631 563.28 252.28C598.896 250.791 632.304 253.377 664.8 255.925C747.792 262.47 825.408 268.505 921.36 205.367C985.68 163.039 1058.26 89.6324 1135.06 0.0782776H1136.64V0.11747Z" fill="#111E10"/>
<path d="M1196.59 0.117584C1114.18 92.3367 1036.94 167.625 969.6 210.501C868.08 275.168 789.072 266.311 704.256 256.748C671.136 252.985 637.152 249.145 600.528 249.576C538.704 250.242 469.44 263.136 420.912 286.377C402.096 295.391 386.448 305.895 375.504 317.848C364.608 329.763 358.512 343.088 358.8 357.785C358.944 370.013 363.648 383.143 373.68 397.173C404.496 440.206 485.856 491.156 587.664 539.754C702.24 594.428 842.64 646.083 966 679.906C1030.7 695.387 1095.26 706.008 1155.74 715.884C1261.06 733.168 1354.03 748.492 1414.03 783.961H1411.68C1351.87 749.197 1259.76 734.108 1155.5 716.981C1094.98 707.027 1030.32 696.445 965.616 680.925H965.52C842.16 647.102 701.616 595.368 586.944 540.617C484.992 491.979 403.392 440.833 372.48 397.683C362.256 383.495 357.6 370.17 357.36 357.746C357.216 342.892 363.408 329.332 374.448 317.182C385.488 305.15 401.28 294.529 420.24 285.476C468.912 262.196 538.464 249.262 600.528 248.518C637.2 248.086 671.28 251.966 704.4 255.69C788.928 265.253 867.696 274.149 968.736 209.717C1035.89 166.959 1112.83 91.9448 1194.91 0.117584H1196.59Z" fill="#111E10"/>
<path d="M1256.3 0.117584C1168.7 94.6883 1087.15 171.505 1016.98 214.773C910.224 280.812 830.112 269.015 743.856 256.434C710.064 251.418 675.36 246.362 637.824 245.774C573.12 244.716 499.872 256.944 448.752 280.459C429.84 289.16 413.904 299.428 402.72 311.147C391.536 322.826 384.96 335.955 384.576 350.417C384.288 362.88 388.56 376.402 398.544 390.785C429.216 435.347 513.504 488.805 619.968 539.598C736.512 595.251 879.6 647.65 1008.19 681.748C1077.12 697.973 1146.14 708.908 1210.94 719.137C1316.64 735.911 1411.01 750.843 1475.52 784H1472.93C1408.66 751.588 1315.25 736.774 1210.7 720.234C1145.86 709.927 1076.83 698.992 1007.81 682.767C879.168 648.709 735.888 596.191 619.296 540.499C512.736 489.628 428.256 436.013 397.44 391.334C387.408 376.715 382.992 363.076 383.328 350.417C383.616 335.72 390.336 322.316 401.712 310.48C413.04 298.684 429.072 288.337 448.224 279.479C499.488 255.964 573.024 243.697 637.872 244.716C675.6 245.265 710.352 250.399 744.144 255.337C830.112 267.996 909.936 279.636 1016.26 213.911C1086.05 170.76 1167.31 94.2964 1254.62 0.117584H1256.3Z" fill="#111E10"/>
<path d="M1315.87 0.117584C1223.14 96.9614 1137.26 175.346 1064.45 219.084C952.416 286.377 871.248 271.798 783.552 256.121C749.088 249.968 713.712 243.579 675.024 241.972C607.68 239.151 530.352 250.595 476.736 274.306C457.536 282.771 441.456 292.805 429.888 304.288C418.32 315.771 411.36 328.744 410.448 343.049C409.68 355.708 413.616 369.465 423.456 384.279C453.984 430.33 541.008 486.257 651.984 539.206C770.64 595.878 916.704 649.14 1050.43 683.511C1123.58 700.403 1197.07 711.651 1266.1 722.272C1371.79 738.459 1467.07 753.077 1535.33 783.922H1532.54C1464.58 753.822 1370.26 739.36 1265.86 723.331C1196.78 712.71 1123.3 701.461 1050.05 684.569V684.491C916.176 650.12 770.064 596.779 651.408 540.146C540.192 487.08 452.976 431.035 422.304 384.789C412.416 369.856 408.384 355.826 409.248 343.01C410.16 328.43 417.264 315.301 428.88 303.622C440.592 292.021 456.864 281.909 476.208 273.326C530.016 249.576 607.584 238.014 675.168 240.875C713.952 242.56 749.472 248.909 783.936 255.063C871.296 270.661 952.224 285.201 1063.68 218.144C1136.16 174.601 1221.65 96.5695 1314.19 0.117584H1315.87Z" fill="#111E10"/>
<path d="M1375.2 0.117584C1277.38 99.2346 1187.38 179.187 1111.82 223.356C994.656 291.942 912.336 274.58 823.2 255.807C788.112 248.478 752.016 240.797 712.176 238.171C642.192 233.468 560.928 244.167 504.768 268.114C485.328 276.383 468.864 286.181 457.008 297.547C445.152 308.834 437.712 321.611 436.272 335.798C434.976 348.693 438.624 362.723 448.272 377.891C478.56 425.431 568.224 483.67 683.712 538.775C804.528 596.465 953.472 650.629 1092.53 685.314C1169.95 702.911 1247.81 714.512 1321.1 725.447C1426.27 741.045 1522.03 755.311 1593.55 783.961H1590.43C1519.39 756.056 1424.74 741.986 1320.86 726.505C1247.47 715.57 1169.62 703.97 1092.14 686.372C953.04 651.609 803.904 597.445 683.04 539.794C567.408 484.572 477.504 426.097 447.024 378.4C437.28 363.037 433.584 348.771 434.928 335.681C436.368 321.297 443.856 308.286 455.952 296.802C467.952 285.397 484.512 275.443 504.048 267.134C560.496 243.109 642 232.449 712.32 237.152C752.16 239.817 788.352 247.381 823.536 254.788C912.336 273.483 994.368 290.767 1111.1 222.494C1186.27 178.442 1276.03 98.8818 1373.52 0.117584H1375.2Z" fill="#111E10"/>
<path d="M1434.43 0.117584C1331.66 101.508 1237.49 182.988 1159.25 227.628C1036.85 297.508 953.568 277.363 862.992 255.572C827.184 246.989 790.272 238.092 749.472 234.408C676.848 227.785 591.648 237.622 532.848 261.686C513.12 269.76 496.416 279.479 484.176 290.649C471.936 301.819 464.064 314.478 462.192 328.626C460.464 341.716 463.68 355.982 473.232 371.463C503.328 420.454 595.44 481.123 715.344 538.344C838.416 597.093 990.576 652.158 1134.82 687.156C1216.37 705.498 1298.69 717.413 1376.26 728.622C1480.51 743.671 1576.18 757.506 1650.29 784H1646.88C1573.39 758.251 1478.93 744.573 1376.02 729.68C1298.45 718.432 1216.13 706.517 1134.53 688.214H1134.43C990.144 653.177 837.792 598.033 714.672 539.284C594.624 482.024 502.272 421.159 472.032 371.973C462.432 356.296 459.12 341.795 460.944 328.509C462.816 314.204 470.784 301.309 483.264 289.944C495.648 278.656 512.496 268.897 532.32 260.824C591.36 236.642 676.848 226.766 749.712 233.35C790.704 237.073 827.664 245.931 863.472 254.592C953.664 276.305 1036.7 296.371 1158.58 226.805C1236.53 182.322 1330.42 101.155 1432.8 0.156776H1434.43V0.117584Z" fill="#111E10"/>
<path d="M1493.57 0.117584C1385.86 103.742 1287.6 186.751 1206.62 231.939C1079.09 303.034 994.656 280.185 902.688 255.337C866.256 245.539 828.624 235.349 786.672 230.567C711.552 222.102 622.416 230.999 561.024 255.18C541.008 263.097 523.92 272.66 511.2 283.712C498.576 294.764 490.32 307.345 488.016 321.415C485.76 334.623 488.688 349.202 498.048 364.997C527.808 415.437 622.464 478.419 746.688 537.756C872.016 597.563 1027.44 653.529 1176.96 688.959C1262.74 707.889 1349.47 720.117 1431.26 731.678C1534.08 746.18 1629.22 759.583 1705.15 783.961H1701.5C1626.19 760.25 1532.4 747.042 1431.02 732.737C1349.14 721.214 1262.45 708.986 1176.67 690.017C1027.01 654.548 871.44 598.543 746.112 538.696C621.6 479.242 526.848 416.103 496.896 365.506C487.44 349.437 484.416 334.701 486.768 321.258C489.168 306.992 497.52 294.216 510.288 283.007C523.056 271.837 540.288 262.196 560.496 254.24C622.08 229.98 711.504 221.044 786.96 229.549C829.008 234.291 866.688 244.481 903.216 254.357C994.848 279.127 1079.04 301.819 1205.95 231.038C1286.59 186.045 1384.51 103.389 1491.89 0.156776H1493.57V0.117584Z" fill="#111E10"/>
<path d="M1552.51 0.117584C1439.95 106.015 1337.62 190.592 1254 236.211C1121.42 308.56 1035.84 283.007 942.432 255.18C905.328 244.089 866.928 232.605 823.92 226.844C746.208 216.419 653.232 224.375 589.296 248.713C568.896 256.434 551.424 265.801 538.368 276.814C525.36 287.788 516.672 300.33 513.888 314.321C511.152 327.725 513.792 342.54 522.96 358.647C552.432 410.42 649.344 475.793 777.936 537.129C905.616 598.033 1064.35 655.019 1219.25 690.801C1309.1 710.476 1400.21 723.017 1486.32 734.814C1587.22 748.688 1681.25 761.66 1758.43 784H1754.35C1677.98 762.327 1585.39 749.55 1486.08 735.911C1399.97 724.075 1308.82 711.534 1218.86 691.859C1063.92 655.998 904.992 599.013 777.264 538.069C648.528 476.616 551.328 411.126 521.76 359.079C512.448 342.775 509.808 327.803 512.544 314.164C515.424 299.898 524.208 287.2 537.408 276.07C550.56 264.978 568.176 255.533 588.72 247.734C652.992 223.356 746.256 215.322 824.208 225.747C867.36 231.547 905.76 243.031 942.96 254.122C1036.03 281.909 1121.28 307.384 1253.42 235.31C1336.7 189.886 1438.61 105.623 1550.78 0.156776H1552.51V0.117584Z" fill="#111E10"/>
<path d="M1611.36 0.117584C1494.05 108.249 1387.78 194.354 1301.52 240.444C1163.71 314.086 1077.02 285.828 982.224 254.906C944.448 242.639 905.328 229.862 861.12 223.003C780.96 210.579 684.24 217.634 617.616 241.933C596.736 249.576 578.928 258.825 565.392 269.76C552 280.616 542.928 293.079 539.712 307.149C536.544 320.67 538.8 335.72 547.824 352.142C576.912 405.286 676.176 472.932 808.992 536.384C939.024 598.425 1101.22 656.351 1261.39 692.604C1355.42 712.905 1450.99 725.76 1541.23 737.832C1639.82 751.118 1732.18 763.503 1809.89 783.922H1805.52C1728.72 764.169 1637.86 751.941 1541.04 738.929C1450.7 726.779 1355.23 713.924 1261.06 693.623C1100.78 657.331 938.496 599.366 808.416 537.285C675.312 473.755 575.808 405.874 546.624 352.573C537.456 335.916 535.2 320.709 538.368 306.914C541.68 292.648 550.896 279.989 564.528 268.976C578.112 258.002 596.112 248.596 617.04 240.953C683.952 216.576 781.008 209.482 861.408 221.945C905.616 228.804 944.88 241.58 982.752 253.926C1077.17 284.731 1163.57 312.871 1300.75 239.543C1386.67 193.609 1492.66 107.896 1609.58 0.117584H1611.36Z" fill="#111E10"/>
<path d="M1670.16 0.117584C1548.1 110.522 1437.79 198.116 1348.9 244.716C1205.95 319.651 1118.21 288.65 1022.06 254.71C983.52 241.149 943.68 227.119 898.416 219.202C815.856 204.818 715.344 210.854 646.032 235.192C624.768 242.678 606.48 251.849 592.608 262.705C578.688 273.522 569.232 285.985 565.536 300.055C561.984 313.772 563.856 329.018 572.736 345.714C601.44 400.152 702.912 470.149 840 535.561C972.432 598.778 1138.13 657.723 1303.58 694.368C1401.84 715.335 1501.73 728.504 1596.19 740.889C1691.9 753.469 1782.05 765.384 1859.71 783.922H1854.96C1778.4 765.972 1689.79 754.371 1596.05 742.025C1501.39 729.562 1401.55 716.394 1303.2 695.426C1137.6 658.781 971.808 599.758 839.28 536.501C701.952 470.972 600.24 400.857 571.44 346.106C562.512 329.214 560.544 313.772 564.192 299.82C567.888 285.554 577.584 272.895 591.648 261.921C605.616 250.987 624.096 241.737 645.456 234.212C715.008 209.756 815.904 203.721 898.608 218.104C944.016 226.06 983.952 240.13 1022.59 253.73C1118.45 287.553 1205.9 318.397 1348.18 243.854C1436.78 197.372 1546.61 110.091 1668.34 0.117584H1670.16Z" fill="#111E10"/>
<path d="M1728.82 0.117584C1602.05 112.756 1487.86 201.879 1396.27 249.027C1248.24 325.138 1159.39 291.472 1061.76 254.592C1022.54 239.738 981.936 224.336 935.52 215.4C850.704 199.057 746.4 204.113 674.448 228.373C652.752 235.702 633.936 244.833 619.584 255.65C605.28 266.467 595.392 278.931 591.312 293.04C587.328 306.875 588.912 322.277 597.504 339.287C625.776 395.135 729.408 467.367 870.768 534.816C1005.6 599.209 1174.85 659.134 1345.68 696.21C1448.11 717.883 1552.37 731.326 1651.06 744.024C1743.26 755.938 1830.72 767.187 1907.62 783.961H1902.38C1826.78 767.774 1741.15 756.761 1650.91 745.082C1552.03 732.384 1447.78 718.902 1345.39 697.268C1174.42 660.153 1005.07 600.189 870.096 535.757C728.496 468.229 624.672 395.762 596.304 339.718C587.52 322.512 585.936 306.835 590.016 292.805C594.096 278.421 604.128 265.762 618.672 254.827C633.168 243.971 652.08 234.761 674.016 227.354C746.112 202.976 850.752 197.92 935.856 214.342C982.416 223.278 1023.07 238.719 1062.34 253.612C1159.63 290.414 1248.19 323.923 1395.6 248.126C1486.85 201.134 1600.61 112.325 1726.99 0.117584H1728.82Z" fill="#111E10"/>
<path d="M1787.38 0.117584C1655.9 114.99 1537.87 205.72 1443.65 253.299C1290.58 330.704 1200.53 294.333 1101.5 254.396C1061.62 238.288 1020.24 221.632 972.768 211.638C885.552 193.257 777.6 197.254 703.056 221.436C680.736 228.725 661.488 237.74 646.656 248.518C631.824 259.335 621.504 271.798 617.04 285.985C612.576 299.938 613.92 315.615 622.32 332.82C650.16 389.962 755.904 464.466 901.392 533.915C1038.82 599.444 1211.62 660.506 1387.82 698.012C1494.34 720.313 1602.96 734.069 1705.97 747.081C1781.33 756.605 1853.62 765.737 1919.95 777.573V778.67C1853.57 766.834 1781.18 757.702 1705.82 748.1C1602.72 735.088 1494.1 721.332 1387.54 699.032C1211.18 661.446 1038.24 600.424 900.816 534.777C754.992 465.211 649.104 390.55 621.072 333.212C612.624 315.732 611.232 299.82 615.792 285.633C620.352 271.249 630.816 258.59 645.792 247.655C660.768 236.799 680.208 227.667 702.576 220.378C777.312 196.078 885.744 192.042 973.104 210.501C1020.82 220.495 1062.14 237.23 1102.13 253.338C1200.77 293.157 1290.48 329.371 1442.98 252.28C1536.86 204.897 1654.56 114.559 1785.55 0.117584H1787.38Z" fill="#111E10"/>
<path d="M1845.89 0.117584C1709.81 117.185 1587.89 209.404 1491.17 257.571C1332.96 336.19 1241.71 297.273 1141.39 254.318C1100.78 236.995 1058.69 218.967 1010.02 207.836C920.592 187.456 808.944 190.356 731.76 214.577C708.912 221.671 689.136 230.685 673.872 241.502C658.608 252.241 647.808 264.782 642.864 279.009C638.016 293.157 639.024 308.952 647.232 326.471C674.592 384.867 782.448 461.644 932.112 533.053C1072.03 599.836 1248.48 661.916 1430.02 699.894C1540.7 722.86 1653.7 736.93 1760.98 750.177C1815.84 757.036 1869.22 763.62 1920 771.145V772.242C1869.12 764.717 1815.7 758.055 1760.74 751.274C1653.46 737.949 1540.46 723.879 1429.73 700.913C1248 662.896 1071.41 600.816 931.44 534.032C781.536 462.507 673.44 385.455 645.936 326.823C637.632 309.109 636.624 293.079 641.568 278.695C646.56 264.234 657.504 251.535 672.96 240.601C688.368 229.744 708.336 220.73 731.232 213.519C808.704 189.337 920.64 186.359 1010.4 206.778C1059.17 217.869 1101.31 235.976 1142.02 253.299C1242 296.136 1332.86 334.936 1490.4 256.63C1586.93 208.659 1708.42 116.753 1844.06 0.117584H1845.89Z" fill="#111E10"/>
<path d="M1904.3 0.117576C1763.71 119.419 1637.9 213.166 1538.54 261.804C1375.2 341.716 1282.9 300.055 1181.14 254.161C1139.86 235.506 1096.99 216.223 1047.26 204.034C955.584 181.577 840.288 183.498 760.464 207.483C737.088 214.538 716.784 223.474 700.896 234.252C685.152 244.99 673.92 257.571 668.64 271.954C663.408 286.142 664.08 302.211 672.096 319.965C699.024 379.654 808.848 458.666 962.688 532.034C1105.2 600.032 1285.3 663.131 1472.26 701.657C1587.07 725.251 1704.38 739.556 1815.89 753.195C1851.36 757.506 1886.11 761.778 1920.05 766.207V767.304C1886.02 762.797 1851.17 758.525 1815.74 754.214C1704.19 740.653 1586.78 726.27 1471.97 702.676C1284.86 664.15 1104.58 601.012 962.112 533.013C807.984 459.45 697.92 380.242 670.848 320.318C662.784 302.289 662.064 286.064 667.392 271.562C672.768 256.983 684.192 244.285 700.128 233.35C716.064 222.494 736.56 213.48 760.08 206.425C840.192 182.283 955.776 180.441 1047.7 202.898C1097.57 215.047 1140.43 234.448 1181.81 253.064C1283.23 298.879 1375.25 340.384 1537.92 260.785C1637.04 212.343 1762.37 118.909 1902.58 0H1904.3V0.117576Z" fill="#111E10"/>
<path d="M0.0478516 756.801C85.0079 761.19 151.056 769.225 182.064 783.961H179.808C148.512 769.812 83.4239 762.131 0.0478516 757.859V756.801Z" fill="#111E10"/>
<path d="M0.0478516 720.509C110.256 731.326 187.872 748.1 195.888 777.651C196.416 779.689 196.656 781.805 196.56 783.961H195.264C195.36 781.844 195.12 779.885 194.592 777.925C186.768 748.766 109.632 732.227 0.0478516 721.567V720.509Z" fill="#111E10"/>
<path d="M0.0478516 684.648C105.648 700.09 180.576 720.94 190.752 753.077C193.68 762.523 191.184 772.83 184.608 783.922H183.168C189.744 772.869 192.384 762.64 189.456 753.352C179.328 721.645 105.024 701.03 0.0478516 685.628V684.648Z" fill="#111E10"/>
<path d="M0.048 649.179C101.04 669.167 173.232 693.936 185.568 728.621C191.472 745.082 183.744 763.855 168.72 784H167.088C182.304 763.894 190.08 745.239 184.224 728.896C172.032 694.72 100.416 670.186 0 650.316V649.179H0.048Z" fill="#111E10"/>
<path d="M0.0478516 614.18C96.4798 638.558 165.984 667.011 180.384 704.048C189.6 727.877 176.16 755.037 154.32 783.961H152.832C174.768 755.076 188.304 727.916 179.136 704.362C164.832 667.756 95.9038 639.498 0.0478516 615.317V614.18H0.0478516Z" fill="#111E10"/>
<path d="M0.0478516 579.652C92.0639 608.184 158.784 640.204 175.2 679.435C188.352 710.789 169.248 746.65 144.048 783.922H142.56C167.808 746.65 187.008 710.907 174 679.788C157.728 640.949 91.4398 609.125 0.0478516 580.71V579.652Z" fill="#111E10"/>
<path d="M0.0478516 545.712C87.5998 578.124 151.776 613.593 170.064 654.901C187.392 694.172 163.488 738.459 139.152 783.608L138.912 783.961H137.472L137.904 783.177C162.096 738.263 185.904 694.132 168.768 655.293C150.72 614.337 86.9759 579.103 0.0478516 546.887V545.712Z" fill="#111E10"/>
<path d="M0.0478516 512.281C83.1359 548.455 144.816 587.099 164.832 630.406C183.36 670.343 166.56 714.238 149.568 758.29C146.304 766.873 142.992 775.456 139.968 783.961H138.624C141.648 775.339 145.056 766.638 148.368 757.976C165.216 714.042 182.016 670.382 163.632 630.759C143.76 587.804 82.6079 549.474 0.0478516 513.496V512.281Z" fill="#111E10"/>
<path d="M0.0478516 479.516C78.8158 519.218 137.904 560.722 159.696 605.872C179.136 646.161 168.768 689.194 158.496 732.07C154.272 749.472 150.096 766.834 147.936 783.961H146.64C148.752 766.755 152.976 749.354 157.152 731.874C167.424 689.155 177.792 646.279 158.448 606.264C136.848 561.506 78.1918 520.237 0.0478516 480.809V479.516Z" fill="#111E10"/>
<path d="M0.0478516 447.418C74.5919 490.333 131.184 534.581 154.464 581.337C174.48 621.509 170.016 663.445 165.504 704.91C162.624 731.679 159.744 758.251 163.536 783.961H162.192C158.4 758.172 161.28 731.639 164.208 704.832C168.672 663.484 173.184 621.627 153.264 581.69C130.128 535.287 73.9678 491.352 0.0478516 448.711V447.418Z" fill="#111E10"/>
<path d="M0.0478516 415.986C70.3679 461.84 124.56 508.518 149.328 556.764C169.68 596.348 170.208 636.873 170.64 676.731C171.168 713.533 171.6 749.746 187.776 783.922H186.336C170.256 749.746 169.776 713.493 169.344 676.731C168.816 636.99 168.288 596.544 148.08 557.195C123.552 509.302 69.8399 462.938 0.0478516 417.357V415.986Z" fill="#111E10"/>
<path d="M0.0478516 385.298C66.2879 433.818 118.032 482.691 144.192 532.19C164.448 570.716 169.152 609.517 173.76 647.494C179.568 695.269 185.232 741.633 221.616 783.961H219.936C183.888 741.555 178.272 695.269 172.464 647.611C167.856 609.712 163.152 571.03 142.896 532.622C117.072 483.514 65.6639 434.994 0.0478516 386.787V385.298Z" fill="#111E10"/>
<path d="M0.0478516 355.551C62.2559 406.344 111.792 457.098 138.96 507.695C158.832 544.536 166.944 581.337 174.72 617.12C187.776 676.849 200.256 733.834 266.352 783.961H264.384C199.008 733.834 186.432 676.927 173.472 617.316C165.6 581.573 157.584 544.928 137.808 508.126C110.736 457.96 61.6799 407.52 0.0958516 357.08V355.551H0.0478516Z" fill="#111E10"/>
<path d="M0.0478516 326.627C58.3199 379.459 105.552 431.741 133.824 483.161C152.88 517.924 163.392 552.218 173.52 585.57C195.744 658.507 216.528 726.74 323.664 784H321.264C215.232 726.74 194.4 658.664 172.272 585.884C162.144 552.57 151.728 518.316 132.672 483.631C104.592 432.603 57.7919 380.673 0.0478516 328.234V326.627Z" fill="#111E10"/>
<path d="M0.0478516 298.644C54.5279 353.082 99.5039 406.58 128.64 458.627C146.64 490.647 158.496 522.118 170.064 552.688C203.232 640.4 233.568 720.391 395.712 783.961H392.592C232.128 720.313 201.888 640.518 168.768 553.001C157.296 522.51 145.344 491.039 127.44 459.058C98.5439 407.481 53.9999 354.376 0.0478516 300.369V298.644Z" fill="#111E10"/>
<path d="M0.0478516 271.758C50.8319 327.372 93.6959 381.732 123.504 434.053C139.92 462.859 152.304 491.078 164.4 518.473C208.848 619.158 248.304 708.673 461.904 776.789H462C467.52 779.179 473.28 781.609 479.184 783.961H476.16C471.12 781.923 466.176 779.885 461.424 777.808C247.344 709.535 207.744 619.824 163.2 518.904C151.104 491.509 138.72 463.369 122.304 434.602C92.7358 382.594 50.3038 328.705 0.0478516 273.522V271.758Z" fill="#111E10"/>
<path d="M0.0478516 245.813C47.2799 302.211 88.0318 357.08 118.272 409.558C132.72 434.563 144.816 458.979 156.528 482.808C210.72 592.625 257.904 688.214 500.4 759.309H500.496C523.152 767.814 548.352 776.044 575.952 783.922H571.968C545.808 776.318 521.712 768.441 500.016 760.289C256.896 689.077 209.664 593.213 155.376 483.161C143.664 459.411 131.568 434.955 117.12 409.95C87.1198 358.02 46.8478 303.661 0.0478516 247.812V245.813Z" fill="#111E10"/>
<path d="M0.0478516 221.083C43.9678 277.872 82.6079 332.781 113.136 385.024C125.232 405.717 136.032 425.901 146.544 445.576C210.72 565.543 265.392 667.756 538.944 741.907L539.04 741.986C585.072 756.997 639.504 770.988 701.088 784H695.808C636.24 771.302 583.392 757.584 538.512 742.966C264.432 668.657 209.616 566.248 145.344 446.046C134.784 426.372 124.032 406.109 111.936 385.572C81.6959 333.76 43.4398 279.323 0.0478516 223.121V221.083Z" fill="#111E10"/>
<path d="M0.0478516 197.489C40.7038 254.161 77.3758 308.756 108 360.49C117.312 376.166 126 391.608 134.544 406.658C208.944 537.873 270.768 647.063 577.488 724.467C655.2 746.611 752.016 766.442 863.424 783.961H856.464C747.744 766.677 653.184 747.16 577.104 725.525C269.808 648.003 207.792 538.579 133.296 407.167C124.752 392.039 115.968 376.598 106.752 360.921C76.4639 309.775 40.2719 255.69 0.0478516 199.606V197.489Z" fill="#111E10"/>
<path d="M0.0478516 175.032C37.6319 231.116 72.3358 285.084 102.768 335.955C108.912 346.184 114.768 356.178 120.624 366.094C205.296 509.733 274.08 626.447 615.984 707.027H616.08C706.272 729.68 817.392 749.628 944.16 767.186C986.256 773.065 1030.03 778.67 1075.39 783.961H1066.08C1023.98 778.944 983.232 773.732 943.92 768.284C817.104 750.647 705.888 730.699 615.648 708.046C273.168 627.31 204.288 510.439 119.472 366.486C113.664 356.531 107.664 346.498 101.616 336.426C71.4719 286.142 37.1519 232.723 0.0478516 177.305V175.032Z" fill="#111E10"/>
<path d="M0.0478516 153.79C34.7519 208.855 67.5359 261.725 97.6318 311.342L104.976 323.492C200.016 480.927 275.184 605.597 654.528 689.547C830.256 728.425 1071.17 758.564 1347.94 783.922H1336.08C1064.26 758.799 827.52 728.935 654.24 690.605C274.32 606.538 198.96 481.672 103.776 324.002L96.4318 311.852C66.7198 262.744 34.2719 210.501 0.0478516 156.142V153.79Z" fill="#111E10"/>
</svg>
